G04 Layer_Color=32896*
%FSLAX25Y25*%
%MOIN*%
G70*
G01*
G75*
%ADD29C,0.01000*%
%ADD44C,0.00669*%
D29*
X132283Y104331D02*
G03*
X131741Y45257I31398J-29828D01*
G01*
X195177Y44975D02*
G03*
X195720Y104049I-31398J29828D01*
G01*
X40945Y104331D02*
G03*
X40402Y45257I31398J-29828D01*
G01*
X103839Y44975D02*
G03*
X104381Y104049I-31398J29828D01*
G01*
X179528Y118504D02*
Y131102D01*
X148031Y118110D02*
Y131102D01*
Y18504D02*
Y31496D01*
X179528Y18504D02*
Y31496D01*
X148031Y131102D02*
X179528D01*
X148031Y18504D02*
X179528D01*
X132283Y31496D02*
Y118110D01*
X195276Y31496D02*
Y118110D01*
X132283D02*
X195276D01*
X132283Y31496D02*
X195276D01*
X189370Y35433D02*
Y43307D01*
X185433Y39370D02*
X193307D01*
X88189Y118504D02*
Y131102D01*
X56693Y118110D02*
Y131102D01*
Y18504D02*
Y31496D01*
X88189Y18504D02*
Y31496D01*
X56693Y131102D02*
X88189D01*
X56693Y18504D02*
X88189D01*
X40945Y31496D02*
Y118110D01*
X103937Y31496D02*
Y118110D01*
X40945D02*
X103937D01*
X40945Y31496D02*
X103937D01*
X98032Y35433D02*
Y43307D01*
X94095Y39370D02*
X101969D01*
D44*
X97441Y123228D02*
Y120472D01*
X96063D01*
X95604Y120932D01*
Y121391D01*
X96063Y121850D01*
X97441D01*
X96063D01*
X95604Y122309D01*
Y122768D01*
X96063Y123228D01*
X97441D01*
X94686D02*
X92849D01*
X93768D01*
Y120472D01*
X90094D02*
X91931D01*
X90094Y122309D01*
Y122768D01*
X90553Y123228D01*
X91472D01*
X91931Y122768D01*
X187992Y123621D02*
Y120866D01*
X186615D01*
X186155Y121325D01*
Y121784D01*
X186615Y122244D01*
X187992D01*
X186615D01*
X186155Y122703D01*
Y123162D01*
X186615Y123621D01*
X187992D01*
X185237D02*
X183400D01*
X184319D01*
Y120866D01*
X182482D02*
X181564D01*
X182023D01*
Y123621D01*
X182482Y123162D01*
M02*
