G04 Layer_Physical_Order=2*
G04 Layer_Color=16711680*
%FSLAX25Y25*%
%MOIN*%
G70*
G01*
G75*
%ADD29C,0.01000*%
%ADD30C,0.10236*%
%ADD31R,0.05906X0.05906*%
%ADD32C,0.05906*%
%ADD33R,0.05906X0.05906*%
%ADD34C,0.07087*%
%ADD35C,0.03150*%
%ADD36C,0.03937*%
%ADD37R,0.14173X0.14173*%
G36*
X228453Y71670D02*
X228985Y71740D01*
X229946Y72138D01*
X230772Y72771D01*
X231218Y73353D01*
X231718Y73183D01*
Y67998D01*
X231218Y67828D01*
X230772Y68410D01*
X229946Y69043D01*
X228985Y69442D01*
X228453Y69512D01*
Y65591D01*
Y61669D01*
X228985Y61739D01*
X229946Y62138D01*
X230772Y62771D01*
X231218Y63353D01*
X231718Y63183D01*
Y57683D01*
X231376Y57546D01*
X231218Y57544D01*
X230648Y58286D01*
X229859Y58892D01*
X228939Y59273D01*
X227953Y59403D01*
X226966Y59273D01*
X226047Y58892D01*
X225257Y58286D01*
X224687Y57544D01*
X224530Y57546D01*
X224187Y57683D01*
Y63183D01*
X224687Y63353D01*
X225134Y62771D01*
X225959Y62138D01*
X226921Y61739D01*
X227453Y61669D01*
Y65591D01*
Y69512D01*
X226921Y69442D01*
X225959Y69043D01*
X225134Y68410D01*
X224687Y67828D01*
X224187Y67998D01*
Y73183D01*
X224687Y73353D01*
X225134Y72771D01*
X225959Y72138D01*
X226921Y71740D01*
X227453Y71670D01*
Y75590D01*
X228453D01*
Y71670D01*
D02*
G37*
G36*
X8858Y148161D02*
X219882D01*
Y130512D01*
Y92280D01*
X219420Y92089D01*
X203269Y108240D01*
X203054Y108384D01*
X203205Y108884D01*
X204905D01*
X205158Y108505D01*
X205953Y107974D01*
X206890Y107788D01*
X207827Y107974D01*
X208621Y108505D01*
X209152Y109299D01*
X209338Y110236D01*
X209152Y111173D01*
X208621Y111968D01*
X207827Y112498D01*
X206890Y112685D01*
X206840Y112675D01*
X206449Y113107D01*
X206582Y113779D01*
X206396Y114717D01*
X206248Y114939D01*
X206484Y115380D01*
X211008D01*
X211261Y115001D01*
X212055Y114470D01*
X212992Y114284D01*
X213929Y114470D01*
X214724Y115001D01*
X215254Y115795D01*
X215441Y116732D01*
X215254Y117669D01*
X214724Y118464D01*
X213929Y118994D01*
X212992Y119181D01*
X212055Y118994D01*
X211261Y118464D01*
X211008Y118085D01*
X162848D01*
X162695Y118850D01*
X162164Y119645D01*
X161370Y120176D01*
X160433Y120362D01*
X159496Y120176D01*
X158702Y119645D01*
X158171Y118850D01*
X157984Y117913D01*
X158171Y116976D01*
X158702Y116182D01*
X159496Y115651D01*
X160433Y115465D01*
X161370Y115651D01*
X161402Y115673D01*
X161687Y115482D01*
X162205Y115380D01*
X201784D01*
X202020Y114939D01*
X201872Y114717D01*
X201685Y113779D01*
X201387Y113416D01*
X165976D01*
X165976Y113416D01*
X165458Y113313D01*
X165019Y113020D01*
X161372Y109372D01*
X159958D01*
X159802Y109606D01*
X159008Y110136D01*
X158071Y110323D01*
X157134Y110136D01*
X156339Y109606D01*
X155809Y108811D01*
X155790Y108716D01*
X155290Y108765D01*
Y124750D01*
X155693Y124984D01*
X163279D01*
Y133071D01*
X163779D01*
Y133571D01*
X171866D01*
Y140131D01*
X176459D01*
X179159Y137432D01*
Y133238D01*
X178793Y132872D01*
X178347Y132960D01*
X177409Y132774D01*
X176615Y132243D01*
X176084Y131449D01*
X175898Y130512D01*
X176084Y129575D01*
X176615Y128780D01*
X177409Y128250D01*
X178347Y128063D01*
X179283Y128250D01*
X180078Y128780D01*
X180609Y129575D01*
X180795Y130512D01*
X180706Y130958D01*
X181468Y131721D01*
X181468Y131721D01*
X181762Y132159D01*
X181865Y132677D01*
X181865Y132677D01*
Y137992D01*
X181865Y137992D01*
X181762Y138510D01*
X181468Y138949D01*
X181468Y138949D01*
X177976Y142441D01*
X177537Y142734D01*
X177020Y142837D01*
X177020Y142837D01*
X112911D01*
X112755Y143070D01*
X111961Y143601D01*
X111024Y143787D01*
X110087Y143601D01*
X109292Y143070D01*
X108761Y142276D01*
X108575Y141339D01*
X108761Y140401D01*
X109292Y139607D01*
X110087Y139076D01*
X111024Y138890D01*
X111961Y139076D01*
X112755Y139607D01*
X113105Y140131D01*
X152584D01*
Y115852D01*
X152084Y115803D01*
X152065Y115898D01*
X151535Y116692D01*
X150740Y117223D01*
X149803Y117409D01*
X148866Y117223D01*
X148072Y116692D01*
X147541Y115898D01*
X147354Y114961D01*
X147541Y114024D01*
X148072Y113229D01*
X148844Y112713D01*
Y112599D01*
X148844Y112598D01*
X148947Y112081D01*
X149041Y111940D01*
Y53362D01*
X148662Y53109D01*
X148132Y52315D01*
X147945Y51378D01*
X148132Y50441D01*
X148662Y49646D01*
X149457Y49116D01*
X150394Y48929D01*
X151331Y49116D01*
X152125Y49646D01*
X152656Y50441D01*
X152842Y51378D01*
X152656Y52315D01*
X152125Y53109D01*
X151746Y53362D01*
Y112401D01*
X151746Y112402D01*
X151644Y112919D01*
X151550Y113060D01*
Y113252D01*
X152065Y114024D01*
X152084Y114118D01*
X152584Y114069D01*
Y106693D01*
X152584Y106693D01*
X152687Y106175D01*
X152980Y105736D01*
X159222Y99495D01*
X159166Y99213D01*
X159352Y98276D01*
X159883Y97481D01*
X160677Y96950D01*
X161614Y96764D01*
X161897Y96820D01*
X176453Y82263D01*
X176192Y81817D01*
X175394Y81976D01*
X174457Y81790D01*
X173662Y81259D01*
X173132Y80465D01*
X172945Y79528D01*
X173132Y78591D01*
X173662Y77796D01*
X174041Y77543D01*
Y59025D01*
X167573Y52557D01*
X167126Y52645D01*
X166189Y52459D01*
X165394Y51928D01*
X164864Y51134D01*
X164677Y50197D01*
X164864Y49260D01*
X165394Y48465D01*
X166189Y47935D01*
X167126Y47748D01*
X168063Y47935D01*
X168857Y48465D01*
X169388Y49260D01*
X169575Y50197D01*
X169486Y50643D01*
X176350Y57508D01*
X176350Y57508D01*
X176644Y57947D01*
X176746Y58465D01*
Y77543D01*
X177125Y77796D01*
X177656Y78591D01*
X177842Y79528D01*
X177683Y80326D01*
X178129Y80587D01*
X179333Y79384D01*
X179244Y78937D01*
X179431Y78000D01*
X179962Y77206D01*
X180756Y76675D01*
X181693Y76488D01*
X182630Y76675D01*
X183424Y77206D01*
X183955Y78000D01*
X184142Y78937D01*
X183955Y79874D01*
X183424Y80668D01*
X182630Y81199D01*
X181693Y81386D01*
X181246Y81297D01*
X163941Y98602D01*
X164063Y99213D01*
X163876Y100150D01*
X163346Y100944D01*
X162551Y101475D01*
X161614Y101661D01*
X161003Y101540D01*
X157517Y105026D01*
X157764Y105487D01*
X158071Y105425D01*
X158744Y105559D01*
X159176Y105168D01*
X159166Y105118D01*
X159352Y104181D01*
X159883Y103387D01*
X160677Y102856D01*
X161614Y102670D01*
X162551Y102856D01*
X163346Y103387D01*
X163876Y104181D01*
X164063Y105118D01*
X163974Y105565D01*
X167293Y108884D01*
X176784D01*
X177020Y108442D01*
X176872Y108221D01*
X176685Y107283D01*
X176872Y106346D01*
X177402Y105552D01*
X178197Y105021D01*
X179134Y104835D01*
X180071Y105021D01*
X180865Y105552D01*
X181118Y105931D01*
X201752D01*
X227642Y80041D01*
X227462Y79513D01*
X226921Y79442D01*
X225959Y79043D01*
X225134Y78410D01*
X224687Y77828D01*
X224187Y77998D01*
Y80118D01*
X224187Y80118D01*
X224084Y80636D01*
X223791Y81075D01*
X223791Y81075D01*
X202334Y102531D01*
X201896Y102825D01*
X201378Y102928D01*
X201378Y102928D01*
X180921D01*
X180668Y103306D01*
X179874Y103837D01*
X178937Y104023D01*
X178000Y103837D01*
X177206Y103306D01*
X176675Y102512D01*
X176488Y101575D01*
X176675Y100638D01*
X177206Y99843D01*
X178000Y99313D01*
X178937Y99126D01*
X179874Y99313D01*
X180668Y99843D01*
X180921Y100222D01*
X189098D01*
X189250Y99722D01*
X189017Y99566D01*
X188486Y98772D01*
X188299Y97835D01*
X188486Y96898D01*
X189017Y96103D01*
X189395Y95850D01*
Y69095D01*
X189395Y69095D01*
X189498Y68577D01*
X189792Y68138D01*
X192719Y65210D01*
X192630Y64764D01*
X192816Y63827D01*
X193347Y63032D01*
X193923Y62648D01*
Y51000D01*
X193544Y50747D01*
X193013Y49953D01*
X192827Y49016D01*
X193013Y48079D01*
X193544Y47284D01*
X193923Y47031D01*
Y36959D01*
X193347Y36574D01*
X192816Y35780D01*
X192630Y34843D01*
X192816Y33906D01*
X193347Y33111D01*
X194142Y32580D01*
X195079Y32394D01*
X196016Y32580D01*
X196810Y33111D01*
X197341Y33906D01*
X197527Y34843D01*
X197341Y35780D01*
X196810Y36574D01*
X196628Y36695D01*
Y44554D01*
X197128Y44705D01*
X197221Y44567D01*
X198821Y42966D01*
X198732Y42520D01*
X198919Y41583D01*
X199450Y40788D01*
X199828Y40535D01*
Y28084D01*
X199653Y28050D01*
X198859Y27519D01*
X198328Y26724D01*
X198142Y25787D01*
X198328Y24850D01*
X198859Y24056D01*
X199653Y23525D01*
X200591Y23339D01*
X201528Y23525D01*
X202322Y24056D01*
X202853Y24850D01*
X203039Y25787D01*
X202853Y26724D01*
X202534Y27202D01*
Y37270D01*
X203034Y37422D01*
X203126Y37284D01*
X204333Y36077D01*
X204244Y35630D01*
X204431Y34693D01*
X204961Y33898D01*
X205756Y33368D01*
X206693Y33181D01*
X207630Y33368D01*
X208424Y33898D01*
X208955Y34693D01*
X209141Y35630D01*
X208955Y36567D01*
X208424Y37361D01*
X207630Y37892D01*
X206693Y38078D01*
X206246Y37990D01*
X205435Y38800D01*
Y45245D01*
X205332Y45763D01*
X205039Y46202D01*
X205039Y46202D01*
X203912Y47329D01*
Y54118D01*
X204291Y54371D01*
X204821Y55165D01*
X205008Y56102D01*
X204821Y57039D01*
X204291Y57834D01*
X203496Y58365D01*
X202559Y58551D01*
X202112Y58462D01*
X201747Y58828D01*
Y75575D01*
X202125Y75828D01*
X202656Y76622D01*
X202842Y77559D01*
X202656Y78496D01*
X202125Y79290D01*
X201331Y79821D01*
X200394Y80008D01*
X199457Y79821D01*
X198662Y79290D01*
X198132Y78496D01*
X197945Y77559D01*
X198132Y76622D01*
X198662Y75828D01*
X199041Y75575D01*
Y67471D01*
X198579Y67280D01*
X196235Y69624D01*
Y95456D01*
X196613Y95710D01*
X196731Y95886D01*
X197231D01*
X197481Y95513D01*
X198275Y94982D01*
X199213Y94796D01*
X199659Y94884D01*
X208293Y86251D01*
Y80922D01*
X207914Y80668D01*
X207383Y79874D01*
X207197Y78937D01*
X207383Y78000D01*
X207914Y77206D01*
X208709Y76675D01*
X209646Y76488D01*
X210583Y76675D01*
X211377Y77206D01*
X211908Y78000D01*
X212094Y78937D01*
X211908Y79874D01*
X211377Y80668D01*
X210998Y80922D01*
Y86811D01*
X210998Y86811D01*
X210895Y87329D01*
X210602Y87768D01*
X201572Y96797D01*
X201661Y97244D01*
X201475Y98181D01*
X200944Y98975D01*
X200150Y99506D01*
X199213Y99693D01*
X198275Y99506D01*
X197481Y98975D01*
X197363Y98799D01*
X196863D01*
X196613Y99172D01*
X195819Y99703D01*
X195724Y99722D01*
X195773Y100222D01*
X200818D01*
X221482Y79558D01*
Y61006D01*
X221020Y60814D01*
X217517Y64317D01*
X217606Y64764D01*
X217420Y65701D01*
X216889Y66495D01*
X216094Y67026D01*
X215158Y67212D01*
X214220Y67026D01*
X213426Y66495D01*
X212895Y65701D01*
X212709Y64764D01*
X212895Y63827D01*
X213426Y63032D01*
X214220Y62502D01*
X215158Y62315D01*
X215604Y62404D01*
X219317Y58692D01*
Y43520D01*
X218938Y43267D01*
X218407Y42472D01*
X218221Y41535D01*
X218407Y40598D01*
X218938Y39804D01*
X219732Y39273D01*
X220669Y39087D01*
X221606Y39273D01*
X222401Y39804D01*
X222932Y40598D01*
X223118Y41535D01*
X222932Y42472D01*
X222401Y43267D01*
X222022Y43520D01*
Y48955D01*
X222484Y49146D01*
X224500Y47131D01*
X224271Y46577D01*
X224141Y45591D01*
X224271Y44604D01*
X224651Y43685D01*
X225257Y42895D01*
X226047Y42289D01*
X226966Y41908D01*
X227953Y41778D01*
X228939Y41908D01*
X229859Y42289D01*
X230648Y42895D01*
X231218Y43637D01*
X231376Y43635D01*
X231718Y43498D01*
Y41269D01*
X229493Y39044D01*
X228939Y39273D01*
X227953Y39403D01*
X226966Y39273D01*
X226047Y38892D01*
X225257Y38286D01*
X224651Y37497D01*
X224271Y36577D01*
X224141Y35591D01*
X224271Y34604D01*
X224651Y33685D01*
X225257Y32895D01*
X226047Y32289D01*
X226966Y31908D01*
X227953Y31778D01*
X228939Y31908D01*
X229859Y32289D01*
X230648Y32895D01*
X231254Y33685D01*
X231635Y34604D01*
X231765Y35591D01*
X231635Y36577D01*
X231406Y37130D01*
X234027Y39752D01*
X234275Y40123D01*
X234548Y40116D01*
X234775Y40040D01*
Y8858D01*
X234784Y8813D01*
X234646Y7409D01*
X234224Y6016D01*
X233537Y4732D01*
X232614Y3607D01*
X231488Y2683D01*
X230204Y1997D01*
X228811Y1574D01*
X227408Y1436D01*
X227362Y1445D01*
X55429D01*
X55194Y1886D01*
X55412Y2213D01*
X55598Y3150D01*
X55412Y4087D01*
X54881Y4881D01*
X54087Y5412D01*
X53150Y5598D01*
X52703Y5509D01*
X50565Y7647D01*
Y37482D01*
X50929Y37753D01*
X51403Y37599D01*
Y26378D01*
X51403Y26378D01*
X51506Y25860D01*
X51799Y25421D01*
X60264Y16957D01*
X60264Y16957D01*
X60703Y16664D01*
X61221Y16561D01*
X61221Y16561D01*
X64528D01*
Y8622D01*
X80354D01*
Y24449D01*
X64528D01*
Y19266D01*
X61781D01*
X58721Y22326D01*
X59040Y22714D01*
X59299Y22541D01*
X60236Y22354D01*
X61173Y22541D01*
X61968Y23072D01*
X62498Y23866D01*
X62685Y24803D01*
X62498Y25740D01*
X61968Y26535D01*
X61589Y26788D01*
Y27794D01*
X61800Y28238D01*
X62072Y28312D01*
X62748Y28446D01*
X63542Y28977D01*
X64073Y29772D01*
X64259Y30709D01*
X64073Y31646D01*
X63542Y32440D01*
X63361Y32561D01*
Y50181D01*
X63739Y50434D01*
X64270Y51228D01*
X64456Y52165D01*
X64270Y53102D01*
X63739Y53897D01*
X62945Y54428D01*
X62008Y54614D01*
X61071Y54428D01*
X60276Y53897D01*
X59746Y53102D01*
X59559Y52165D01*
X59746Y51228D01*
X60276Y50434D01*
X60655Y50181D01*
Y49158D01*
X60159Y49089D01*
X59866Y49528D01*
X59866Y49528D01*
X54958Y54435D01*
X55205Y54896D01*
X55512Y54835D01*
X56449Y55021D01*
X57243Y55552D01*
X57774Y56346D01*
X57960Y57284D01*
X57774Y58220D01*
X57243Y59015D01*
X56865Y59268D01*
Y76015D01*
X60774Y79924D01*
X61221Y79835D01*
X62157Y80021D01*
X62952Y80552D01*
X63483Y81346D01*
X63669Y82284D01*
X63483Y83220D01*
X62952Y84015D01*
X62376Y84399D01*
Y96441D01*
X62755Y96694D01*
X63286Y97488D01*
X63472Y98425D01*
X63286Y99362D01*
X62755Y100157D01*
X62376Y100410D01*
Y127478D01*
X62558Y127599D01*
X63089Y128394D01*
X63275Y129331D01*
X63089Y130268D01*
X62558Y131062D01*
X61764Y131593D01*
X60827Y131779D01*
X59890Y131593D01*
X59095Y131062D01*
X58565Y130268D01*
X58378Y129331D01*
X58565Y128394D01*
X59095Y127599D01*
X59671Y127215D01*
Y100410D01*
X59292Y100157D01*
X58761Y99362D01*
X58575Y98425D01*
X58761Y97488D01*
X59292Y96694D01*
X59671Y96441D01*
Y84136D01*
X59489Y84015D01*
X58958Y83220D01*
X58772Y82284D01*
X58861Y81837D01*
X54555Y77531D01*
X54262Y77092D01*
X54159Y76575D01*
X54159Y76575D01*
Y59268D01*
X53780Y59015D01*
X53250Y58220D01*
X53063Y57284D01*
X53124Y56976D01*
X52663Y56730D01*
X47471Y61923D01*
Y65748D01*
X47368Y66265D01*
X47150Y66592D01*
X47538Y67173D01*
X47724Y68110D01*
X47538Y69047D01*
X47007Y69842D01*
X46628Y70095D01*
Y80036D01*
X47401Y80552D01*
X47932Y81346D01*
X48118Y82284D01*
X47932Y83220D01*
X47401Y84015D01*
X46606Y84546D01*
X45669Y84732D01*
X44732Y84546D01*
X44227Y84208D01*
X43727Y84475D01*
Y120357D01*
X45058Y121688D01*
X45669Y121567D01*
X46606Y121753D01*
X47401Y122284D01*
X47931Y123078D01*
X48118Y124015D01*
X47931Y124952D01*
X47401Y125747D01*
X46606Y126278D01*
X45669Y126464D01*
X44732Y126278D01*
X43938Y125747D01*
X43407Y124952D01*
X43221Y124015D01*
X43277Y123733D01*
X41418Y121874D01*
X41124Y121435D01*
X41021Y120917D01*
X41021Y120917D01*
Y66908D01*
X41021Y66908D01*
X41124Y66391D01*
X41418Y65952D01*
X42939Y64431D01*
Y20882D01*
X42560Y20629D01*
X42029Y19835D01*
X41843Y18898D01*
X42029Y17961D01*
X42560Y17166D01*
X43354Y16635D01*
X44291Y16449D01*
X45228Y16635D01*
X46023Y17166D01*
X46554Y17961D01*
X46740Y18898D01*
X46554Y19835D01*
X46023Y20629D01*
X45644Y20882D01*
Y59270D01*
X46106Y59461D01*
X52633Y52934D01*
X52469Y52391D01*
X51819Y52262D01*
X51025Y51731D01*
X50494Y50937D01*
X50307Y50000D01*
X50494Y49063D01*
X51025Y48269D01*
X51403Y48015D01*
Y41443D01*
X50903Y41326D01*
X50150Y41829D01*
X49213Y42016D01*
X48276Y41829D01*
X47481Y41298D01*
X46950Y40504D01*
X46764Y39567D01*
X46950Y38630D01*
X47481Y37835D01*
X47860Y37582D01*
Y7087D01*
X47860Y7087D01*
X47963Y6569D01*
X48256Y6130D01*
X50790Y3596D01*
X50701Y3150D01*
X50887Y2213D01*
X51105Y1886D01*
X50870Y1445D01*
X8858D01*
X8813Y1436D01*
X7409Y1574D01*
X6016Y1997D01*
X4732Y2683D01*
X3607Y3607D01*
X2683Y4732D01*
X1997Y6016D01*
X1574Y7409D01*
X1436Y8813D01*
X1445Y8858D01*
Y140748D01*
X1436Y140794D01*
X1574Y142197D01*
X1997Y143590D01*
X2683Y144874D01*
X3607Y146000D01*
X4732Y146923D01*
X6016Y147609D01*
X7409Y148032D01*
X8813Y148170D01*
X8858Y148161D01*
D02*
G37*
%LPC*%
G36*
X163952Y63279D02*
X161524D01*
Y60851D01*
X161799Y60887D01*
X162521Y61186D01*
X163141Y61662D01*
X163617Y62283D01*
X163916Y63005D01*
X163952Y63279D01*
D02*
G37*
G36*
X160524Y66708D02*
X160249Y66672D01*
X159527Y66373D01*
X158906Y65897D01*
X158431Y65277D01*
X158132Y64555D01*
X158095Y64280D01*
X160524D01*
Y66708D01*
D02*
G37*
G36*
Y63279D02*
X158095D01*
X158132Y63005D01*
X158431Y62283D01*
X158906Y61662D01*
X159527Y61186D01*
X160249Y60887D01*
X160524Y60851D01*
Y63279D01*
D02*
G37*
G36*
X8858Y50086D02*
X7921Y49900D01*
X7127Y49369D01*
X6596Y48575D01*
X6410Y47638D01*
X6596Y46701D01*
X7127Y45906D01*
X7921Y45375D01*
X8858Y45189D01*
X9795Y45375D01*
X10590Y45906D01*
X11120Y46701D01*
X11307Y47638D01*
X11120Y48575D01*
X10590Y49369D01*
X9795Y49900D01*
X8858Y50086D01*
D02*
G37*
G36*
Y38275D02*
X7921Y38089D01*
X7127Y37558D01*
X6596Y36764D01*
X6410Y35827D01*
X6596Y34890D01*
X7127Y34095D01*
X7921Y33564D01*
X8858Y33378D01*
X9795Y33564D01*
X10590Y34095D01*
X11120Y34890D01*
X11307Y35827D01*
X11120Y36764D01*
X10590Y37558D01*
X9795Y38089D01*
X8858Y38275D01*
D02*
G37*
G36*
X161524Y66708D02*
Y64280D01*
X163952D01*
X163916Y64555D01*
X163617Y65277D01*
X163141Y65897D01*
X162521Y66373D01*
X161799Y66672D01*
X161524Y66708D01*
D02*
G37*
G36*
X160524Y79028D02*
X158095D01*
X158132Y78753D01*
X158431Y78031D01*
X158906Y77410D01*
X159527Y76935D01*
X160249Y76635D01*
X160524Y76599D01*
Y79028D01*
D02*
G37*
G36*
X163952D02*
X161524D01*
Y76599D01*
X161799Y76635D01*
X162521Y76935D01*
X163141Y77410D01*
X163617Y78031D01*
X163916Y78753D01*
X163952Y79028D01*
D02*
G37*
G36*
X104134Y109142D02*
X103197Y108955D01*
X102402Y108424D01*
X101872Y107630D01*
X101685Y106693D01*
X101872Y105756D01*
X102387Y104984D01*
Y73638D01*
X102009Y73385D01*
X101478Y72591D01*
X101292Y71653D01*
X101478Y70717D01*
X102009Y69922D01*
X102803Y69391D01*
X103740Y69205D01*
X104677Y69391D01*
X105472Y69922D01*
X106002Y70717D01*
X106189Y71653D01*
X106002Y72591D01*
X105472Y73385D01*
X105093Y73638D01*
Y104445D01*
X105865Y104962D01*
X106396Y105756D01*
X106582Y106693D01*
X106396Y107630D01*
X105865Y108424D01*
X105071Y108955D01*
X104134Y109142D01*
D02*
G37*
G36*
X95866Y105401D02*
X94929Y105215D01*
X94135Y104684D01*
X93604Y103890D01*
X93418Y102953D01*
X93604Y102016D01*
X94135Y101221D01*
X94612Y100902D01*
Y71374D01*
X94233Y71121D01*
X93702Y70327D01*
X93516Y69390D01*
X93702Y68453D01*
X94233Y67658D01*
X95028Y67128D01*
X95965Y66941D01*
X96902Y67128D01*
X97696Y67658D01*
X98227Y68453D01*
X98413Y69390D01*
X98227Y70327D01*
X97696Y71121D01*
X97317Y71374D01*
Y101034D01*
X97598Y101221D01*
X98128Y102016D01*
X98315Y102953D01*
X98128Y103890D01*
X97598Y104684D01*
X96803Y105215D01*
X95866Y105401D01*
D02*
G37*
G36*
X110433Y116228D02*
X109496Y116042D01*
X108702Y115511D01*
X108171Y114717D01*
X107984Y113779D01*
X108171Y112843D01*
X108702Y112048D01*
X109080Y111795D01*
Y73573D01*
X108505Y73188D01*
X107974Y72394D01*
X107788Y71457D01*
X107974Y70520D01*
X108505Y69725D01*
X109299Y69195D01*
X110236Y69008D01*
X111173Y69195D01*
X111968Y69725D01*
X112498Y70520D01*
X112685Y71457D01*
X112498Y72394D01*
X111968Y73188D01*
X111786Y73310D01*
Y111795D01*
X112164Y112048D01*
X112695Y112843D01*
X112882Y113779D01*
X112695Y114717D01*
X112164Y115511D01*
X111370Y116042D01*
X110433Y116228D01*
D02*
G37*
G36*
X98567Y11705D02*
X95146D01*
Y8284D01*
X95678Y8354D01*
X96639Y8752D01*
X97465Y9386D01*
X98098Y10211D01*
X98497Y11173D01*
X98567Y11705D01*
D02*
G37*
G36*
X114646Y16017D02*
X113659Y15887D01*
X112740Y15506D01*
X111950Y14900D01*
X111344Y14111D01*
X110963Y13191D01*
X110834Y12205D01*
X110963Y11218D01*
X111344Y10299D01*
X111950Y9509D01*
X112740Y8903D01*
X113659Y8523D01*
X114646Y8393D01*
X115632Y8523D01*
X116552Y8903D01*
X117341Y9509D01*
X117947Y10299D01*
X118328Y11218D01*
X118458Y12205D01*
X118328Y13191D01*
X117947Y14111D01*
X117341Y14900D01*
X116552Y15506D01*
X115632Y15887D01*
X114646Y16017D01*
D02*
G37*
G36*
X88425Y15984D02*
X80866D01*
Y8425D01*
X88425D01*
Y15984D01*
D02*
G37*
G36*
X8858Y14832D02*
X7693Y14717D01*
X6572Y14377D01*
X5539Y13825D01*
X4634Y13082D01*
X3891Y12177D01*
X3339Y11144D01*
X2999Y10024D01*
X2885Y8858D01*
X2999Y7693D01*
X3339Y6572D01*
X3891Y5539D01*
X4634Y4634D01*
X5539Y3891D01*
X6572Y3339D01*
X7693Y2999D01*
X8858Y2885D01*
X10024Y2999D01*
X11144Y3339D01*
X12177Y3891D01*
X13082Y4634D01*
X13825Y5539D01*
X14377Y6572D01*
X14717Y7693D01*
X14832Y8858D01*
X14717Y10024D01*
X14377Y11144D01*
X13825Y12177D01*
X13082Y13082D01*
X12177Y13825D01*
X11144Y14377D01*
X10024Y14717D01*
X8858Y14832D01*
D02*
G37*
G36*
X227362D02*
X226197Y14717D01*
X225076Y14377D01*
X224043Y13825D01*
X223138Y13082D01*
X222395Y12177D01*
X221843Y11144D01*
X221503Y10024D01*
X221389Y8858D01*
X221503Y7693D01*
X221843Y6572D01*
X222395Y5539D01*
X223138Y4634D01*
X224043Y3891D01*
X225076Y3339D01*
X226197Y2999D01*
X227362Y2885D01*
X228528Y2999D01*
X229648Y3339D01*
X230681Y3891D01*
X231586Y4634D01*
X232329Y5539D01*
X232881Y6572D01*
X233221Y7693D01*
X233336Y8858D01*
X233221Y10024D01*
X232881Y11144D01*
X232329Y12177D01*
X231586Y13082D01*
X230681Y13825D01*
X229648Y14377D01*
X228528Y14717D01*
X227362Y14832D01*
D02*
G37*
G36*
X94146Y11705D02*
X90725D01*
X90795Y11173D01*
X91193Y10211D01*
X91826Y9386D01*
X92652Y8752D01*
X93614Y8354D01*
X94146Y8284D01*
Y11705D01*
D02*
G37*
G36*
X207319Y67212D02*
X206382Y67026D01*
X205587Y66495D01*
X205057Y65701D01*
X204870Y64764D01*
X205057Y63827D01*
X205587Y63032D01*
X205734Y62934D01*
Y46457D01*
X205734Y46457D01*
X205837Y45939D01*
X206130Y45500D01*
X224173Y27457D01*
Y21811D01*
X231732D01*
Y29370D01*
X226086D01*
X208439Y47017D01*
Y62624D01*
X209050Y63032D01*
X209581Y63827D01*
X209768Y64764D01*
X209581Y65701D01*
X209050Y66495D01*
X208256Y67026D01*
X207319Y67212D01*
D02*
G37*
G36*
X118110Y35904D02*
X116969Y35754D01*
X115906Y35313D01*
X114994Y34613D01*
X114293Y33700D01*
X113853Y32637D01*
X113702Y31496D01*
X113853Y30355D01*
X114293Y29292D01*
X114994Y28379D01*
X115906Y27679D01*
X116969Y27239D01*
X118110Y27088D01*
X119251Y27239D01*
X120314Y27679D01*
X121227Y28379D01*
X121927Y29292D01*
X122368Y30355D01*
X122518Y31496D01*
X122368Y32637D01*
X121927Y33700D01*
X121227Y34613D01*
X120314Y35313D01*
X119251Y35754D01*
X118110Y35904D01*
D02*
G37*
G36*
X31693Y53433D02*
X30756Y53246D01*
X29961Y52716D01*
X29431Y51921D01*
X29244Y50984D01*
X29431Y50047D01*
X29553Y49865D01*
Y32103D01*
X29174Y31850D01*
X28643Y31055D01*
X28457Y30118D01*
X28643Y29181D01*
X29174Y28387D01*
X29969Y27856D01*
X30906Y27670D01*
X31843Y27856D01*
X32637Y28387D01*
X33168Y29181D01*
X33354Y30118D01*
X33168Y31055D01*
X32637Y31850D01*
X32258Y32103D01*
Y48648D01*
X32630Y48722D01*
X33424Y49253D01*
X33955Y50047D01*
X34141Y50984D01*
X33955Y51921D01*
X33424Y52716D01*
X32630Y53246D01*
X31693Y53433D01*
D02*
G37*
G36*
X171693Y24449D02*
X155866D01*
Y8622D01*
X171693D01*
Y24449D01*
D02*
G37*
G36*
X94146Y16126D02*
X93614Y16056D01*
X92652Y15657D01*
X91826Y15024D01*
X91193Y14198D01*
X90795Y13237D01*
X90725Y12705D01*
X94146D01*
Y16126D01*
D02*
G37*
G36*
X95146D02*
Y12705D01*
X98567D01*
X98497Y13237D01*
X98098Y14198D01*
X97465Y15024D01*
X96639Y15657D01*
X95678Y16056D01*
X95146Y16126D01*
D02*
G37*
G36*
X160524Y82456D02*
X160249Y82420D01*
X159527Y82121D01*
X158906Y81645D01*
X158431Y81025D01*
X158132Y80303D01*
X158095Y80028D01*
X160524D01*
Y82456D01*
D02*
G37*
G36*
X84646Y138275D02*
X83709Y138089D01*
X82914Y137558D01*
X82383Y136764D01*
X82197Y135827D01*
X82383Y134890D01*
X82914Y134095D01*
X83293Y133842D01*
Y127529D01*
X81028Y125264D01*
X80528Y125471D01*
Y132571D01*
X72941D01*
Y124984D01*
X80041D01*
X80248Y124484D01*
X75618Y119854D01*
X75325Y119415D01*
X75222Y118898D01*
X75222Y118898D01*
Y117929D01*
X74843Y117676D01*
X74313Y116882D01*
X74126Y115945D01*
X74313Y115008D01*
X74843Y114213D01*
X75638Y113683D01*
X76575Y113496D01*
X77512Y113683D01*
X78306Y114213D01*
X78837Y115008D01*
X79023Y115945D01*
X78837Y116882D01*
X78306Y117676D01*
X78013Y117873D01*
X77980Y118390D01*
X85602Y126012D01*
X85602Y126012D01*
X85896Y126451D01*
X85998Y126969D01*
Y133842D01*
X86377Y134095D01*
X86908Y134890D01*
X87094Y135827D01*
X86908Y136764D01*
X86377Y137558D01*
X85583Y138089D01*
X84646Y138275D01*
D02*
G37*
G36*
X52272Y129508D02*
X49843D01*
X49880Y129233D01*
X50179Y128511D01*
X50655Y127891D01*
X51275Y127415D01*
X51997Y127116D01*
X52272Y127080D01*
Y129508D01*
D02*
G37*
G36*
X55700D02*
X53272D01*
Y127080D01*
X53547Y127116D01*
X54269Y127415D01*
X54889Y127891D01*
X55365Y128511D01*
X55664Y129233D01*
X55700Y129508D01*
D02*
G37*
G36*
X118110Y122518D02*
X116969Y122368D01*
X115906Y121927D01*
X114994Y121227D01*
X114293Y120314D01*
X113853Y119251D01*
X113702Y118110D01*
X113853Y116969D01*
X114293Y115906D01*
X114994Y114994D01*
X115906Y114293D01*
X116969Y113853D01*
X118110Y113702D01*
X119251Y113853D01*
X120314Y114293D01*
X121227Y114994D01*
X121927Y115906D01*
X122368Y116969D01*
X122518Y118110D01*
X122368Y119251D01*
X121927Y120314D01*
X121227Y121227D01*
X120314Y121927D01*
X119251Y122368D01*
X118110Y122518D01*
D02*
G37*
G36*
X71941Y132571D02*
X64354D01*
Y124984D01*
X71941D01*
Y132571D01*
D02*
G37*
G36*
X171866D02*
X164279D01*
Y124984D01*
X171866D01*
Y132571D01*
D02*
G37*
G36*
X71941Y141157D02*
X64354D01*
Y133571D01*
X71941D01*
Y141157D01*
D02*
G37*
G36*
X80528D02*
X72941D01*
Y133571D01*
X80528D01*
Y141157D01*
D02*
G37*
G36*
X8858Y146722D02*
X7693Y146607D01*
X6572Y146267D01*
X5539Y145715D01*
X4634Y144972D01*
X3891Y144067D01*
X3339Y143034D01*
X2999Y141913D01*
X2885Y140748D01*
X2999Y139583D01*
X3339Y138462D01*
X3891Y137429D01*
X4634Y136524D01*
X5539Y135781D01*
X6572Y135229D01*
X7693Y134889D01*
X8858Y134774D01*
X10024Y134889D01*
X11144Y135229D01*
X12177Y135781D01*
X13082Y136524D01*
X13825Y137429D01*
X14377Y138462D01*
X14717Y139583D01*
X14832Y140748D01*
X14717Y141913D01*
X14377Y143034D01*
X13825Y144067D01*
X13082Y144972D01*
X12177Y145715D01*
X11144Y146267D01*
X10024Y146607D01*
X8858Y146722D01*
D02*
G37*
G36*
X52272Y132936D02*
X51997Y132900D01*
X51275Y132601D01*
X50655Y132125D01*
X50179Y131505D01*
X49880Y130783D01*
X49843Y130508D01*
X52272D01*
Y132936D01*
D02*
G37*
G36*
X53272D02*
Y130508D01*
X55700D01*
X55664Y130783D01*
X55365Y131505D01*
X54889Y132125D01*
X54269Y132601D01*
X53547Y132900D01*
X53272Y132936D01*
D02*
G37*
G36*
X148819Y134338D02*
X147882Y134152D01*
X147088Y133621D01*
X146557Y132827D01*
X146370Y131890D01*
X146350Y131865D01*
X115764D01*
X115511Y132243D01*
X114717Y132774D01*
X113779Y132960D01*
X112843Y132774D01*
X112048Y132243D01*
X111517Y131449D01*
X111331Y130512D01*
X111517Y129575D01*
X112048Y128780D01*
X112843Y128250D01*
X113779Y128063D01*
X114717Y128250D01*
X115511Y128780D01*
X115764Y129159D01*
X147441D01*
X147441Y129159D01*
X147959Y129262D01*
X148363Y129532D01*
X148819Y129441D01*
X149756Y129628D01*
X150550Y130158D01*
X151081Y130953D01*
X151268Y131890D01*
X151081Y132827D01*
X150550Y133621D01*
X149756Y134152D01*
X148819Y134338D01*
D02*
G37*
G36*
X137598Y88275D02*
X136661Y88089D01*
X135867Y87558D01*
X135336Y86764D01*
X135150Y85827D01*
X135239Y85380D01*
X124240Y74382D01*
X123947Y73943D01*
X123844Y73425D01*
X123844Y73425D01*
Y26788D01*
X123465Y26535D01*
X122935Y25740D01*
X122748Y24803D01*
X122935Y23866D01*
X123465Y23072D01*
X124260Y22541D01*
X125197Y22354D01*
X126134Y22541D01*
X126928Y23072D01*
X127459Y23866D01*
X127646Y24803D01*
X127459Y25740D01*
X126928Y26535D01*
X126550Y26788D01*
Y72865D01*
X137152Y83467D01*
X137598Y83378D01*
X138535Y83565D01*
X139330Y84095D01*
X139861Y84890D01*
X140047Y85827D01*
X139861Y86764D01*
X139330Y87558D01*
X138535Y88089D01*
X137598Y88275D01*
D02*
G37*
G36*
X75681Y86196D02*
X75406Y86160D01*
X74684Y85861D01*
X74064Y85385D01*
X73588Y84765D01*
X73289Y84043D01*
X73253Y83768D01*
X75681D01*
Y86196D01*
D02*
G37*
G36*
X76681D02*
Y83768D01*
X79109D01*
X79073Y84043D01*
X78774Y84765D01*
X78298Y85385D01*
X77678Y85861D01*
X76956Y86160D01*
X76681Y86196D01*
D02*
G37*
G36*
X161524Y82456D02*
Y80028D01*
X163952D01*
X163916Y80303D01*
X163617Y81025D01*
X163141Y81645D01*
X162521Y82121D01*
X161799Y82420D01*
X161524Y82456D01*
D02*
G37*
G36*
X75681Y82768D02*
X73253D01*
X73289Y82493D01*
X73588Y81771D01*
X74064Y81151D01*
X74684Y80675D01*
X75406Y80376D01*
X75681Y80339D01*
Y82768D01*
D02*
G37*
G36*
X79109D02*
X76681D01*
Y80339D01*
X76956Y80376D01*
X77678Y80675D01*
X78298Y81151D01*
X78774Y81771D01*
X79073Y82493D01*
X79109Y82768D01*
D02*
G37*
G36*
X75287Y102338D02*
X75012Y102302D01*
X74290Y102002D01*
X73670Y101527D01*
X73194Y100907D01*
X72895Y100184D01*
X72859Y99910D01*
X75287D01*
Y102338D01*
D02*
G37*
G36*
X76287D02*
Y99910D01*
X78716D01*
X78680Y100184D01*
X78380Y100907D01*
X77905Y101527D01*
X77284Y102002D01*
X76562Y102302D01*
X76287Y102338D01*
D02*
G37*
G36*
X128150Y117803D02*
X127213Y117617D01*
X126418Y117086D01*
X125887Y116291D01*
X125701Y115354D01*
X125790Y114908D01*
X118532Y107650D01*
X118238Y107211D01*
X118135Y106693D01*
X118135Y106693D01*
Y47411D01*
X108295Y37571D01*
X108002Y37132D01*
X107899Y36614D01*
X107899Y36614D01*
Y17371D01*
X106186Y15658D01*
X105632Y15887D01*
X104646Y16017D01*
X103659Y15887D01*
X102740Y15506D01*
X101950Y14900D01*
X101344Y14111D01*
X100963Y13191D01*
X100833Y12205D01*
X100963Y11218D01*
X101344Y10299D01*
X101950Y9509D01*
X102740Y8903D01*
X103659Y8523D01*
X104646Y8393D01*
X105632Y8523D01*
X106552Y8903D01*
X107341Y9509D01*
X107947Y10299D01*
X108328Y11218D01*
X108458Y12205D01*
X108328Y13191D01*
X108099Y13745D01*
X110208Y15854D01*
X110208Y15855D01*
X110502Y16293D01*
X110605Y16811D01*
Y36054D01*
X120445Y45894D01*
X120445Y45894D01*
X120738Y46333D01*
X120841Y46850D01*
X120841Y46850D01*
Y106133D01*
X127703Y112995D01*
X128150Y112906D01*
X129087Y113092D01*
X129881Y113623D01*
X130412Y114417D01*
X130598Y115354D01*
X130412Y116291D01*
X129881Y117086D01*
X129087Y117617D01*
X128150Y117803D01*
D02*
G37*
G36*
X29134Y116031D02*
X28197Y115845D01*
X27402Y115314D01*
X26872Y114520D01*
X26685Y113583D01*
X26872Y112646D01*
X27402Y111851D01*
X27781Y111598D01*
Y92929D01*
X27402Y92676D01*
X26872Y91882D01*
X26685Y90945D01*
X26872Y90008D01*
X27402Y89213D01*
X28197Y88683D01*
X29134Y88496D01*
X30071Y88683D01*
X30865Y89213D01*
X31396Y90008D01*
X31582Y90945D01*
X31396Y91882D01*
X30865Y92676D01*
X30487Y92929D01*
Y111598D01*
X30865Y111851D01*
X31396Y112646D01*
X31582Y113583D01*
X31396Y114520D01*
X30865Y115314D01*
X30071Y115845D01*
X29134Y116031D01*
D02*
G37*
G36*
X75287Y98909D02*
X72859D01*
X72895Y98634D01*
X73194Y97912D01*
X73670Y97292D01*
X74290Y96816D01*
X75012Y96517D01*
X75287Y96481D01*
Y98909D01*
D02*
G37*
G36*
X78716D02*
X76287D01*
Y96481D01*
X76562Y96517D01*
X77284Y96816D01*
X77905Y97292D01*
X78380Y97912D01*
X78680Y98634D01*
X78716Y98909D01*
D02*
G37*
%LPD*%
D29*
X52756Y26378D02*
Y50000D01*
Y26378D02*
X61221Y17913D01*
X71063D01*
X72441Y16535D01*
X49213Y7087D02*
Y39567D01*
Y7087D02*
X53150Y3150D01*
X159843Y15945D02*
X163189D01*
X163779Y16535D01*
X29134Y90945D02*
Y113583D01*
X61024Y82480D02*
Y98425D01*
Y82480D02*
X61221Y82284D01*
X61024Y98425D02*
Y129134D01*
X60827Y129331D02*
X61024Y129134D01*
X113779Y130512D02*
X147441D01*
X148819Y131890D01*
X111024Y141339D02*
X111169Y141484D01*
X177020D02*
X180512Y137992D01*
Y132677D02*
Y137992D01*
X178347Y130512D02*
X180512Y132677D01*
X61811Y30709D02*
X62008Y30906D01*
Y52165D01*
X60236Y24803D02*
Y28180D01*
X58909Y29507D02*
X60236Y28180D01*
X45276Y68110D02*
Y81890D01*
X45669Y82284D01*
X175394Y58465D02*
Y79528D01*
X167126Y50197D02*
X175394Y58465D01*
X103740Y71653D02*
Y106299D01*
X104134Y106693D01*
X95965Y69390D02*
Y102854D01*
X95866Y102953D02*
X95965Y102854D01*
X233071Y40709D02*
Y76525D01*
X227953Y35591D02*
X233071Y40709D01*
X222835Y50709D02*
Y80118D01*
Y50709D02*
X227953Y45591D01*
X207087Y46457D02*
X227953Y25591D01*
X207087Y46457D02*
Y64531D01*
X207319Y64764D01*
X199213Y97244D02*
X209646Y86811D01*
Y78937D02*
Y86811D01*
X125197Y24803D02*
Y73425D01*
X137598Y85827D01*
X119488Y106693D02*
X128150Y115354D01*
X119488Y46850D02*
Y106693D01*
X109252Y36614D02*
X119488Y46850D01*
X109252Y16811D02*
Y36614D01*
X104646Y12205D02*
X109252Y16811D01*
X200591Y25787D02*
X201181Y26378D01*
Y42520D01*
X195079Y64764D02*
X195276Y64567D01*
Y49016D02*
Y64567D01*
Y35039D02*
Y49016D01*
X195079Y34843D02*
X195276Y35039D01*
X200394Y58268D02*
Y77559D01*
Y58268D02*
X202559Y56102D01*
X204083Y38240D02*
X206693Y35630D01*
X204083Y38240D02*
Y45245D01*
X202559Y46769D02*
X204083Y45245D01*
X202559Y46769D02*
Y56102D01*
X42374Y120917D02*
X45472Y124015D01*
X45669D01*
X153937Y106693D02*
Y141484D01*
X111169D02*
X153937D01*
X177020D01*
X153937Y106693D02*
X181693Y78937D01*
X42374Y66908D02*
Y120917D01*
X58909Y29507D02*
Y48571D01*
X44291Y18898D02*
Y64991D01*
X42374Y66908D02*
X44291Y64991D01*
X45276Y66590D02*
Y68110D01*
Y66590D02*
X46118Y65748D01*
Y61362D02*
Y65748D01*
Y61362D02*
X58909Y48571D01*
X55512Y57284D02*
Y76575D01*
X61221Y82284D01*
X30906Y30118D02*
Y50197D01*
X31693Y50984D01*
X150394Y51378D02*
Y112402D01*
X150197Y112598D02*
X150394Y112402D01*
X162205Y116732D02*
X212992D01*
X161024Y117913D02*
X162205Y116732D01*
X160433Y117913D02*
X161024D01*
X150197Y112598D02*
Y114567D01*
X149803Y114961D02*
X150197Y114567D01*
X158071Y107874D02*
X158217Y108020D01*
X110236Y71457D02*
X110433Y71653D01*
Y113779D01*
X76575Y115945D02*
Y118898D01*
X84646Y126969D01*
Y135827D01*
X220669Y41535D02*
Y59252D01*
X215158Y64764D02*
X220669Y59252D01*
X166732Y110236D02*
X206890D01*
X161614Y105118D02*
X166732Y110236D01*
X158217Y108020D02*
X161932D01*
X165976Y112063D01*
X202417D01*
X204134Y113779D01*
X179134Y107283D02*
X202312D01*
X233071Y76525D01*
X201378Y101575D02*
X222835Y80118D01*
X178937Y101575D02*
X201378D01*
X194882Y69064D02*
Y97441D01*
Y69064D02*
X198177Y65769D01*
Y45524D02*
Y65769D01*
Y45524D02*
X201181Y42520D01*
X190748Y69095D02*
Y97835D01*
Y69095D02*
X195079Y64764D01*
D30*
X227362Y140748D02*
D03*
X8858D02*
D03*
Y8858D02*
D03*
X227362D02*
D03*
D31*
X227953Y25591D02*
D03*
D32*
Y35591D02*
D03*
Y45591D02*
D03*
Y55590D02*
D03*
Y65591D02*
D03*
Y75590D02*
D03*
X94646Y12205D02*
D03*
X104646D02*
D03*
X114646D02*
D03*
D33*
X84646D02*
D03*
D34*
X118110Y118110D02*
D03*
Y31496D02*
D03*
D35*
X8858Y47638D02*
D03*
Y35827D02*
D03*
X52756Y50000D02*
D03*
X49213Y39567D02*
D03*
X53150Y3150D02*
D03*
X159843Y15945D02*
D03*
X29134Y113583D02*
D03*
Y90945D02*
D03*
X61024Y98425D02*
D03*
X61221Y82284D02*
D03*
X60827Y129331D02*
D03*
X113779Y130512D02*
D03*
X148819Y131890D02*
D03*
X111024Y141339D02*
D03*
X178347Y130512D02*
D03*
X61811Y30709D02*
D03*
X62008Y52165D02*
D03*
X60236Y24803D02*
D03*
X45276Y68110D02*
D03*
X45669Y82284D02*
D03*
X175394Y79528D02*
D03*
X167126Y50197D02*
D03*
X110236Y71457D02*
D03*
X103740Y71653D02*
D03*
X104134Y106693D02*
D03*
X204134Y113779D02*
D03*
X95965Y69390D02*
D03*
X95866Y102953D02*
D03*
X206890Y110236D02*
D03*
X207319Y64764D02*
D03*
X199213Y97244D02*
D03*
X209646Y78937D02*
D03*
X125197Y24803D02*
D03*
X137598Y85827D02*
D03*
X212992Y116732D02*
D03*
X128150Y115354D02*
D03*
X200591Y25787D02*
D03*
X201181Y42520D02*
D03*
X195079Y64764D02*
D03*
X195276Y49016D02*
D03*
X195079Y34843D02*
D03*
X200394Y77559D02*
D03*
X202559Y56102D02*
D03*
X206693Y35630D02*
D03*
X44291Y18898D02*
D03*
X45669Y124015D02*
D03*
X181693Y78937D02*
D03*
X161614Y99213D02*
D03*
X55512Y57284D02*
D03*
X30906Y30118D02*
D03*
X31693Y50984D02*
D03*
X150394Y51378D02*
D03*
X160433Y117913D02*
D03*
X149803Y114961D02*
D03*
X161614Y105118D02*
D03*
X158071Y107874D02*
D03*
X110433Y113779D02*
D03*
X76575Y115945D02*
D03*
X84646Y135827D02*
D03*
X220669Y41535D02*
D03*
X215158Y64764D02*
D03*
X179134Y107283D02*
D03*
X178937Y101575D02*
D03*
X194882Y97441D02*
D03*
X190748Y97835D02*
D03*
D36*
X161024Y79528D02*
D03*
Y63779D02*
D03*
X75787Y99410D02*
D03*
X76181Y83268D02*
D03*
X52772Y130008D02*
D03*
D37*
X163779Y133071D02*
D03*
Y16535D02*
D03*
X72441Y133071D02*
D03*
Y16535D02*
D03*
M02*
