G04 Layer_Color=65535*
%FSLAX25Y25*%
%MOIN*%
G70*
G01*
G75*
%ADD29C,0.01000*%
%ADD38C,0.00984*%
%ADD39C,0.00787*%
%ADD40C,0.00394*%
%ADD41C,0.01181*%
%ADD42C,0.00800*%
%ADD43C,0.00044*%
%ADD44C,0.00669*%
G36*
X20448Y59250D02*
X20532Y59241D01*
X20633Y59224D01*
X20742Y59208D01*
X20859Y59183D01*
X20985Y59149D01*
X21119Y59107D01*
X21244Y59057D01*
X21378Y58998D01*
X21512Y58923D01*
X21638Y58839D01*
X21764Y58747D01*
X21873Y58638D01*
X21881Y58630D01*
X21898Y58613D01*
X21923Y58571D01*
X21965Y58521D01*
X22007Y58462D01*
X22057Y58386D01*
X22116Y58294D01*
X22166Y58194D01*
X22225Y58076D01*
X22275Y57951D01*
X22325Y57808D01*
X22367Y57657D01*
X22409Y57498D01*
X22434Y57322D01*
X22451Y57138D01*
X22459Y56937D01*
Y56928D01*
Y56887D01*
Y56836D01*
X22451Y56761D01*
X22443Y56669D01*
X22426Y56568D01*
X22409Y56451D01*
X22384Y56325D01*
X22359Y56199D01*
X22317Y56057D01*
X22275Y55914D01*
X22216Y55780D01*
X22149Y55638D01*
X22074Y55504D01*
X21982Y55370D01*
X21881Y55252D01*
X21873Y55244D01*
X21856Y55227D01*
X21823Y55194D01*
X21772Y55152D01*
X21714Y55110D01*
X21647Y55060D01*
X21563Y55001D01*
X21462Y54942D01*
X21353Y54884D01*
X21236Y54825D01*
X21102Y54775D01*
X20959Y54733D01*
X20809Y54691D01*
X20641Y54657D01*
X20465Y54641D01*
X20281Y54632D01*
X20239D01*
X20180Y54641D01*
X20113D01*
X20029Y54649D01*
X19929Y54666D01*
X19820Y54682D01*
X19702Y54708D01*
X19577Y54741D01*
X19443Y54783D01*
X19317Y54833D01*
X19183Y54892D01*
X19049Y54959D01*
X18923Y55043D01*
X18806Y55135D01*
X18688Y55244D01*
X18680Y55252D01*
X18663Y55269D01*
X18638Y55311D01*
X18596Y55361D01*
X18554Y55420D01*
X18504Y55495D01*
X18454Y55588D01*
X18404Y55688D01*
X18345Y55805D01*
X18295Y55931D01*
X18244Y56065D01*
X18202Y56216D01*
X18160Y56384D01*
X18135Y56560D01*
X18119Y56744D01*
X18110Y56937D01*
Y56945D01*
Y56987D01*
Y57037D01*
X18119Y57113D01*
X18127Y57205D01*
X18144Y57314D01*
X18160Y57431D01*
X18186Y57557D01*
X18253Y57825D01*
X18295Y57968D01*
X18353Y58110D01*
X18420Y58252D01*
X18496Y58386D01*
X18579Y58521D01*
X18680Y58638D01*
X18688Y58646D01*
X18705Y58663D01*
X18739Y58697D01*
X18789Y58738D01*
X18848Y58780D01*
X18915Y58831D01*
X18999Y58889D01*
X19099Y58948D01*
X19208Y59007D01*
X19325Y59065D01*
X19459Y59115D01*
X19602Y59157D01*
X19753Y59199D01*
X19920Y59233D01*
X20096Y59250D01*
X20281Y59258D01*
X20381D01*
X20448Y59250D01*
D02*
G37*
G36*
X27060Y54724D02*
X26122D01*
X24136Y57976D01*
Y54724D01*
X23230D01*
Y59166D01*
X24412D01*
X26155Y56292D01*
Y59166D01*
X27060D01*
Y54724D01*
D02*
G37*
G36*
X131102Y19648D02*
X131110D01*
X131144Y19657D01*
X131194Y19665D01*
X131261Y19673D01*
X131345Y19698D01*
X131429Y19724D01*
X131521Y19765D01*
X131621Y19816D01*
X131722Y19883D01*
X131814Y19958D01*
X131898Y20050D01*
X131982Y20168D01*
X132049Y20293D01*
X132099Y20444D01*
X132132Y20620D01*
X132141Y20813D01*
Y20821D01*
Y20838D01*
Y20872D01*
X132132Y20913D01*
X132124Y20964D01*
X132116Y21031D01*
X132107Y21098D01*
X132091Y21173D01*
X132040Y21349D01*
X131965Y21550D01*
X131915Y21651D01*
X131856Y21760D01*
X131797Y21869D01*
X131722Y21978D01*
Y22011D01*
X132510D01*
Y22003D01*
X132518Y21978D01*
X132535Y21944D01*
X132552Y21894D01*
X132568Y21835D01*
X132593Y21760D01*
X132618Y21676D01*
X132635Y21584D01*
X132685Y21383D01*
X132727Y21165D01*
X132761Y20939D01*
X132769Y20704D01*
Y20696D01*
Y20662D01*
Y20612D01*
X132761Y20545D01*
X132753Y20469D01*
X132744Y20377D01*
X132727Y20277D01*
X132711Y20168D01*
X132660Y19925D01*
X132577Y19690D01*
X132526Y19564D01*
X132468Y19455D01*
X132392Y19346D01*
X132317Y19246D01*
X132308Y19238D01*
X132292Y19221D01*
X132267Y19196D01*
X132233Y19170D01*
X132183Y19128D01*
X132124Y19087D01*
X132057Y19045D01*
X131982Y18994D01*
X131889Y18944D01*
X131789Y18902D01*
X131688Y18860D01*
X131571Y18819D01*
X131437Y18793D01*
X131303Y18768D01*
X131160Y18751D01*
X131001Y18743D01*
X130917D01*
X130859Y18751D01*
X130792Y18760D01*
X130708Y18768D01*
X130616Y18785D01*
X130515Y18802D01*
X130297Y18860D01*
X130071Y18944D01*
X129962Y18994D01*
X129853Y19061D01*
X129744Y19128D01*
X129652Y19212D01*
X129644Y19221D01*
X129627Y19238D01*
X129610Y19263D01*
X129577Y19305D01*
X129535Y19346D01*
X129493Y19405D01*
X129451Y19480D01*
X129401Y19556D01*
X129359Y19648D01*
X129317Y19740D01*
X129275Y19849D01*
X129233Y19966D01*
X129200Y20092D01*
X129183Y20235D01*
X129166Y20377D01*
X129158Y20528D01*
Y20536D01*
Y20545D01*
Y20595D01*
X129166Y20670D01*
X129183Y20771D01*
X129208Y20888D01*
X129241Y21014D01*
X129292Y21157D01*
X129359Y21299D01*
X129451Y21441D01*
X129560Y21584D01*
X129685Y21710D01*
X129845Y21827D01*
X130037Y21927D01*
X130138Y21969D01*
X130255Y22003D01*
X130373Y22028D01*
X130507Y22053D01*
X130641Y22070D01*
X131102D01*
Y19648D01*
D02*
G37*
G36*
X132660Y24735D02*
X132677Y24685D01*
X132685Y24617D01*
X132702Y24517D01*
X132719Y24399D01*
X132727Y24265D01*
X132744Y24123D01*
Y23972D01*
Y23964D01*
Y23947D01*
Y23913D01*
X132736Y23872D01*
Y23821D01*
X132727Y23763D01*
X132711Y23629D01*
X132677Y23486D01*
X132635Y23335D01*
X132568Y23193D01*
X132484Y23076D01*
X132476Y23067D01*
X132434Y23034D01*
X132376Y22992D01*
X132283Y22941D01*
X132166Y22883D01*
X132024Y22841D01*
X131848Y22807D01*
X131646Y22799D01*
X129861D01*
Y22355D01*
X129267D01*
Y22799D01*
X128311D01*
Y23704D01*
X129267D01*
Y24751D01*
X129861D01*
Y23704D01*
X131361D01*
X131462Y23712D01*
X131571Y23721D01*
X131688Y23738D01*
X131806Y23763D01*
X131915Y23796D01*
X131957Y23813D01*
X131990Y23838D01*
X131998Y23846D01*
X132015Y23863D01*
X132040Y23897D01*
X132065Y23947D01*
X132099Y24014D01*
X132124Y24098D01*
X132141Y24190D01*
X132149Y24307D01*
Y24316D01*
Y24341D01*
X132141Y24383D01*
X132132Y24441D01*
X132124Y24500D01*
X132107Y24567D01*
X132082Y24643D01*
X132049Y24718D01*
Y24751D01*
X132660D01*
Y24735D01*
D02*
G37*
G36*
X182360Y138551D02*
X182461Y138534D01*
X182578Y138509D01*
X182704Y138475D01*
X182846Y138425D01*
X182989Y138358D01*
X183131Y138266D01*
X183273Y138157D01*
X183399Y138031D01*
X183517Y137872D01*
X183617Y137679D01*
X183659Y137578D01*
X183693Y137461D01*
X183718Y137344D01*
X183743Y137210D01*
X183759Y137076D01*
Y136925D01*
Y136615D01*
X181338D01*
Y136606D01*
X181346Y136573D01*
X181354Y136523D01*
X181363Y136456D01*
X181388Y136372D01*
X181413Y136288D01*
X181455Y136196D01*
X181505Y136095D01*
X181572Y135995D01*
X181648Y135903D01*
X181740Y135819D01*
X181857Y135735D01*
X181983Y135668D01*
X182134Y135618D01*
X182310Y135584D01*
X182502Y135576D01*
X182561D01*
X182603Y135584D01*
X182653Y135592D01*
X182720Y135601D01*
X182787Y135609D01*
X182863Y135626D01*
X183039Y135676D01*
X183240Y135752D01*
X183341Y135802D01*
X183449Y135861D01*
X183558Y135919D01*
X183667Y135995D01*
X183701D01*
Y135207D01*
X183693D01*
X183667Y135199D01*
X183634Y135182D01*
X183583Y135165D01*
X183525Y135148D01*
X183449Y135123D01*
X183366Y135098D01*
X183273Y135081D01*
X183072Y135031D01*
X182854Y134989D01*
X182628Y134956D01*
X182394Y134947D01*
X182301D01*
X182234Y134956D01*
X182159Y134964D01*
X182067Y134972D01*
X181966Y134989D01*
X181857Y135006D01*
X181614Y135056D01*
X181380Y135140D01*
X181254Y135190D01*
X181145Y135249D01*
X181036Y135324D01*
X180936Y135400D01*
X180927Y135408D01*
X180910Y135425D01*
X180885Y135450D01*
X180860Y135484D01*
X180818Y135534D01*
X180776Y135592D01*
X180734Y135660D01*
X180684Y135735D01*
X180634Y135827D01*
X180592Y135928D01*
X180550Y136028D01*
X180508Y136145D01*
X180483Y136280D01*
X180458Y136414D01*
X180441Y136556D01*
X180433Y136715D01*
Y136724D01*
Y136757D01*
Y136799D01*
X180441Y136858D01*
X180449Y136925D01*
X180458Y137009D01*
X180475Y137101D01*
X180491Y137201D01*
X180550Y137419D01*
X180634Y137646D01*
X180684Y137754D01*
X180751Y137863D01*
X180818Y137972D01*
X180902Y138065D01*
X180910Y138073D01*
X180927Y138090D01*
X180952Y138106D01*
X180994Y138140D01*
X181036Y138182D01*
X181095Y138224D01*
X181170Y138266D01*
X181246Y138316D01*
X181338Y138358D01*
X181430Y138400D01*
X181539Y138442D01*
X181656Y138484D01*
X181782Y138517D01*
X181924Y138534D01*
X182067Y138551D01*
X182218Y138559D01*
X182285D01*
X182360Y138551D01*
D02*
G37*
G36*
X160505Y139472D02*
X160597Y139464D01*
X160698Y139456D01*
X160807Y139447D01*
X161041Y139414D01*
X161268Y139372D01*
X161377Y139338D01*
X161477Y139305D01*
X161561Y139263D01*
X161636Y139213D01*
X161645D01*
X161653Y139204D01*
X161695Y139162D01*
X161754Y139104D01*
X161821Y139020D01*
X161888Y138911D01*
X161946Y138785D01*
X161988Y138634D01*
X162005Y138551D01*
Y138458D01*
Y138450D01*
Y138433D01*
Y138400D01*
X161997Y138349D01*
X161988Y138299D01*
X161971Y138241D01*
X161930Y138098D01*
X161896Y138023D01*
X161846Y137947D01*
X161795Y137872D01*
X161737Y137788D01*
X161662Y137713D01*
X161578Y137646D01*
X161477Y137578D01*
X161368Y137520D01*
Y137495D01*
X161377D01*
X161410Y137486D01*
X161460Y137470D01*
X161519Y137453D01*
X161586Y137419D01*
X161670Y137386D01*
X161754Y137336D01*
X161846Y137285D01*
X161938Y137218D01*
X162022Y137143D01*
X162106Y137051D01*
X162173Y136950D01*
X162240Y136833D01*
X162282Y136699D01*
X162315Y136556D01*
X162323Y136397D01*
Y136389D01*
Y136372D01*
Y136338D01*
X162315Y136296D01*
X162307Y136238D01*
X162298Y136179D01*
X162265Y136037D01*
X162206Y135877D01*
X162173Y135794D01*
X162122Y135710D01*
X162064Y135626D01*
X162005Y135550D01*
X161930Y135475D01*
X161846Y135400D01*
X161837D01*
X161821Y135383D01*
X161795Y135366D01*
X161762Y135341D01*
X161712Y135316D01*
X161653Y135282D01*
X161578Y135257D01*
X161502Y135224D01*
X161410Y135190D01*
X161310Y135157D01*
X161201Y135123D01*
X161075Y135098D01*
X160941Y135073D01*
X160798Y135056D01*
X160647Y135048D01*
X160488Y135039D01*
X158661D01*
Y139481D01*
X160421D01*
X160505Y139472D01*
D02*
G37*
G36*
X198659Y138534D02*
X198701D01*
X198760Y138525D01*
X198885Y138500D01*
X199028Y138467D01*
X199187Y138408D01*
X199363Y138333D01*
X199539Y138232D01*
X199598Y138450D01*
X200452D01*
Y135425D01*
Y135416D01*
Y135391D01*
Y135341D01*
X200444Y135291D01*
X200436Y135215D01*
X200427Y135140D01*
X200419Y135048D01*
X200402Y134956D01*
X200352Y134754D01*
X200276Y134545D01*
X200226Y134453D01*
X200168Y134352D01*
X200100Y134268D01*
X200025Y134185D01*
X200017Y134176D01*
X200008Y134168D01*
X199983Y134151D01*
X199941Y134118D01*
X199899Y134092D01*
X199841Y134059D01*
X199774Y134017D01*
X199698Y133984D01*
X199606Y133942D01*
X199514Y133908D01*
X199397Y133866D01*
X199279Y133841D01*
X199145Y133816D01*
X198994Y133791D01*
X198835Y133782D01*
X198668Y133774D01*
X198567D01*
X198508Y133782D01*
X198374D01*
X198290Y133791D01*
X198115Y133808D01*
X197913Y133833D01*
X197696Y133866D01*
X197478Y133908D01*
Y134645D01*
X197528D01*
X197545Y134637D01*
X197578Y134629D01*
X197620Y134612D01*
X197670Y134595D01*
X197729Y134579D01*
X197863Y134545D01*
X198022Y134503D01*
X198198Y134469D01*
X198366Y134444D01*
X198533Y134436D01*
X198617D01*
X198709Y134444D01*
X198827Y134461D01*
X198952Y134486D01*
X199078Y134520D01*
X199204Y134562D01*
X199304Y134629D01*
X199313Y134637D01*
X199346Y134662D01*
X199380Y134713D01*
X199430Y134788D01*
X199472Y134889D01*
X199514Y135014D01*
X199539Y135165D01*
X199547Y135349D01*
Y135542D01*
X199539Y135534D01*
X199522Y135525D01*
X199497Y135500D01*
X199455Y135475D01*
X199413Y135442D01*
X199355Y135400D01*
X199221Y135316D01*
X199070Y135232D01*
X198894Y135157D01*
X198709Y135106D01*
X198617Y135098D01*
X198525Y135090D01*
X198466D01*
X198399Y135098D01*
X198307Y135115D01*
X198198Y135140D01*
X198081Y135182D01*
X197955Y135232D01*
X197829Y135308D01*
X197696Y135400D01*
X197570Y135517D01*
X197452Y135651D01*
X197344Y135819D01*
X197251Y136020D01*
X197218Y136129D01*
X197184Y136255D01*
X197159Y136380D01*
X197142Y136523D01*
X197134Y136665D01*
X197126Y136824D01*
Y136833D01*
Y136858D01*
Y136900D01*
X197134Y136950D01*
Y137017D01*
X197151Y137092D01*
X197159Y137176D01*
X197176Y137268D01*
X197226Y137470D01*
X197293Y137671D01*
X197394Y137880D01*
X197461Y137972D01*
X197528Y138065D01*
X197536Y138073D01*
X197545Y138081D01*
X197570Y138106D01*
X197603Y138140D01*
X197645Y138173D01*
X197696Y138215D01*
X197813Y138308D01*
X197964Y138391D01*
X198140Y138467D01*
X198240Y138500D01*
X198349Y138525D01*
X198458Y138534D01*
X198575Y138542D01*
X198626D01*
X198659Y138534D01*
D02*
G37*
G36*
X195081Y138551D02*
X195148Y138542D01*
X195232Y138534D01*
X195316Y138517D01*
X195416Y138500D01*
X195617Y138442D01*
X195726Y138400D01*
X195835Y138358D01*
X195936Y138299D01*
X196045Y138232D01*
X196137Y138157D01*
X196229Y138073D01*
X196237Y138065D01*
X196246Y138048D01*
X196271Y138023D01*
X196304Y137989D01*
X196338Y137939D01*
X196380Y137880D01*
X196422Y137805D01*
X196464Y137729D01*
X196505Y137637D01*
X196547Y137537D01*
X196589Y137428D01*
X196623Y137310D01*
X196656Y137185D01*
X196681Y137042D01*
X196690Y136900D01*
X196698Y136741D01*
Y136732D01*
Y136707D01*
Y136657D01*
X196690Y136598D01*
X196681Y136531D01*
X196673Y136447D01*
X196656Y136355D01*
X196640Y136255D01*
X196581Y136037D01*
X196497Y135819D01*
X196447Y135710D01*
X196388Y135601D01*
X196313Y135500D01*
X196229Y135408D01*
X196221Y135400D01*
X196204Y135391D01*
X196179Y135366D01*
X196145Y135333D01*
X196095Y135299D01*
X196036Y135257D01*
X195969Y135215D01*
X195894Y135173D01*
X195810Y135123D01*
X195718Y135081D01*
X195609Y135039D01*
X195492Y135006D01*
X195374Y134972D01*
X195240Y134947D01*
X195098Y134939D01*
X194947Y134930D01*
X194863D01*
X194813Y134939D01*
X194737Y134947D01*
X194653Y134956D01*
X194570Y134972D01*
X194469Y134989D01*
X194260Y135048D01*
X194151Y135090D01*
X194042Y135132D01*
X193941Y135190D01*
X193832Y135249D01*
X193740Y135324D01*
X193648Y135408D01*
X193640Y135416D01*
X193631Y135433D01*
X193606Y135458D01*
X193581Y135500D01*
X193547Y135542D01*
X193506Y135601D01*
X193464Y135676D01*
X193422Y135752D01*
X193380Y135844D01*
X193338Y135944D01*
X193304Y136053D01*
X193262Y136171D01*
X193237Y136296D01*
X193212Y136439D01*
X193204Y136581D01*
X193195Y136741D01*
Y136749D01*
Y136782D01*
Y136824D01*
X193204Y136883D01*
X193212Y136950D01*
X193220Y137034D01*
X193237Y137126D01*
X193254Y137226D01*
X193304Y137444D01*
X193388Y137662D01*
X193447Y137771D01*
X193506Y137880D01*
X193572Y137981D01*
X193656Y138073D01*
X193665Y138081D01*
X193681Y138098D01*
X193707Y138115D01*
X193740Y138148D01*
X193790Y138182D01*
X193849Y138224D01*
X193916Y138274D01*
X193991Y138316D01*
X194075Y138358D01*
X194176Y138408D01*
X194276Y138450D01*
X194394Y138484D01*
X194519Y138517D01*
X194653Y138542D01*
X194796Y138551D01*
X194947Y138559D01*
X195022D01*
X195081Y138551D01*
D02*
G37*
G36*
X131713Y18366D02*
X131814Y18349D01*
X131931Y18316D01*
X132057Y18265D01*
X132200Y18190D01*
X132267Y18140D01*
X132334Y18081D01*
X132401Y18006D01*
X132459Y17930D01*
Y17922D01*
X132476Y17913D01*
X132484Y17888D01*
X132510Y17855D01*
X132535Y17805D01*
X132560Y17754D01*
X132585Y17687D01*
X132610Y17620D01*
X132644Y17536D01*
X132669Y17452D01*
X132694Y17352D01*
X132719Y17243D01*
X132753Y17008D01*
X132769Y16740D01*
Y16732D01*
Y16707D01*
Y16665D01*
X132761Y16614D01*
Y16556D01*
X132753Y16480D01*
X132744Y16397D01*
X132736Y16304D01*
X132711Y16103D01*
X132660Y15886D01*
X132602Y15668D01*
X132518Y15450D01*
X131680D01*
Y15483D01*
X131688Y15492D01*
X131705Y15508D01*
X131722Y15542D01*
X131755Y15592D01*
X131797Y15642D01*
X131839Y15710D01*
X131881Y15785D01*
X131923Y15869D01*
X132015Y16061D01*
X132099Y16279D01*
X132132Y16397D01*
X132149Y16514D01*
X132166Y16640D01*
X132174Y16765D01*
Y16774D01*
Y16799D01*
Y16832D01*
X132166Y16874D01*
X132158Y16983D01*
X132124Y17109D01*
X132082Y17235D01*
X132015Y17344D01*
X131973Y17386D01*
X131923Y17427D01*
X131873Y17444D01*
X131806Y17452D01*
X131781D01*
X131755Y17444D01*
X131722Y17436D01*
X131646Y17411D01*
X131613Y17377D01*
X131579Y17344D01*
Y17335D01*
X131563Y17318D01*
X131546Y17293D01*
X131529Y17251D01*
X131504Y17201D01*
X131487Y17134D01*
X131462Y17050D01*
X131437Y16958D01*
Y16950D01*
X131429Y16925D01*
X131420Y16883D01*
X131412Y16816D01*
X131395Y16740D01*
X131378Y16648D01*
X131353Y16539D01*
X131328Y16413D01*
Y16397D01*
X131311Y16355D01*
X131295Y16288D01*
X131269Y16212D01*
X131236Y16120D01*
X131194Y16028D01*
X131152Y15944D01*
X131102Y15860D01*
X131093Y15852D01*
X131077Y15827D01*
X131043Y15793D01*
X131001Y15751D01*
X130951Y15701D01*
X130892Y15651D01*
X130834Y15600D01*
X130758Y15559D01*
X130750D01*
X130725Y15542D01*
X130683Y15533D01*
X130624Y15517D01*
X130557Y15500D01*
X130482Y15483D01*
X130389Y15475D01*
X130297Y15466D01*
X130247D01*
X130213Y15475D01*
X130121Y15492D01*
X130012Y15517D01*
X129887Y15567D01*
X129753Y15651D01*
X129685Y15693D01*
X129619Y15751D01*
X129551Y15818D01*
X129493Y15894D01*
Y15902D01*
X129476Y15911D01*
X129459Y15936D01*
X129443Y15978D01*
X129417Y16019D01*
X129392Y16070D01*
X129367Y16128D01*
X129333Y16204D01*
X129300Y16279D01*
X129275Y16372D01*
X129225Y16573D01*
X129191Y16799D01*
X129174Y17059D01*
Y17067D01*
Y17084D01*
Y17126D01*
Y17168D01*
X129183Y17226D01*
Y17293D01*
X129200Y17444D01*
X129233Y17628D01*
X129267Y17821D01*
X129325Y18022D01*
X129401Y18224D01*
X130188D01*
Y18198D01*
X130180Y18190D01*
X130172Y18173D01*
X130146Y18140D01*
X130121Y18098D01*
X130088Y18047D01*
X130054Y17980D01*
X129979Y17830D01*
X129903Y17654D01*
X129836Y17461D01*
X129786Y17260D01*
X129778Y17151D01*
X129769Y17050D01*
Y17042D01*
Y17000D01*
X129778Y16950D01*
X129786Y16883D01*
X129795Y16807D01*
X129811Y16732D01*
X129845Y16648D01*
X129878Y16573D01*
X129887Y16564D01*
X129895Y16547D01*
X129920Y16514D01*
X129954Y16480D01*
X129987Y16447D01*
X130037Y16413D01*
X130088Y16397D01*
X130146Y16388D01*
X130180D01*
X130205Y16397D01*
X130247Y16405D01*
X130339Y16439D01*
X130381Y16464D01*
X130415Y16506D01*
Y16514D01*
X130423Y16531D01*
X130440Y16556D01*
X130456Y16598D01*
X130482Y16656D01*
X130507Y16723D01*
X130532Y16807D01*
X130557Y16899D01*
Y16908D01*
Y16916D01*
X130565Y16958D01*
X130582Y17033D01*
X130599Y17126D01*
X130624Y17235D01*
X130649Y17352D01*
X130716Y17612D01*
Y17628D01*
X130733Y17670D01*
X130758Y17737D01*
X130783Y17813D01*
X130834Y17905D01*
X130884Y17997D01*
X130951Y18081D01*
X131035Y18165D01*
X131043Y18173D01*
X131077Y18198D01*
X131127Y18232D01*
X131194Y18274D01*
X131278Y18307D01*
X131378Y18341D01*
X131496Y18366D01*
X131630Y18374D01*
X131680D01*
X131713Y18366D01*
D02*
G37*
G36*
X177362Y18404D02*
Y17549D01*
X173951Y16158D01*
Y17138D01*
X176315Y18010D01*
X173951Y18865D01*
Y19803D01*
X177362Y18404D01*
D02*
G37*
G36*
X175787Y20934D02*
X175795D01*
X175829Y20943D01*
X175879Y20951D01*
X175946Y20959D01*
X176030Y20985D01*
X176114Y21010D01*
X176206Y21052D01*
X176306Y21102D01*
X176407Y21169D01*
X176499Y21244D01*
X176583Y21337D01*
X176667Y21454D01*
X176734Y21580D01*
X176784Y21730D01*
X176818Y21906D01*
X176826Y22099D01*
Y22107D01*
Y22124D01*
Y22158D01*
X176818Y22200D01*
X176809Y22250D01*
X176801Y22317D01*
X176792Y22384D01*
X176776Y22459D01*
X176725Y22636D01*
X176650Y22837D01*
X176600Y22937D01*
X176541Y23046D01*
X176482Y23155D01*
X176407Y23264D01*
Y23298D01*
X177195D01*
Y23289D01*
X177203Y23264D01*
X177220Y23230D01*
X177236Y23180D01*
X177253Y23122D01*
X177278Y23046D01*
X177304Y22962D01*
X177320Y22870D01*
X177371Y22669D01*
X177412Y22451D01*
X177446Y22225D01*
X177454Y21990D01*
Y21982D01*
Y21948D01*
Y21898D01*
X177446Y21831D01*
X177438Y21756D01*
X177429Y21663D01*
X177412Y21563D01*
X177396Y21454D01*
X177345Y21211D01*
X177262Y20976D01*
X177211Y20851D01*
X177153Y20742D01*
X177077Y20633D01*
X177002Y20532D01*
X176994Y20524D01*
X176977Y20507D01*
X176952Y20482D01*
X176918Y20457D01*
X176868Y20415D01*
X176809Y20373D01*
X176742Y20331D01*
X176667Y20281D01*
X176575Y20230D01*
X176474Y20188D01*
X176373Y20147D01*
X176256Y20105D01*
X176122Y20080D01*
X175988Y20054D01*
X175845Y20038D01*
X175686Y20029D01*
X175602D01*
X175544Y20038D01*
X175477Y20046D01*
X175393Y20054D01*
X175301Y20071D01*
X175200Y20088D01*
X174982Y20147D01*
X174756Y20230D01*
X174647Y20281D01*
X174538Y20348D01*
X174429Y20415D01*
X174337Y20499D01*
X174329Y20507D01*
X174312Y20524D01*
X174295Y20549D01*
X174262Y20591D01*
X174220Y20633D01*
X174178Y20691D01*
X174136Y20767D01*
X174086Y20842D01*
X174044Y20934D01*
X174002Y21026D01*
X173960Y21136D01*
X173918Y21253D01*
X173884Y21378D01*
X173868Y21521D01*
X173851Y21663D01*
X173843Y21814D01*
Y21823D01*
Y21831D01*
Y21881D01*
X173851Y21957D01*
X173868Y22057D01*
X173893Y22175D01*
X173926Y22300D01*
X173977Y22443D01*
X174044Y22585D01*
X174136Y22728D01*
X174245Y22870D01*
X174371Y22996D01*
X174530Y23113D01*
X174723Y23214D01*
X174823Y23256D01*
X174940Y23289D01*
X175058Y23314D01*
X175192Y23339D01*
X175326Y23356D01*
X175787D01*
Y20934D01*
D02*
G37*
G36*
X177362Y11079D02*
X176407Y10744D01*
Y8993D01*
X177362Y8658D01*
Y7677D01*
X172921Y9353D01*
Y10426D01*
X177362Y12110D01*
Y11079D01*
D02*
G37*
G36*
Y14767D02*
X176918D01*
Y14758D01*
X176935Y14750D01*
X176952Y14725D01*
X176977Y14691D01*
X177035Y14616D01*
X177111Y14515D01*
X177186Y14406D01*
X177253Y14297D01*
X177320Y14188D01*
X177362Y14096D01*
Y14088D01*
X177379Y14054D01*
X177387Y14013D01*
X177404Y13954D01*
X177421Y13887D01*
X177438Y13803D01*
X177446Y13711D01*
X177454Y13619D01*
Y13610D01*
Y13593D01*
Y13560D01*
X177446Y13518D01*
X177438Y13476D01*
X177429Y13418D01*
X177396Y13283D01*
X177337Y13133D01*
X177253Y12982D01*
X177203Y12898D01*
X177136Y12831D01*
X177069Y12755D01*
X176985Y12688D01*
X176977D01*
X176960Y12672D01*
X176935Y12655D01*
X176901Y12638D01*
X176851Y12613D01*
X176792Y12580D01*
X176725Y12546D01*
X176641Y12521D01*
X176558Y12487D01*
X176457Y12454D01*
X176357Y12429D01*
X176239Y12395D01*
X176114Y12378D01*
X175979Y12362D01*
X175695Y12345D01*
X175619D01*
X175560Y12353D01*
X175494Y12362D01*
X175410Y12370D01*
X175318Y12378D01*
X175225Y12395D01*
X175016Y12445D01*
X174790Y12521D01*
X174681Y12571D01*
X174572Y12630D01*
X174471Y12688D01*
X174371Y12764D01*
X174362Y12772D01*
X174345Y12781D01*
X174320Y12806D01*
X174287Y12839D01*
X174253Y12881D01*
X174211Y12931D01*
X174111Y13049D01*
X174019Y13200D01*
X173935Y13376D01*
X173910Y13476D01*
X173884Y13577D01*
X173868Y13686D01*
X173859Y13803D01*
Y13811D01*
Y13845D01*
Y13887D01*
X173868Y13937D01*
Y14004D01*
X173876Y14071D01*
X173910Y14214D01*
Y14222D01*
X173918Y14247D01*
X173935Y14289D01*
X173960Y14356D01*
X173993Y14432D01*
X174035Y14524D01*
X174086Y14641D01*
X174153Y14767D01*
X172728D01*
Y15672D01*
X177362D01*
Y14767D01*
D02*
G37*
G36*
X132677Y10371D02*
X130993Y9064D01*
Y8452D01*
X132677D01*
Y7480D01*
X128236D01*
Y9173D01*
Y9181D01*
Y9215D01*
Y9265D01*
X128244Y9324D01*
Y9399D01*
X128252Y9483D01*
X128261Y9584D01*
X128278Y9684D01*
X128320Y9902D01*
X128378Y10128D01*
X128462Y10329D01*
X128512Y10422D01*
X128571Y10505D01*
Y10514D01*
X128588Y10522D01*
X128630Y10572D01*
X128705Y10640D01*
X128806Y10715D01*
X128931Y10790D01*
X129082Y10849D01*
X129258Y10899D01*
X129359Y10908D01*
X129459Y10916D01*
X129501D01*
X129543Y10908D01*
X129602Y10899D01*
X129677Y10891D01*
X129761Y10866D01*
X129853Y10841D01*
X129954Y10807D01*
X130054Y10757D01*
X130163Y10698D01*
X130272Y10631D01*
X130381Y10539D01*
X130490Y10439D01*
X130591Y10321D01*
X130683Y10187D01*
X130766Y10028D01*
X132677Y11570D01*
Y10371D01*
D02*
G37*
G36*
X131102Y12592D02*
X131110D01*
X131144Y12600D01*
X131194Y12609D01*
X131261Y12617D01*
X131345Y12642D01*
X131429Y12667D01*
X131521Y12709D01*
X131621Y12760D01*
X131722Y12827D01*
X131814Y12902D01*
X131898Y12994D01*
X131982Y13112D01*
X132049Y13237D01*
X132099Y13388D01*
X132132Y13564D01*
X132141Y13757D01*
Y13765D01*
Y13782D01*
Y13816D01*
X132132Y13858D01*
X132124Y13908D01*
X132116Y13975D01*
X132107Y14042D01*
X132091Y14117D01*
X132040Y14293D01*
X131965Y14494D01*
X131915Y14595D01*
X131856Y14704D01*
X131797Y14813D01*
X131722Y14922D01*
Y14955D01*
X132510D01*
Y14947D01*
X132518Y14922D01*
X132535Y14888D01*
X132552Y14838D01*
X132568Y14779D01*
X132593Y14704D01*
X132618Y14620D01*
X132635Y14528D01*
X132685Y14327D01*
X132727Y14109D01*
X132761Y13883D01*
X132769Y13648D01*
Y13640D01*
Y13606D01*
Y13556D01*
X132761Y13489D01*
X132753Y13413D01*
X132744Y13321D01*
X132727Y13221D01*
X132711Y13112D01*
X132660Y12869D01*
X132577Y12634D01*
X132526Y12508D01*
X132468Y12399D01*
X132392Y12290D01*
X132317Y12190D01*
X132308Y12182D01*
X132292Y12165D01*
X132267Y12140D01*
X132233Y12114D01*
X132183Y12072D01*
X132124Y12031D01*
X132057Y11989D01*
X131982Y11938D01*
X131889Y11888D01*
X131789Y11846D01*
X131688Y11804D01*
X131571Y11762D01*
X131437Y11737D01*
X131303Y11712D01*
X131160Y11695D01*
X131001Y11687D01*
X130917D01*
X130859Y11695D01*
X130792Y11704D01*
X130708Y11712D01*
X130616Y11729D01*
X130515Y11746D01*
X130297Y11804D01*
X130071Y11888D01*
X129962Y11938D01*
X129853Y12005D01*
X129744Y12072D01*
X129652Y12156D01*
X129644Y12165D01*
X129627Y12182D01*
X129610Y12207D01*
X129577Y12248D01*
X129535Y12290D01*
X129493Y12349D01*
X129451Y12425D01*
X129401Y12500D01*
X129359Y12592D01*
X129317Y12684D01*
X129275Y12793D01*
X129233Y12911D01*
X129200Y13036D01*
X129183Y13179D01*
X129166Y13321D01*
X129158Y13472D01*
Y13480D01*
Y13489D01*
Y13539D01*
X129166Y13614D01*
X129183Y13715D01*
X129208Y13832D01*
X129241Y13958D01*
X129292Y14100D01*
X129359Y14243D01*
X129451Y14385D01*
X129560Y14528D01*
X129685Y14654D01*
X129845Y14771D01*
X130037Y14872D01*
X130138Y14913D01*
X130255Y14947D01*
X130373Y14972D01*
X130507Y14997D01*
X130641Y15014D01*
X131102D01*
Y12592D01*
D02*
G37*
G36*
X174873Y26298D02*
Y26289D01*
X174865Y26264D01*
X174857Y26222D01*
X174848Y26172D01*
X174840Y26096D01*
X174831Y26013D01*
X174823Y25920D01*
Y25811D01*
Y25803D01*
Y25786D01*
Y25761D01*
Y25728D01*
X174831Y25635D01*
X174840Y25527D01*
X174865Y25384D01*
X174890Y25242D01*
X174932Y25082D01*
X174982Y24932D01*
X177362D01*
Y24027D01*
X173951D01*
Y24932D01*
X174572D01*
X174563Y24940D01*
X174555Y24948D01*
X174513Y24999D01*
X174446Y25074D01*
X174371Y25175D01*
X174287Y25275D01*
X174203Y25392D01*
X174127Y25501D01*
X174069Y25610D01*
X174060Y25619D01*
X174044Y25661D01*
X174027Y25711D01*
X174002Y25778D01*
X173977Y25853D01*
X173951Y25946D01*
X173943Y26038D01*
X173935Y26138D01*
Y26155D01*
Y26189D01*
Y26247D01*
X173943Y26331D01*
X174873D01*
Y26298D01*
D02*
G37*
G36*
X177345Y28853D02*
X177362Y28803D01*
X177371Y28736D01*
X177387Y28636D01*
X177404Y28518D01*
X177412Y28384D01*
X177429Y28242D01*
Y28091D01*
Y28082D01*
Y28066D01*
Y28032D01*
X177421Y27990D01*
Y27940D01*
X177412Y27881D01*
X177396Y27747D01*
X177362Y27605D01*
X177320Y27454D01*
X177253Y27312D01*
X177170Y27194D01*
X177161Y27186D01*
X177119Y27152D01*
X177060Y27110D01*
X176968Y27060D01*
X176851Y27001D01*
X176709Y26960D01*
X176533Y26926D01*
X176331Y26918D01*
X174547D01*
Y26474D01*
X173951D01*
Y26918D01*
X172996D01*
Y27823D01*
X173951D01*
Y28870D01*
X174547D01*
Y27823D01*
X176047D01*
X176147Y27831D01*
X176256Y27839D01*
X176373Y27856D01*
X176491Y27881D01*
X176600Y27915D01*
X176641Y27932D01*
X176675Y27957D01*
X176683Y27965D01*
X176700Y27982D01*
X176725Y28015D01*
X176751Y28066D01*
X176784Y28133D01*
X176809Y28217D01*
X176826Y28309D01*
X176834Y28426D01*
Y28434D01*
Y28460D01*
X176826Y28501D01*
X176818Y28560D01*
X176809Y28619D01*
X176792Y28686D01*
X176767Y28761D01*
X176734Y28837D01*
Y28870D01*
X177345D01*
Y28853D01*
D02*
G37*
G36*
X164050Y135768D02*
X166153D01*
Y135039D01*
X163078D01*
Y139481D01*
X164050D01*
Y135768D01*
D02*
G37*
G36*
X191603Y138534D02*
X191670Y138525D01*
X191754Y138500D01*
X191838Y138475D01*
X191930Y138433D01*
X192031Y138383D01*
X192123Y138316D01*
X192215Y138232D01*
X192307Y138132D01*
X192383Y138006D01*
X192450Y137863D01*
X192500Y137696D01*
X192533Y137503D01*
X192542Y137277D01*
Y135039D01*
X191637D01*
Y136749D01*
Y136766D01*
Y136808D01*
Y136875D01*
Y136950D01*
X191628Y137042D01*
X191620Y137143D01*
X191612Y137243D01*
X191603Y137344D01*
Y137352D01*
X191595Y137386D01*
X191586Y137428D01*
X191570Y137486D01*
X191544Y137545D01*
X191511Y137604D01*
X191469Y137654D01*
X191419Y137696D01*
X191411Y137704D01*
X191394Y137713D01*
X191360Y137729D01*
X191310Y137746D01*
X191251Y137763D01*
X191184Y137780D01*
X191100Y137796D01*
X190966D01*
X190916Y137780D01*
X190841Y137763D01*
X190748Y137729D01*
X190631Y137687D01*
X190505Y137620D01*
X190355Y137537D01*
Y135039D01*
X189450D01*
Y136749D01*
Y136757D01*
Y136766D01*
Y136808D01*
Y136875D01*
X189441Y136958D01*
Y137059D01*
X189433Y137160D01*
X189424Y137260D01*
X189408Y137352D01*
Y137361D01*
X189399Y137394D01*
X189391Y137436D01*
X189374Y137486D01*
X189349Y137545D01*
X189315Y137604D01*
X189274Y137654D01*
X189223Y137696D01*
X189215Y137704D01*
X189198Y137713D01*
X189165Y137729D01*
X189114Y137746D01*
X189056Y137763D01*
X188989Y137780D01*
X188913Y137796D01*
X188779D01*
X188721Y137780D01*
X188645Y137763D01*
X188553Y137729D01*
X188444Y137687D01*
X188310Y137620D01*
X188167Y137528D01*
Y135039D01*
X187262D01*
Y138450D01*
X188167D01*
Y137972D01*
X188176Y137981D01*
X188184Y137989D01*
X188209Y138006D01*
X188243Y138031D01*
X188318Y138090D01*
X188419Y138165D01*
X188528Y138241D01*
X188637Y138316D01*
X188746Y138383D01*
X188838Y138433D01*
X188846Y138442D01*
X188880Y138450D01*
X188922Y138467D01*
X188989Y138492D01*
X189056Y138509D01*
X189139Y138525D01*
X189223Y138534D01*
X189315Y138542D01*
X189374D01*
X189424Y138534D01*
X189475Y138525D01*
X189533Y138509D01*
X189676Y138458D01*
X189751Y138425D01*
X189835Y138383D01*
X189910Y138333D01*
X189994Y138266D01*
X190070Y138190D01*
X190145Y138106D01*
X190212Y138006D01*
X190271Y137889D01*
X190279Y137897D01*
X190287Y137905D01*
X190346Y137947D01*
X190422Y138014D01*
X190522Y138098D01*
X190631Y138182D01*
X190748Y138266D01*
X190866Y138341D01*
X190975Y138400D01*
X190991Y138408D01*
X191025Y138425D01*
X191075Y138442D01*
X191142Y138475D01*
X191226Y138500D01*
X191318Y138517D01*
X191411Y138534D01*
X191511Y138542D01*
X191553D01*
X191603Y138534D01*
D02*
G37*
G36*
X210207D02*
X210257Y138525D01*
X210316Y138517D01*
X210450Y138484D01*
X210592Y138433D01*
X210752Y138349D01*
X210827Y138299D01*
X210902Y138232D01*
X210969Y138165D01*
X211036Y138081D01*
Y138073D01*
X211053Y138056D01*
X211070Y138031D01*
X211087Y137997D01*
X211112Y137947D01*
X211145Y137889D01*
X211171Y137821D01*
X211204Y137746D01*
X211238Y137662D01*
X211263Y137570D01*
X211296Y137461D01*
X211321Y137344D01*
X211338Y137226D01*
X211355Y137092D01*
X211372Y136950D01*
Y136799D01*
Y136791D01*
Y136766D01*
Y136724D01*
X211363Y136665D01*
X211355Y136598D01*
X211347Y136514D01*
X211338Y136430D01*
X211321Y136330D01*
X211271Y136120D01*
X211196Y135903D01*
X211145Y135794D01*
X211087Y135685D01*
X211020Y135584D01*
X210944Y135484D01*
X210936Y135475D01*
X210928Y135458D01*
X210902Y135442D01*
X210869Y135408D01*
X210827Y135366D01*
X210777Y135324D01*
X210659Y135240D01*
X210508Y135148D01*
X210324Y135064D01*
X210224Y135031D01*
X210123Y135014D01*
X210014Y134997D01*
X209897Y134989D01*
X209855D01*
X209821Y134997D01*
X209729Y135006D01*
X209612Y135023D01*
X209469Y135056D01*
X209310Y135106D01*
X209126Y135173D01*
X208933Y135266D01*
Y133808D01*
X208028D01*
Y138450D01*
X208933D01*
Y137989D01*
X208941D01*
X208950Y138006D01*
X209000Y138039D01*
X209067Y138098D01*
X209159Y138173D01*
X209260Y138249D01*
X209369Y138316D01*
X209478Y138383D01*
X209578Y138433D01*
X209587Y138442D01*
X209620Y138450D01*
X209670Y138467D01*
X209737Y138492D01*
X209821Y138509D01*
X209905Y138525D01*
X210006Y138534D01*
X210106Y138542D01*
X210165D01*
X210207Y138534D01*
D02*
G37*
G36*
X203696Y138458D02*
Y137528D01*
X203654D01*
X203628Y137537D01*
X203587Y137545D01*
X203536Y137553D01*
X203461Y137562D01*
X203377Y137570D01*
X203285Y137578D01*
X203092D01*
X203000Y137570D01*
X202891Y137562D01*
X202749Y137537D01*
X202606Y137512D01*
X202447Y137470D01*
X202296Y137419D01*
Y135039D01*
X201391D01*
Y138450D01*
X202296D01*
Y137830D01*
X202305Y137838D01*
X202313Y137847D01*
X202363Y137889D01*
X202438Y137956D01*
X202539Y138031D01*
X202640Y138115D01*
X202757Y138199D01*
X202866Y138274D01*
X202975Y138333D01*
X202983Y138341D01*
X203025Y138358D01*
X203075Y138375D01*
X203142Y138400D01*
X203218Y138425D01*
X203310Y138450D01*
X203402Y138458D01*
X203503Y138467D01*
X203612D01*
X203696Y138458D01*
D02*
G37*
G36*
X217456Y133808D02*
X216509D01*
X217028Y135031D01*
X215696Y138450D01*
X216676D01*
X217531Y136011D01*
X218402Y138450D01*
X219341D01*
X217456Y133808D01*
D02*
G37*
G36*
X186734Y138458D02*
Y137528D01*
X186693D01*
X186667Y137537D01*
X186626Y137545D01*
X186575Y137553D01*
X186500Y137562D01*
X186416Y137570D01*
X186324Y137578D01*
X186131D01*
X186039Y137570D01*
X185930Y137562D01*
X185787Y137537D01*
X185645Y137512D01*
X185486Y137470D01*
X185335Y137419D01*
Y135039D01*
X184430D01*
Y138450D01*
X185335D01*
Y137830D01*
X185343Y137838D01*
X185352Y137847D01*
X185402Y137889D01*
X185477Y137956D01*
X185578Y138031D01*
X185679Y138115D01*
X185796Y138199D01*
X185905Y138274D01*
X186014Y138333D01*
X186022Y138341D01*
X186064Y138358D01*
X186114Y138375D01*
X186181Y138400D01*
X186257Y138425D01*
X186349Y138450D01*
X186441Y138458D01*
X186542Y138467D01*
X186651D01*
X186734Y138458D01*
D02*
G37*
G36*
X177491Y137972D02*
X177500D01*
X177508Y137989D01*
X177558Y138031D01*
X177634Y138090D01*
X177734Y138157D01*
X177843Y138232D01*
X177952Y138308D01*
X178061Y138375D01*
X178162Y138425D01*
X178170Y138433D01*
X178204Y138442D01*
X178262Y138458D01*
X178329Y138484D01*
X178405Y138509D01*
X178497Y138525D01*
X178597Y138534D01*
X178698Y138542D01*
X178748D01*
X178799Y138534D01*
X178866Y138525D01*
X178949Y138500D01*
X179042Y138475D01*
X179142Y138433D01*
X179243Y138383D01*
X179343Y138316D01*
X179435Y138232D01*
X179528Y138132D01*
X179611Y138006D01*
X179678Y137863D01*
X179729Y137696D01*
X179771Y137503D01*
X179779Y137277D01*
Y135039D01*
X178874D01*
Y136732D01*
Y136741D01*
Y136766D01*
Y136799D01*
Y136849D01*
X178866Y136900D01*
Y136967D01*
X178857Y137109D01*
X178832Y137260D01*
X178807Y137411D01*
X178790Y137470D01*
X178765Y137528D01*
X178740Y137578D01*
X178715Y137620D01*
X178706Y137629D01*
X178681Y137646D01*
X178648Y137679D01*
X178589Y137713D01*
X178522Y137738D01*
X178430Y137771D01*
X178321Y137788D01*
X178195Y137796D01*
X178145D01*
X178078Y137780D01*
X177994Y137763D01*
X177893Y137729D01*
X177776Y137687D01*
X177642Y137620D01*
X177491Y137528D01*
Y135039D01*
X176586D01*
Y139673D01*
X177491D01*
Y137972D01*
D02*
G37*
G36*
X176067Y138752D02*
X174609D01*
Y135039D01*
X173636D01*
Y138752D01*
X172170D01*
Y139481D01*
X176067D01*
Y138752D01*
D02*
G37*
G36*
X169807D02*
X167687D01*
Y137796D01*
X169656D01*
Y137067D01*
X167687D01*
Y135768D01*
X169807D01*
Y135039D01*
X166715D01*
Y139481D01*
X169807D01*
Y138752D01*
D02*
G37*
G36*
X212947Y137972D02*
X212955D01*
X212964Y137989D01*
X213014Y138031D01*
X213089Y138090D01*
X213190Y138157D01*
X213299Y138232D01*
X213408Y138308D01*
X213517Y138375D01*
X213617Y138425D01*
X213626Y138433D01*
X213659Y138442D01*
X213718Y138458D01*
X213785Y138484D01*
X213861Y138509D01*
X213953Y138525D01*
X214053Y138534D01*
X214154Y138542D01*
X214204D01*
X214254Y138534D01*
X214321Y138525D01*
X214405Y138500D01*
X214497Y138475D01*
X214598Y138433D01*
X214699Y138383D01*
X214799Y138316D01*
X214891Y138232D01*
X214983Y138132D01*
X215067Y138006D01*
X215134Y137863D01*
X215184Y137696D01*
X215226Y137503D01*
X215235Y137277D01*
Y135039D01*
X214330D01*
Y136732D01*
Y136741D01*
Y136766D01*
Y136799D01*
Y136849D01*
X214321Y136900D01*
Y136967D01*
X214313Y137109D01*
X214288Y137260D01*
X214263Y137411D01*
X214246Y137470D01*
X214221Y137528D01*
X214196Y137578D01*
X214171Y137620D01*
X214162Y137629D01*
X214137Y137646D01*
X214104Y137679D01*
X214045Y137713D01*
X213978Y137738D01*
X213886Y137771D01*
X213777Y137788D01*
X213651Y137796D01*
X213601D01*
X213534Y137780D01*
X213450Y137763D01*
X213349Y137729D01*
X213232Y137687D01*
X213098Y137620D01*
X212947Y137528D01*
Y135039D01*
X212042D01*
Y139673D01*
X212947D01*
Y137972D01*
D02*
G37*
G36*
X205690Y138534D02*
X205774Y138525D01*
X205866Y138517D01*
X205958Y138509D01*
X206168Y138475D01*
X206369Y138425D01*
X206561Y138349D01*
X206654Y138308D01*
X206729Y138257D01*
X206737D01*
X206746Y138241D01*
X206788Y138207D01*
X206855Y138140D01*
X206930Y138048D01*
X206997Y137922D01*
X207064Y137771D01*
X207106Y137587D01*
X207123Y137486D01*
Y137377D01*
Y135039D01*
X206218D01*
Y135467D01*
X206209D01*
X206201Y135450D01*
X206151Y135408D01*
X206076Y135358D01*
X205975Y135282D01*
X205866Y135215D01*
X205757Y135140D01*
X205640Y135081D01*
X205539Y135039D01*
X205531D01*
X205497Y135023D01*
X205439Y135014D01*
X205371Y134997D01*
X205288Y134981D01*
X205196Y134964D01*
X205095Y134956D01*
X204986Y134947D01*
X204944D01*
X204911Y134956D01*
X204827Y134964D01*
X204726Y134981D01*
X204609Y135014D01*
X204492Y135064D01*
X204366Y135140D01*
X204249Y135232D01*
X204240Y135249D01*
X204207Y135282D01*
X204156Y135349D01*
X204106Y135433D01*
X204047Y135542D01*
X204006Y135668D01*
X203972Y135819D01*
X203955Y135978D01*
Y135986D01*
Y136003D01*
Y136037D01*
X203964Y136070D01*
X203972Y136120D01*
X203980Y136179D01*
X204006Y136305D01*
X204056Y136447D01*
X204140Y136590D01*
X204182Y136657D01*
X204240Y136732D01*
X204307Y136791D01*
X204383Y136849D01*
X204391D01*
X204408Y136866D01*
X204433Y136875D01*
X204475Y136900D01*
X204525Y136925D01*
X204592Y136950D01*
X204676Y136975D01*
X204777Y137009D01*
X204894Y137042D01*
X205028Y137076D01*
X205179Y137109D01*
X205346Y137134D01*
X205531Y137168D01*
X205740Y137193D01*
X205975Y137210D01*
X206226Y137226D01*
Y137310D01*
Y137327D01*
Y137361D01*
X206218Y137419D01*
X206201Y137495D01*
X206168Y137570D01*
X206134Y137646D01*
X206076Y137721D01*
X206000Y137780D01*
X205992Y137788D01*
X205958Y137805D01*
X205908Y137830D01*
X205824Y137855D01*
X205724Y137880D01*
X205598Y137905D01*
X205447Y137922D01*
X205271Y137931D01*
X205204D01*
X205129Y137914D01*
X205011Y137897D01*
X204869Y137863D01*
X204701Y137821D01*
X204500Y137754D01*
X204265Y137662D01*
X204240D01*
Y138375D01*
X204249D01*
X204274Y138383D01*
X204307Y138391D01*
X204358Y138400D01*
X204416Y138417D01*
X204483Y138425D01*
X204567Y138442D01*
X204651Y138458D01*
X204844Y138492D01*
X205053Y138517D01*
X205263Y138534D01*
X205481Y138542D01*
X205623D01*
X205690Y138534D01*
D02*
G37*
%LPC*%
G36*
X160119Y138785D02*
X159634D01*
Y137704D01*
X160145D01*
X160245Y137713D01*
X160346D01*
X160455Y137721D01*
X160547Y137729D01*
X160631Y137746D01*
X160639D01*
X160664Y137754D01*
X160698Y137771D01*
X160740Y137788D01*
X160832Y137847D01*
X160874Y137880D01*
X160916Y137931D01*
X160924Y137939D01*
X160932Y137956D01*
X160949Y137989D01*
X160966Y138031D01*
X160983Y138081D01*
X160991Y138140D01*
X161008Y138207D01*
Y138282D01*
Y138291D01*
Y138308D01*
Y138341D01*
X160999Y138383D01*
X160974Y138475D01*
X160924Y138567D01*
Y138576D01*
X160907Y138584D01*
X160890Y138609D01*
X160857Y138634D01*
X160824Y138660D01*
X160773Y138685D01*
X160723Y138710D01*
X160656Y138735D01*
X160647D01*
X160622Y138743D01*
X160572Y138752D01*
X160497Y138760D01*
X160405Y138768D01*
X160270Y138777D01*
X160119Y138785D01*
D02*
G37*
G36*
X182134Y137997D02*
X182100D01*
X182067Y137989D01*
X182017Y137981D01*
X181958Y137972D01*
X181891Y137947D01*
X181824Y137922D01*
X181748Y137889D01*
X181681Y137838D01*
X181606Y137780D01*
X181539Y137713D01*
X181480Y137629D01*
X181430Y137528D01*
X181388Y137411D01*
X181354Y137277D01*
X181338Y137118D01*
X182854D01*
Y137126D01*
Y137160D01*
X182846Y137201D01*
X182838Y137252D01*
X182829Y137319D01*
X182813Y137394D01*
X182762Y137562D01*
X182720Y137637D01*
X182670Y137721D01*
X182612Y137796D01*
X182544Y137863D01*
X182461Y137914D01*
X182368Y137964D01*
X182260Y137989D01*
X182134Y137997D01*
D02*
G37*
G36*
X176491Y14767D02*
X174647D01*
X174639Y14750D01*
X174622Y14716D01*
X174605Y14658D01*
X174580Y14591D01*
X174555Y14507D01*
X174530Y14415D01*
X174521Y14314D01*
X174513Y14222D01*
Y14214D01*
Y14180D01*
X174521Y14138D01*
X174530Y14080D01*
X174547Y14004D01*
X174572Y13929D01*
X174614Y13845D01*
X174655Y13761D01*
X174723Y13669D01*
X174798Y13585D01*
X174890Y13510D01*
X174999Y13434D01*
X175133Y13376D01*
X175284Y13334D01*
X175468Y13300D01*
X175669Y13292D01*
X175762D01*
X175862Y13300D01*
X175988Y13317D01*
X176130Y13334D01*
X176264Y13367D01*
X176399Y13418D01*
X176507Y13476D01*
X176516Y13485D01*
X176549Y13510D01*
X176583Y13560D01*
X176633Y13627D01*
X176675Y13711D01*
X176717Y13811D01*
X176751Y13937D01*
X176759Y14080D01*
Y14096D01*
X176751Y14138D01*
X176742Y14197D01*
X176725Y14281D01*
X176692Y14381D01*
X176641Y14499D01*
X176583Y14633D01*
X176491Y14767D01*
D02*
G37*
G36*
X175711Y10501D02*
X173918Y9873D01*
X175711Y9244D01*
Y10501D01*
D02*
G37*
G36*
X175284Y22451D02*
X175242D01*
X175200Y22443D01*
X175150Y22434D01*
X175083Y22426D01*
X175007Y22409D01*
X174840Y22359D01*
X174764Y22317D01*
X174681Y22267D01*
X174605Y22208D01*
X174538Y22141D01*
X174488Y22057D01*
X174438Y21965D01*
X174412Y21856D01*
X174404Y21730D01*
Y21722D01*
Y21697D01*
X174412Y21663D01*
X174421Y21613D01*
X174429Y21554D01*
X174454Y21487D01*
X174479Y21420D01*
X174513Y21345D01*
X174563Y21278D01*
X174622Y21203D01*
X174689Y21136D01*
X174773Y21077D01*
X174873Y21026D01*
X174991Y20985D01*
X175125Y20951D01*
X175284Y20934D01*
Y22451D01*
D02*
G37*
G36*
X194947Y137931D02*
X194913D01*
X194871Y137922D01*
X194821Y137914D01*
X194763Y137897D01*
X194695Y137863D01*
X194620Y137830D01*
X194545Y137780D01*
X194469Y137721D01*
X194394Y137637D01*
X194327Y137545D01*
X194268Y137428D01*
X194218Y137285D01*
X194176Y137126D01*
X194151Y136942D01*
X194142Y136732D01*
Y136715D01*
Y136682D01*
X194151Y136623D01*
X194159Y136548D01*
X194167Y136464D01*
X194184Y136363D01*
X194209Y136255D01*
X194243Y136145D01*
X194285Y136037D01*
X194343Y135928D01*
X194411Y135836D01*
X194486Y135743D01*
X194578Y135668D01*
X194687Y135609D01*
X194813Y135576D01*
X194955Y135559D01*
X194989D01*
X195031Y135567D01*
X195081Y135576D01*
X195140Y135592D01*
X195207Y135618D01*
X195282Y135660D01*
X195357Y135710D01*
X195424Y135768D01*
X195500Y135844D01*
X195567Y135944D01*
X195626Y136053D01*
X195676Y136187D01*
X195718Y136347D01*
X195743Y136523D01*
X195751Y136732D01*
Y136749D01*
Y136782D01*
X195743Y136841D01*
Y136916D01*
X195726Y137009D01*
X195709Y137109D01*
X195684Y137218D01*
X195651Y137336D01*
X195609Y137444D01*
X195559Y137553D01*
X195492Y137654D01*
X195416Y137746D01*
X195324Y137821D01*
X195215Y137880D01*
X195089Y137914D01*
X194947Y137931D01*
D02*
G37*
G36*
X130599Y21165D02*
X130557D01*
X130515Y21157D01*
X130465Y21148D01*
X130398Y21140D01*
X130322Y21123D01*
X130155Y21073D01*
X130079Y21031D01*
X129996Y20980D01*
X129920Y20922D01*
X129853Y20855D01*
X129803Y20771D01*
X129753Y20679D01*
X129727Y20570D01*
X129719Y20444D01*
Y20436D01*
Y20411D01*
X129727Y20377D01*
X129736Y20327D01*
X129744Y20268D01*
X129769Y20201D01*
X129795Y20134D01*
X129828Y20059D01*
X129878Y19992D01*
X129937Y19916D01*
X130004Y19849D01*
X130088Y19791D01*
X130188Y19740D01*
X130306Y19698D01*
X130440Y19665D01*
X130599Y19648D01*
Y21165D01*
D02*
G37*
G36*
X20281Y58562D02*
X20230D01*
X20197Y58554D01*
X20096Y58537D01*
X19979Y58512D01*
X19845Y58462D01*
X19702Y58386D01*
X19635Y58336D01*
X19568Y58277D01*
X19501Y58210D01*
X19443Y58135D01*
Y58127D01*
X19426Y58118D01*
X19418Y58093D01*
X19392Y58060D01*
X19367Y58018D01*
X19342Y57959D01*
X19317Y57900D01*
X19292Y57825D01*
X19258Y57750D01*
X19233Y57657D01*
X19208Y57557D01*
X19183Y57456D01*
X19158Y57339D01*
X19149Y57213D01*
X19133Y57079D01*
Y56937D01*
Y56928D01*
Y56903D01*
Y56861D01*
X19141Y56811D01*
Y56744D01*
X19149Y56669D01*
X19174Y56501D01*
X19208Y56308D01*
X19267Y56107D01*
X19342Y55914D01*
X19443Y55747D01*
Y55738D01*
X19459Y55730D01*
X19501Y55680D01*
X19568Y55613D01*
X19660Y55537D01*
X19786Y55462D01*
X19929Y55395D01*
X20096Y55344D01*
X20188Y55336D01*
X20281Y55328D01*
X20331D01*
X20365Y55336D01*
X20465Y55353D01*
X20582Y55378D01*
X20716Y55428D01*
X20859Y55504D01*
X20926Y55554D01*
X20993Y55613D01*
X21060Y55671D01*
X21119Y55747D01*
Y55755D01*
X21135Y55764D01*
X21152Y55789D01*
X21169Y55822D01*
X21194Y55872D01*
X21219Y55923D01*
X21244Y55981D01*
X21278Y56057D01*
X21311Y56141D01*
X21337Y56224D01*
X21362Y56325D01*
X21387Y56434D01*
X21412Y56551D01*
X21420Y56669D01*
X21437Y56945D01*
Y56954D01*
Y56979D01*
Y57020D01*
X21429Y57071D01*
Y57138D01*
X21420Y57213D01*
X21395Y57381D01*
X21362Y57574D01*
X21303Y57775D01*
X21228Y57968D01*
X21119Y58135D01*
Y58143D01*
X21102Y58152D01*
X21060Y58202D01*
X20993Y58269D01*
X20901Y58353D01*
X20775Y58428D01*
X20633Y58495D01*
X20465Y58546D01*
X20381Y58554D01*
X20281Y58562D01*
D02*
G37*
G36*
X206218Y136724D02*
X206176D01*
X206134Y136715D01*
X206076Y136707D01*
X206000Y136699D01*
X205925Y136690D01*
X205740Y136665D01*
X205547Y136632D01*
X205363Y136590D01*
X205279Y136573D01*
X205212Y136548D01*
X205145Y136514D01*
X205095Y136489D01*
X205087Y136481D01*
X205062Y136464D01*
X205028Y136430D01*
X204986Y136380D01*
X204944Y136321D01*
X204911Y136246D01*
X204886Y136162D01*
X204877Y136062D01*
Y136053D01*
Y136011D01*
X204886Y135961D01*
X204894Y135903D01*
X204911Y135836D01*
X204944Y135768D01*
X204978Y135701D01*
X205028Y135651D01*
X205036Y135643D01*
X205062Y135634D01*
X205095Y135618D01*
X205154Y135601D01*
X205221Y135576D01*
X205305Y135559D01*
X205405Y135550D01*
X205522Y135542D01*
X205539D01*
X205581Y135550D01*
X205648Y135559D01*
X205740Y135584D01*
X205849Y135618D01*
X205966Y135676D01*
X206092Y135752D01*
X206218Y135852D01*
Y136724D01*
D02*
G37*
G36*
X209637Y137847D02*
X209578D01*
X209511Y137838D01*
X209427Y137813D01*
X209318Y137788D01*
X209201Y137746D01*
X209075Y137687D01*
X208933Y137604D01*
Y135710D01*
X208941D01*
X208975Y135693D01*
X209025Y135685D01*
X209092Y135668D01*
X209168Y135651D01*
X209260Y135634D01*
X209369Y135626D01*
X209478Y135618D01*
X209520D01*
X209561Y135626D01*
X209629Y135634D01*
X209696Y135651D01*
X209779Y135676D01*
X209863Y135710D01*
X209955Y135760D01*
X210039Y135819D01*
X210123Y135894D01*
X210207Y135986D01*
X210274Y136095D01*
X210341Y136229D01*
X210383Y136380D01*
X210416Y136556D01*
X210425Y136757D01*
Y136766D01*
Y136808D01*
X210416Y136858D01*
Y136925D01*
X210400Y137009D01*
X210383Y137101D01*
X210358Y137201D01*
X210324Y137302D01*
X210282Y137402D01*
X210232Y137503D01*
X210165Y137595D01*
X210089Y137679D01*
X210006Y137746D01*
X209897Y137796D01*
X209779Y137838D01*
X209637Y137847D01*
D02*
G37*
G36*
X198994Y137889D02*
X198952D01*
X198911Y137880D01*
X198852Y137872D01*
X198785Y137855D01*
X198701Y137830D01*
X198617Y137796D01*
X198533Y137754D01*
X198450Y137696D01*
X198366Y137629D01*
X198290Y137537D01*
X198215Y137436D01*
X198156Y137310D01*
X198115Y137168D01*
X198081Y137000D01*
X198073Y136808D01*
Y136799D01*
Y136782D01*
Y136757D01*
Y136724D01*
X198081Y136623D01*
X198098Y136506D01*
X198123Y136380D01*
X198156Y136255D01*
X198198Y136129D01*
X198265Y136028D01*
X198274Y136020D01*
X198299Y135995D01*
X198349Y135953D01*
X198416Y135911D01*
X198492Y135869D01*
X198600Y135827D01*
X198718Y135802D01*
X198860Y135794D01*
X198919D01*
X198978Y135810D01*
X199070Y135827D01*
X199170Y135852D01*
X199288Y135894D01*
X199413Y135953D01*
X199547Y136037D01*
Y137754D01*
X199531Y137763D01*
X199497Y137780D01*
X199439Y137796D01*
X199363Y137821D01*
X199279Y137847D01*
X199187Y137872D01*
X199086Y137880D01*
X198994Y137889D01*
D02*
G37*
G36*
X129560Y9919D02*
X129509D01*
X129459Y9911D01*
X129392Y9894D01*
X129317Y9869D01*
X129241Y9835D01*
X129166Y9785D01*
X129099Y9718D01*
X129090Y9709D01*
X129074Y9676D01*
X129049Y9626D01*
X129015Y9550D01*
X128982Y9450D01*
X128956Y9315D01*
X128940Y9148D01*
X128931Y9056D01*
Y8955D01*
Y8444D01*
X130314D01*
Y8880D01*
Y8888D01*
Y8905D01*
Y8938D01*
Y8980D01*
X130306Y9031D01*
Y9089D01*
X130289Y9223D01*
X130264Y9357D01*
X130230Y9492D01*
X130180Y9617D01*
X130146Y9668D01*
X130113Y9709D01*
X130104Y9718D01*
X130071Y9743D01*
X130029Y9776D01*
X129962Y9818D01*
X129887Y9852D01*
X129795Y9885D01*
X129685Y9911D01*
X129560Y9919D01*
D02*
G37*
G36*
X160321Y137042D02*
X159634D01*
Y135735D01*
X160371D01*
X160463Y135743D01*
X160589D01*
X160631Y135752D01*
X160689Y135760D01*
X160815Y135785D01*
X160949Y135827D01*
X160958D01*
X160974Y135844D01*
X161008Y135861D01*
X161050Y135886D01*
X161134Y135953D01*
X161217Y136045D01*
X161226Y136053D01*
X161234Y136070D01*
X161251Y136104D01*
X161268Y136145D01*
X161284Y136196D01*
X161301Y136255D01*
X161318Y136321D01*
Y136397D01*
Y136405D01*
Y136439D01*
X161310Y136472D01*
Y136531D01*
X161276Y136648D01*
X161251Y136707D01*
X161217Y136766D01*
Y136774D01*
X161201Y136791D01*
X161175Y136816D01*
X161150Y136849D01*
X161108Y136883D01*
X161058Y136916D01*
X161008Y136950D01*
X160941Y136975D01*
X160932D01*
X160899Y136984D01*
X160849Y137000D01*
X160765Y137009D01*
X160714Y137017D01*
X160656Y137025D01*
X160580D01*
X160505Y137034D01*
X160421D01*
X160321Y137042D01*
D02*
G37*
G36*
X130599Y14109D02*
X130557D01*
X130515Y14100D01*
X130465Y14092D01*
X130398Y14084D01*
X130322Y14067D01*
X130155Y14017D01*
X130079Y13975D01*
X129996Y13925D01*
X129920Y13866D01*
X129853Y13799D01*
X129803Y13715D01*
X129753Y13623D01*
X129727Y13514D01*
X129719Y13388D01*
Y13380D01*
Y13355D01*
X129727Y13321D01*
X129736Y13271D01*
X129744Y13212D01*
X129769Y13145D01*
X129795Y13078D01*
X129828Y13003D01*
X129878Y12936D01*
X129937Y12860D01*
X130004Y12793D01*
X130088Y12735D01*
X130188Y12684D01*
X130306Y12642D01*
X130440Y12609D01*
X130599Y12592D01*
Y14109D01*
D02*
G37*
%LPD*%
D29*
X43389Y32283D02*
G03*
X43389Y32283I-278J0D01*
G01*
X93307Y56496D02*
G03*
X93307Y56496I-394J0D01*
G01*
X104569Y133485D02*
G03*
X104528Y133661I352J176D01*
G01*
X45079Y23228D02*
X50591D01*
X47835Y23425D02*
Y31890D01*
X45079Y32283D02*
X50591D01*
X171260Y75724D02*
Y83724D01*
X163760Y75724D02*
X178760D01*
Y83724D01*
X163760D02*
X178760D01*
X163760Y75724D02*
Y83724D01*
X171260Y60764D02*
Y68764D01*
X163760Y60764D02*
X178760D01*
Y68764D01*
X163760D02*
X178760D01*
X163760Y60764D02*
Y68764D01*
X171260Y45803D02*
Y53803D01*
X163760Y45803D02*
X178760D01*
Y53803D01*
X163760D02*
X178760D01*
X163760Y45803D02*
Y53803D01*
X171260Y30839D02*
Y38839D01*
X163760Y30839D02*
X178760D01*
Y38839D01*
X163760D02*
X178760D01*
X163760Y30839D02*
Y38839D01*
X45669Y55905D02*
Y58661D01*
X42126D02*
X46457D01*
X42126Y55512D02*
X46457D01*
X45669Y49016D02*
Y51772D01*
X42126D02*
X46457D01*
X42126Y48622D02*
X46457D01*
X45669Y41929D02*
Y44685D01*
X42126D02*
X46457D01*
X42126Y41535D02*
X46457D01*
X198839Y30839D02*
Y38839D01*
X183839Y30839D02*
X198839D01*
X183839D02*
Y38839D01*
X198839D01*
X191339Y30839D02*
Y38839D01*
X198839Y45803D02*
Y53803D01*
X183839Y45803D02*
X198839D01*
X183839D02*
Y53803D01*
X198839D01*
X191339Y45803D02*
Y53803D01*
X183839Y60764D02*
Y68764D01*
X198839D01*
Y60764D02*
Y68764D01*
X183839Y60764D02*
X198839D01*
X191339D02*
Y68764D01*
X203559Y60764D02*
Y68764D01*
X218559D01*
Y60764D02*
Y68764D01*
X203559Y60764D02*
X218559D01*
X211059D02*
Y68764D01*
X203559Y45803D02*
Y53803D01*
X218559D01*
Y45803D02*
Y53803D01*
X203559Y45803D02*
X218559D01*
X211059D02*
Y53803D01*
X203559Y30839D02*
Y38839D01*
X218559D01*
Y30839D02*
Y38839D01*
X203559Y30839D02*
X218559D01*
X211059D02*
Y38839D01*
X198425Y75590D02*
Y81590D01*
X3587Y110079D02*
X10587D01*
X25591Y125508D02*
Y133508D01*
X18090Y125508D02*
X33091D01*
Y133508D01*
X18090D02*
X33091D01*
X18090Y125508D02*
Y133508D01*
X25394Y109583D02*
Y117583D01*
X17894Y109583D02*
X32894D01*
Y117583D01*
X17894D02*
X32894D01*
X17894Y109583D02*
Y117583D01*
X45472Y125508D02*
Y133508D01*
X37972Y125508D02*
X52972D01*
Y133508D01*
X37972D02*
X52972D01*
X37972Y125508D02*
Y133508D01*
X65248Y125508D02*
Y133508D01*
X57748Y125508D02*
X72748D01*
Y133508D01*
X57748D02*
X72748D01*
X57748Y125508D02*
Y133508D01*
X65158Y109583D02*
Y117583D01*
X57657Y109583D02*
X72658D01*
Y117583D01*
X57657D02*
X72658D01*
X57657Y109583D02*
Y117583D01*
X65158Y94032D02*
Y102032D01*
X57657D02*
X72658D01*
X57657Y94032D02*
Y102032D01*
Y94032D02*
X72658D01*
Y102032D01*
X65248Y78677D02*
Y86677D01*
X57748D02*
X72748D01*
X57748Y78677D02*
Y86677D01*
Y78677D02*
X72748D01*
Y86677D01*
X41929Y78677D02*
Y86677D01*
X34429Y78677D02*
X49429D01*
Y86677D01*
X34429D02*
X49429D01*
X34429Y78677D02*
Y86677D01*
X41929Y63717D02*
Y71716D01*
X34429Y63717D02*
X49429D01*
Y71716D01*
X34429D02*
X49429D01*
X34429Y63717D02*
Y71716D01*
X65248Y63717D02*
Y71716D01*
X57748Y63717D02*
X72748D01*
Y71716D01*
X57748D02*
X72748D01*
X57748Y63717D02*
Y71716D01*
X65158Y48756D02*
Y56756D01*
X57657Y48756D02*
X72658D01*
Y56756D01*
X57657D02*
X72658D01*
X57657Y48756D02*
Y56756D01*
X65248Y33402D02*
Y41402D01*
X57748Y33402D02*
X72748D01*
Y41402D01*
X57748D02*
X72748D01*
X57748Y33402D02*
Y41402D01*
X22091Y5551D02*
X29091D01*
X49232Y7614D02*
Y15614D01*
X34232Y7614D02*
X49232D01*
X34232D02*
Y15614D01*
X49232D01*
X41732Y7614D02*
Y15614D01*
X65248Y7614D02*
Y15614D01*
X57748Y7614D02*
X72748D01*
Y15614D01*
X57748D02*
X72748D01*
X57748Y7614D02*
Y15614D01*
X139075Y2264D02*
X164075D01*
X139075Y27264D02*
X164075D01*
X163575Y10264D02*
Y19264D01*
X139575Y10264D02*
Y19264D01*
X184547Y2264D02*
X209547D01*
X184547Y27264D02*
X209547D01*
X209047Y10264D02*
Y19264D01*
X185047Y10264D02*
Y19264D01*
X144685Y137535D02*
Y145535D01*
X137185Y137535D02*
X152185D01*
Y145535D01*
X137185D02*
X152185D01*
X137185Y137535D02*
Y145535D01*
X137382Y126906D02*
Y134906D01*
X152382D01*
Y126906D02*
Y134906D01*
X137382Y126906D02*
X152382D01*
X144882D02*
Y134906D01*
X118681Y127102D02*
Y135102D01*
X133681D01*
Y127102D02*
Y135102D01*
X118681Y127102D02*
X133681D01*
X126181D02*
Y135102D01*
X105905Y137535D02*
Y145535D01*
X98405Y137535D02*
X113406D01*
Y145535D01*
X98405D02*
X113406D01*
X98405Y137535D02*
Y145535D01*
X118681Y137732D02*
Y145732D01*
X133681D01*
Y137732D02*
Y145732D01*
X118681Y137732D02*
X133681D01*
X126181D02*
Y145732D01*
X116319Y136024D02*
X118681Y138386D01*
X116142Y136024D02*
X116319D01*
X87402Y73032D02*
Y80315D01*
X91339Y90551D02*
X97441D01*
X91535Y59055D02*
X97638D01*
X123031D02*
X129134D01*
X133071Y68898D02*
Y80512D01*
X123031Y90551D02*
X129134D01*
X-2559Y31102D02*
Y45276D01*
Y52362D01*
X6496Y55512D02*
X11220D01*
X6496Y27953D02*
X11220D01*
X14370Y31102D02*
Y52362D01*
X3347Y31102D02*
Y52362D01*
X87402Y22575D02*
Y30575D01*
X79902D02*
X94902D01*
X79902Y22575D02*
Y30575D01*
Y22575D02*
X94902D01*
Y30575D01*
D38*
X40453Y111024D02*
G03*
X40453Y111024I-492J0D01*
G01*
D39*
X222953Y80590D02*
X232953D01*
X222953Y20591D02*
X232953D01*
X222953D02*
Y80590D01*
X232953Y20591D02*
Y80590D01*
X10236Y118898D02*
Y121260D01*
X3937Y118898D02*
Y121260D01*
X44094Y109843D02*
X45276D01*
X44094Y97638D02*
X45276D01*
X44094D02*
Y109843D01*
X45276Y97638D02*
Y109843D01*
X28740Y14370D02*
Y16732D01*
X22441Y14370D02*
Y16732D01*
X119646Y7205D02*
Y17205D01*
X79646Y7205D02*
X119646D01*
X79646Y17205D02*
X119646D01*
X79646Y7205D02*
Y17205D01*
D40*
X234646Y89961D02*
Y109646D01*
X171653Y89961D02*
X234646D01*
X171653D02*
Y129331D01*
X234646Y109646D02*
Y129331D01*
X171653D02*
X234646D01*
D41*
X83465Y131791D02*
X100394D01*
X83465Y126083D02*
X100394D01*
D42*
X12099Y77127D02*
X17599D01*
X12099D02*
Y94488D01*
X17599D01*
X591Y72427D02*
Y99213D01*
X11299Y72427D02*
X17599D01*
Y77127D01*
Y94488D02*
Y99213D01*
X11299D02*
X17599D01*
D43*
X204827Y139810D02*
X205312D01*
X204474Y139854D02*
X205710D01*
X204253Y139898D02*
X205886D01*
X204121Y139942D02*
X206019D01*
X203989Y139986D02*
X206151D01*
X203856Y140031D02*
X206239D01*
X203768Y140075D02*
X206328D01*
X203679Y140119D02*
X206416D01*
X203591Y140163D02*
X206504D01*
X203503Y140207D02*
X206592D01*
X203415Y140251D02*
X206637D01*
X203371Y140295D02*
X206681D01*
X203327Y140340D02*
X206725D01*
X203282Y140384D02*
X206769D01*
X203282Y140428D02*
X206813D01*
X203282Y140472D02*
X206857D01*
X203282Y140516D02*
X206901D01*
X203282Y140560D02*
X206945D01*
X203282Y140604D02*
X206990D01*
X203327Y140648D02*
X207034D01*
X203371Y140693D02*
X207034D01*
X203371Y140737D02*
X207078D01*
X203415Y140781D02*
X207122D01*
X203415Y140825D02*
X207122D01*
X203459Y140869D02*
X207166D01*
X203503Y140913D02*
X207166D01*
X203503Y140957D02*
X207210D01*
X203547Y141001D02*
X207210D01*
X205180Y141046D02*
X207255D01*
X203591D02*
X204783D01*
X205401Y141090D02*
X207255D01*
X203591D02*
X204562D01*
X205533Y141134D02*
X207255D01*
X203635D02*
X204430D01*
X205577Y141178D02*
X207299D01*
X203679D02*
X204297D01*
X205666Y141222D02*
X207299D01*
X203679D02*
X204209D01*
X205710Y141266D02*
X207299D01*
X203724D02*
X204121D01*
X205754Y141311D02*
X207299D01*
X203768D02*
X204077D01*
X205798Y141355D02*
X207343D01*
X203856D02*
X203944D01*
X205842Y141399D02*
X207343D01*
X205842Y141443D02*
X207343D01*
X205886Y141487D02*
X207343D01*
X205930Y141531D02*
X207343D01*
X205930Y141575D02*
X207387D01*
X209373Y141619D02*
X210256D01*
X205930D02*
X207387D01*
X209108Y141664D02*
X210476D01*
X205975D02*
X207387D01*
X208932Y141708D02*
X210609D01*
X205975D02*
X207387D01*
X201031D02*
X202135D01*
X198207D02*
X199310D01*
X195956D02*
X197059D01*
X193749D02*
X194853D01*
X190925D02*
X192028D01*
X187350D02*
X188321D01*
X179803D02*
X183554D01*
X177552D02*
X178655D01*
X173712D02*
X174771D01*
X171461D02*
X172564D01*
X166650D02*
X170402D01*
X208799Y141752D02*
X210741D01*
X205975D02*
X207387D01*
X200987D02*
X202179D01*
X198119D02*
X199399D01*
X195912D02*
X197103D01*
X193661D02*
X194897D01*
X190836D02*
X192072D01*
X187261D02*
X188453D01*
X179758D02*
X183642D01*
X177508D02*
X178743D01*
X173624D02*
X174859D01*
X171373D02*
X172609D01*
X166562D02*
X170446D01*
X208667Y141796D02*
X210874D01*
X205975D02*
X207387D01*
X200943D02*
X202223D01*
X198074D02*
X199399D01*
X195868D02*
X197148D01*
X193617D02*
X194941D01*
X190792D02*
X192116D01*
X187217D02*
X188497D01*
X179714D02*
X183686D01*
X177463D02*
X178788D01*
X173580D02*
X174904D01*
X171329D02*
X172653D01*
X166518D02*
X170490D01*
X208578Y141840D02*
X210962D01*
X205975D02*
X207387D01*
X200899D02*
X202267D01*
X198074D02*
X199443D01*
X195868D02*
X197192D01*
X193617D02*
X194985D01*
X190792D02*
X192116D01*
X187173D02*
X188497D01*
X179670D02*
X183686D01*
X177419D02*
X178788D01*
X173580D02*
X174904D01*
X171329D02*
X172653D01*
X166518D02*
X170534D01*
X208490Y141884D02*
X211050D01*
X205975D02*
X207387D01*
X200899D02*
X202267D01*
X198074D02*
X199443D01*
X195824D02*
X197192D01*
X193617D02*
X194985D01*
X190748D02*
X192160D01*
X187173D02*
X188541D01*
X179670D02*
X183731D01*
X177375D02*
X178788D01*
X173535D02*
X174948D01*
X171329D02*
X172697D01*
X166518D02*
X170534D01*
X208402Y141928D02*
X211094D01*
X205975D02*
X207387D01*
X204518D02*
X205180D01*
X200899D02*
X202267D01*
X198030D02*
X199443D01*
X195824D02*
X197192D01*
X193617D02*
X194985D01*
X190748D02*
X192160D01*
X187173D02*
X188541D01*
X179670D02*
X183731D01*
X177375D02*
X178788D01*
X173535D02*
X174948D01*
X171284D02*
X172697D01*
X166518D02*
X170534D01*
X208314Y141972D02*
X211182D01*
X205975D02*
X207387D01*
X204342D02*
X205312D01*
X200899D02*
X202267D01*
X198030D02*
X199443D01*
X195824D02*
X197192D01*
X193617D02*
X194985D01*
X190748D02*
X192160D01*
X187173D02*
X188541D01*
X179670D02*
X183731D01*
X177331D02*
X178788D01*
X173535D02*
X174948D01*
X171284D02*
X172697D01*
X166518D02*
X170534D01*
X208270Y142017D02*
X211227D01*
X205975D02*
X207387D01*
X204209D02*
X205445D01*
X200899D02*
X202267D01*
X198030D02*
X199443D01*
X195824D02*
X197192D01*
X193617D02*
X194985D01*
X190748D02*
X192160D01*
X187173D02*
X188541D01*
X179670D02*
X183731D01*
X177287D02*
X178788D01*
X173535D02*
X174948D01*
X171284D02*
X172697D01*
X166518D02*
X170534D01*
X208181Y142061D02*
X211271D01*
X205975D02*
X207387D01*
X204077D02*
X205489D01*
X200899D02*
X202267D01*
X198030D02*
X199443D01*
X195824D02*
X197192D01*
X193617D02*
X194985D01*
X190748D02*
X192160D01*
X187173D02*
X188541D01*
X179670D02*
X183731D01*
X177287D02*
X178788D01*
X173535D02*
X174948D01*
X171284D02*
X172697D01*
X166518D02*
X170534D01*
X208137Y142105D02*
X211315D01*
X205975D02*
X207387D01*
X203989D02*
X205577D01*
X200899D02*
X202267D01*
X198030D02*
X199443D01*
X195824D02*
X197192D01*
X193617D02*
X194985D01*
X190748D02*
X192160D01*
X187173D02*
X188541D01*
X179670D02*
X183731D01*
X177243D02*
X178788D01*
X173535D02*
X174948D01*
X171284D02*
X172697D01*
X166518D02*
X170534D01*
X208093Y142149D02*
X211359D01*
X205975D02*
X207387D01*
X203900D02*
X205666D01*
X200899D02*
X202267D01*
X198030D02*
X199443D01*
X195824D02*
X197192D01*
X193617D02*
X194985D01*
X190748D02*
X192160D01*
X187173D02*
X188541D01*
X179670D02*
X183731D01*
X177199D02*
X178788D01*
X173535D02*
X174948D01*
X171284D02*
X172697D01*
X166518D02*
X170534D01*
X208005Y142193D02*
X211403D01*
X205975D02*
X207387D01*
X203812D02*
X205710D01*
X200899D02*
X202267D01*
X198030D02*
X199443D01*
X195824D02*
X197192D01*
X193617D02*
X194985D01*
X190748D02*
X192160D01*
X187173D02*
X188541D01*
X179670D02*
X183731D01*
X177155D02*
X178788D01*
X173535D02*
X174948D01*
X171284D02*
X172697D01*
X166518D02*
X170534D01*
X207961Y142237D02*
X211447D01*
X205975D02*
X207387D01*
X203768D02*
X205754D01*
X200899D02*
X202267D01*
X198030D02*
X199443D01*
X195824D02*
X197192D01*
X193617D02*
X194985D01*
X190748D02*
X192160D01*
X187173D02*
X188541D01*
X179670D02*
X183731D01*
X177155D02*
X178788D01*
X173535D02*
X174948D01*
X171284D02*
X172697D01*
X166518D02*
X170534D01*
X207916Y142281D02*
X211491D01*
X205975D02*
X207387D01*
X203724D02*
X205798D01*
X200899D02*
X202267D01*
X198030D02*
X199443D01*
X195824D02*
X197192D01*
X193617D02*
X194985D01*
X190748D02*
X192160D01*
X187173D02*
X188541D01*
X179670D02*
X183731D01*
X177110D02*
X178788D01*
X173535D02*
X174948D01*
X171284D02*
X172697D01*
X166518D02*
X170534D01*
X207916Y142326D02*
X211491D01*
X205975D02*
X207387D01*
X203635D02*
X205842D01*
X200899D02*
X202267D01*
X198030D02*
X199443D01*
X195824D02*
X197192D01*
X193617D02*
X194985D01*
X190748D02*
X192160D01*
X187173D02*
X188541D01*
X179670D02*
X183731D01*
X177066D02*
X178788D01*
X173535D02*
X174948D01*
X171284D02*
X172697D01*
X166518D02*
X170534D01*
X207916Y142370D02*
X211536D01*
X205975D02*
X207387D01*
X203591D02*
X205886D01*
X200899D02*
X202267D01*
X198030D02*
X199443D01*
X195824D02*
X197192D01*
X193617D02*
X194985D01*
X190748D02*
X192160D01*
X187173D02*
X188541D01*
X179670D02*
X183731D01*
X177022D02*
X178788D01*
X173535D02*
X174948D01*
X171284D02*
X172697D01*
X166518D02*
X170534D01*
X207916Y142414D02*
X211536D01*
X205975D02*
X207387D01*
X203547D02*
X205930D01*
X200899D02*
X202267D01*
X198030D02*
X199443D01*
X195824D02*
X197192D01*
X193617D02*
X194985D01*
X190748D02*
X192160D01*
X187173D02*
X188541D01*
X179670D02*
X183731D01*
X177022D02*
X178788D01*
X173535D02*
X174948D01*
X171284D02*
X172697D01*
X166518D02*
X170534D01*
X207961Y142458D02*
X211580D01*
X203503D02*
X207387D01*
X200899D02*
X202267D01*
X198030D02*
X199443D01*
X195824D02*
X197192D01*
X193617D02*
X194985D01*
X190748D02*
X192160D01*
X187173D02*
X188541D01*
X179670D02*
X183731D01*
X176978D02*
X178788D01*
X173535D02*
X174948D01*
X171284D02*
X172697D01*
X166518D02*
X170534D01*
X208005Y142502D02*
X211580D01*
X203459D02*
X207387D01*
X200899D02*
X202267D01*
X198030D02*
X199443D01*
X195824D02*
X197192D01*
X193617D02*
X194985D01*
X190748D02*
X192160D01*
X187173D02*
X188541D01*
X179670D02*
X183731D01*
X176934D02*
X178788D01*
X173535D02*
X174948D01*
X171284D02*
X172697D01*
X166518D02*
X170534D01*
X208005Y142546D02*
X211624D01*
X203415D02*
X207387D01*
X200899D02*
X202267D01*
X198030D02*
X199443D01*
X195824D02*
X197192D01*
X193617D02*
X194985D01*
X190748D02*
X192160D01*
X187173D02*
X188541D01*
X179670D02*
X183731D01*
X176890D02*
X178788D01*
X173535D02*
X174948D01*
X171284D02*
X172697D01*
X166518D02*
X170534D01*
X208049Y142590D02*
X211624D01*
X203371D02*
X207387D01*
X200899D02*
X202267D01*
X198030D02*
X199443D01*
X195824D02*
X197192D01*
X193617D02*
X194985D01*
X190748D02*
X192160D01*
X187173D02*
X188541D01*
X179670D02*
X183731D01*
X176890D02*
X178788D01*
X173535D02*
X174948D01*
X171284D02*
X172697D01*
X166518D02*
X170534D01*
X210079Y142634D02*
X211624D01*
X208093D02*
X209638D01*
X203371D02*
X207387D01*
X200899D02*
X202267D01*
X198030D02*
X199443D01*
X195824D02*
X197192D01*
X193617D02*
X194985D01*
X190748D02*
X192160D01*
X187173D02*
X188541D01*
X179670D02*
X183731D01*
X176846D02*
X178788D01*
X173535D02*
X174948D01*
X171284D02*
X172697D01*
X166518D02*
X170534D01*
X210211Y142679D02*
X211668D01*
X208137D02*
X209417D01*
X203327D02*
X207387D01*
X200899D02*
X202267D01*
X198030D02*
X199443D01*
X195824D02*
X197192D01*
X193617D02*
X194985D01*
X190748D02*
X192160D01*
X187173D02*
X188541D01*
X179670D02*
X183731D01*
X176801D02*
X178788D01*
X173535D02*
X174948D01*
X171284D02*
X172697D01*
X166518D02*
X170534D01*
X210256Y142723D02*
X211668D01*
X208181D02*
X209285D01*
X203282D02*
X207387D01*
X200899D02*
X202267D01*
X198030D02*
X199443D01*
X195824D02*
X197192D01*
X193617D02*
X194985D01*
X190748D02*
X192160D01*
X187173D02*
X188541D01*
X179670D02*
X183731D01*
X176757D02*
X178788D01*
X173535D02*
X174948D01*
X171284D02*
X172697D01*
X166518D02*
X170534D01*
X210300Y142767D02*
X211668D01*
X208225D02*
X209196D01*
X203238D02*
X207387D01*
X200899D02*
X202267D01*
X198030D02*
X199443D01*
X195824D02*
X197192D01*
X193617D02*
X194985D01*
X190748D02*
X192160D01*
X187173D02*
X188541D01*
X179670D02*
X183731D01*
X176757D02*
X178788D01*
X173535D02*
X174948D01*
X171284D02*
X172697D01*
X166518D02*
X170534D01*
X210344Y142811D02*
X211668D01*
X208270D02*
X209108D01*
X203238D02*
X207387D01*
X200899D02*
X202267D01*
X198030D02*
X199443D01*
X195824D02*
X197192D01*
X193617D02*
X194985D01*
X190748D02*
X192160D01*
X187173D02*
X188541D01*
X179670D02*
X183731D01*
X176713D02*
X178788D01*
X173535D02*
X174948D01*
X171284D02*
X172697D01*
X166518D02*
X170534D01*
X210388Y142855D02*
X211668D01*
X208270D02*
X209020D01*
X203194D02*
X207387D01*
X200899D02*
X202267D01*
X198030D02*
X199443D01*
X195824D02*
X197192D01*
X193617D02*
X194985D01*
X190748D02*
X192160D01*
X187173D02*
X188541D01*
X179670D02*
X183731D01*
X176669D02*
X178788D01*
X173535D02*
X174948D01*
X171284D02*
X172697D01*
X166518D02*
X170534D01*
X210388Y142899D02*
X211668D01*
X208314D02*
X208932D01*
X203194D02*
X207387D01*
X200899D02*
X202267D01*
X198030D02*
X199443D01*
X195824D02*
X197192D01*
X193617D02*
X194985D01*
X190748D02*
X192160D01*
X187173D02*
X188541D01*
X179670D02*
X183686D01*
X176625D02*
X178788D01*
X173535D02*
X174948D01*
X171284D02*
X172697D01*
X166518D02*
X170534D01*
X210388Y142944D02*
X211712D01*
X208358D02*
X208888D01*
X203150D02*
X207387D01*
X200899D02*
X202267D01*
X198030D02*
X199443D01*
X195824D02*
X197192D01*
X193617D02*
X194985D01*
X190748D02*
X192160D01*
X187173D02*
X188541D01*
X179670D02*
X183686D01*
X176625D02*
X178788D01*
X173535D02*
X174948D01*
X171284D02*
X172697D01*
X166518D02*
X170490D01*
X210388Y142988D02*
X211712D01*
X208402D02*
X208799D01*
X203150D02*
X207387D01*
X200899D02*
X202267D01*
X198030D02*
X199443D01*
X195824D02*
X197192D01*
X193617D02*
X194985D01*
X190748D02*
X192160D01*
X187173D02*
X188541D01*
X179670D02*
X183642D01*
X176581D02*
X178788D01*
X173535D02*
X174948D01*
X171284D02*
X172697D01*
X166518D02*
X170490D01*
X210388Y143032D02*
X211712D01*
X208446D02*
X208755D01*
X203106D02*
X207387D01*
X200899D02*
X202267D01*
X198030D02*
X199443D01*
X195824D02*
X197192D01*
X193617D02*
X194985D01*
X190748D02*
X192160D01*
X187173D02*
X188541D01*
X179670D02*
X183598D01*
X176537D02*
X178788D01*
X173535D02*
X174948D01*
X171284D02*
X172697D01*
X166518D02*
X170446D01*
X210388Y143076D02*
X211668D01*
X208490D02*
X208667D01*
X203106D02*
X207387D01*
X200899D02*
X202267D01*
X198030D02*
X199443D01*
X195824D02*
X197192D01*
X193617D02*
X194985D01*
X190748D02*
X192160D01*
X187173D02*
X188541D01*
X179670D02*
X181082D01*
X176493D02*
X178788D01*
X173535D02*
X174948D01*
X171284D02*
X172697D01*
X166518D02*
X167886D01*
X210344Y143120D02*
X211668D01*
X203062D02*
X207387D01*
X200899D02*
X202267D01*
X198030D02*
X199443D01*
X195824D02*
X197192D01*
X193617D02*
X194985D01*
X190748D02*
X192160D01*
X187173D02*
X188541D01*
X179670D02*
X181038D01*
X176493D02*
X178788D01*
X173535D02*
X174948D01*
X171284D02*
X172697D01*
X166518D02*
X167886D01*
X210300Y143164D02*
X211668D01*
X203062D02*
X207387D01*
X200899D02*
X202267D01*
X198030D02*
X199443D01*
X195824D02*
X197192D01*
X193617D02*
X194985D01*
X190748D02*
X192160D01*
X187173D02*
X188541D01*
X179670D02*
X181038D01*
X176448D02*
X178788D01*
X173535D02*
X174948D01*
X171284D02*
X172697D01*
X166518D02*
X167886D01*
X210256Y143208D02*
X211668D01*
X203017D02*
X207387D01*
X200899D02*
X202267D01*
X198030D02*
X199443D01*
X195824D02*
X197192D01*
X193617D02*
X194985D01*
X190748D02*
X192160D01*
X187173D02*
X188541D01*
X179670D02*
X181038D01*
X176404D02*
X178788D01*
X173535D02*
X174948D01*
X171284D02*
X172697D01*
X166518D02*
X167886D01*
X210167Y143252D02*
X211668D01*
X205268D02*
X207387D01*
X203017D02*
X205092D01*
X200899D02*
X202267D01*
X198030D02*
X199443D01*
X195824D02*
X197192D01*
X193617D02*
X194985D01*
X190748D02*
X192160D01*
X187173D02*
X188541D01*
X179670D02*
X181038D01*
X176404D02*
X178788D01*
X173535D02*
X174948D01*
X171284D02*
X172697D01*
X166518D02*
X167886D01*
X210079Y143297D02*
X211668D01*
X205445D02*
X207387D01*
X203017D02*
X204871D01*
X200899D02*
X202267D01*
X198030D02*
X199443D01*
X195824D02*
X197192D01*
X193617D02*
X194985D01*
X190748D02*
X192160D01*
X187173D02*
X188541D01*
X179670D02*
X181038D01*
X176360D02*
X178788D01*
X173535D02*
X174948D01*
X171284D02*
X172697D01*
X166518D02*
X167886D01*
X209947Y143341D02*
X211668D01*
X205533D02*
X207387D01*
X202973D02*
X204783D01*
X200899D02*
X202267D01*
X198030D02*
X199443D01*
X195824D02*
X197192D01*
X193617D02*
X194985D01*
X190748D02*
X192160D01*
X187173D02*
X188541D01*
X179670D02*
X181038D01*
X176316D02*
X178788D01*
X173535D02*
X174948D01*
X171284D02*
X172697D01*
X166518D02*
X167886D01*
X209814Y143385D02*
X211624D01*
X205622D02*
X207387D01*
X202973D02*
X204695D01*
X200899D02*
X202267D01*
X198030D02*
X199443D01*
X195824D02*
X197192D01*
X193617D02*
X194985D01*
X190748D02*
X192160D01*
X187173D02*
X188541D01*
X179670D02*
X181038D01*
X176272D02*
X178788D01*
X173535D02*
X174948D01*
X171284D02*
X172697D01*
X166518D02*
X167886D01*
X209682Y143429D02*
X211624D01*
X205666D02*
X207387D01*
X202973D02*
X204650D01*
X200899D02*
X202267D01*
X198030D02*
X199443D01*
X195824D02*
X197192D01*
X193617D02*
X194985D01*
X190748D02*
X192160D01*
X187173D02*
X188541D01*
X179670D02*
X181038D01*
X176272D02*
X178788D01*
X173535D02*
X174948D01*
X171284D02*
X172697D01*
X166518D02*
X167886D01*
X209549Y143473D02*
X211624D01*
X205754D02*
X207387D01*
X202973D02*
X204606D01*
X200899D02*
X202267D01*
X198030D02*
X199443D01*
X195824D02*
X197192D01*
X193617D02*
X194985D01*
X190748D02*
X192160D01*
X187173D02*
X188541D01*
X179670D02*
X181038D01*
X176228D02*
X178788D01*
X173535D02*
X174948D01*
X171284D02*
X172697D01*
X166518D02*
X167886D01*
X209373Y143517D02*
X211580D01*
X205754D02*
X207387D01*
X202929D02*
X204562D01*
X200899D02*
X202267D01*
X198030D02*
X199443D01*
X195824D02*
X197192D01*
X193617D02*
X194985D01*
X190748D02*
X192160D01*
X187173D02*
X188541D01*
X179670D02*
X181038D01*
X176183D02*
X178788D01*
X173535D02*
X174948D01*
X171284D02*
X172697D01*
X166518D02*
X167886D01*
X209241Y143561D02*
X211580D01*
X205798D02*
X207387D01*
X202929D02*
X204518D01*
X200899D02*
X202267D01*
X198030D02*
X199443D01*
X195824D02*
X197192D01*
X193617D02*
X194985D01*
X190748D02*
X192160D01*
X187173D02*
X188541D01*
X179670D02*
X181038D01*
X176139D02*
X178788D01*
X173535D02*
X174948D01*
X171284D02*
X172697D01*
X166518D02*
X167886D01*
X209108Y143605D02*
X211536D01*
X205842D02*
X207387D01*
X202929D02*
X204474D01*
X200899D02*
X202267D01*
X198030D02*
X199443D01*
X195824D02*
X197192D01*
X193617D02*
X194985D01*
X190748D02*
X192160D01*
X187173D02*
X188541D01*
X179670D02*
X181038D01*
X176139D02*
X178788D01*
X173535D02*
X174948D01*
X171284D02*
X172697D01*
X166518D02*
X167886D01*
X209020Y143650D02*
X211536D01*
X205886D02*
X207387D01*
X202929D02*
X204430D01*
X200899D02*
X202267D01*
X198030D02*
X199443D01*
X195824D02*
X197192D01*
X193617D02*
X194985D01*
X190748D02*
X192160D01*
X187173D02*
X188541D01*
X179670D02*
X181038D01*
X176095D02*
X178788D01*
X173535D02*
X174948D01*
X171284D02*
X172697D01*
X166518D02*
X167886D01*
X208888Y143694D02*
X211491D01*
X205886D02*
X207387D01*
X202929D02*
X204430D01*
X200899D02*
X202267D01*
X198030D02*
X199443D01*
X195824D02*
X197192D01*
X193617D02*
X194985D01*
X190748D02*
X192160D01*
X187173D02*
X188541D01*
X179670D02*
X181038D01*
X176051D02*
X178788D01*
X173535D02*
X174948D01*
X171284D02*
X172697D01*
X166518D02*
X167886D01*
X208799Y143738D02*
X211447D01*
X205930D02*
X207387D01*
X202885D02*
X204386D01*
X200899D02*
X202267D01*
X198030D02*
X199443D01*
X195824D02*
X197192D01*
X193617D02*
X194985D01*
X190748D02*
X192160D01*
X187173D02*
X188541D01*
X179670D02*
X181038D01*
X176007D02*
X178788D01*
X173535D02*
X174948D01*
X171284D02*
X172697D01*
X166518D02*
X167886D01*
X208755Y143782D02*
X211403D01*
X205930D02*
X207387D01*
X202885D02*
X204386D01*
X200899D02*
X202267D01*
X198030D02*
X199443D01*
X195824D02*
X197192D01*
X193617D02*
X194985D01*
X190748D02*
X192160D01*
X187173D02*
X188541D01*
X179670D02*
X181038D01*
X176007D02*
X178788D01*
X173535D02*
X174948D01*
X171284D02*
X172697D01*
X166518D02*
X167886D01*
X208667Y143826D02*
X211403D01*
X205975D02*
X207387D01*
X202885D02*
X204386D01*
X200899D02*
X202267D01*
X198030D02*
X199443D01*
X195824D02*
X197192D01*
X193617D02*
X194985D01*
X190748D02*
X192160D01*
X187173D02*
X188541D01*
X179670D02*
X181038D01*
X175963D02*
X178788D01*
X173535D02*
X174948D01*
X171284D02*
X172697D01*
X166518D02*
X167886D01*
X208623Y143870D02*
X211359D01*
X205975D02*
X207387D01*
X202885D02*
X204342D01*
X200899D02*
X202267D01*
X198030D02*
X199443D01*
X195824D02*
X197192D01*
X193617D02*
X194985D01*
X190748D02*
X192160D01*
X187173D02*
X188541D01*
X179670D02*
X181038D01*
X175919D02*
X178788D01*
X173535D02*
X174948D01*
X171284D02*
X172697D01*
X166518D02*
X167886D01*
X208534Y143914D02*
X211315D01*
X205975D02*
X207387D01*
X202885D02*
X204342D01*
X200899D02*
X202267D01*
X198030D02*
X199443D01*
X195824D02*
X197192D01*
X193617D02*
X194985D01*
X190748D02*
X192160D01*
X187173D02*
X188541D01*
X179670D02*
X181038D01*
X175875D02*
X178788D01*
X173535D02*
X174948D01*
X171284D02*
X172697D01*
X166518D02*
X167886D01*
X208490Y143959D02*
X211227D01*
X205975D02*
X207387D01*
X202885D02*
X204342D01*
X200899D02*
X202267D01*
X198030D02*
X199443D01*
X195824D02*
X197192D01*
X193617D02*
X194985D01*
X190748D02*
X192160D01*
X187173D02*
X188541D01*
X179670D02*
X181038D01*
X175875D02*
X178788D01*
X173535D02*
X174948D01*
X171284D02*
X172697D01*
X166518D02*
X167886D01*
X208446Y144003D02*
X211182D01*
X205975D02*
X207387D01*
X202885D02*
X204342D01*
X200899D02*
X202267D01*
X198030D02*
X199443D01*
X195824D02*
X197192D01*
X193617D02*
X194985D01*
X190748D02*
X192160D01*
X187173D02*
X188541D01*
X179670D02*
X183510D01*
X175830D02*
X178788D01*
X173535D02*
X174948D01*
X171284D02*
X172697D01*
X166518D02*
X167886D01*
X208402Y144047D02*
X211094D01*
X205975D02*
X207387D01*
X202885D02*
X204342D01*
X200899D02*
X202267D01*
X198030D02*
X199443D01*
X195824D02*
X197192D01*
X193617D02*
X194985D01*
X190748D02*
X192160D01*
X187173D02*
X188541D01*
X179670D02*
X183598D01*
X175786D02*
X178788D01*
X173535D02*
X174948D01*
X171284D02*
X172697D01*
X166518D02*
X167886D01*
X208358Y144091D02*
X211050D01*
X205975D02*
X207387D01*
X202885D02*
X204342D01*
X200899D02*
X202267D01*
X198030D02*
X199443D01*
X195824D02*
X197192D01*
X193617D02*
X194985D01*
X190748D02*
X192160D01*
X187173D02*
X188541D01*
X179670D02*
X183642D01*
X175742D02*
X178788D01*
X173535D02*
X174948D01*
X171284D02*
X172697D01*
X166518D02*
X167886D01*
X208314Y144135D02*
X210962D01*
X205975D02*
X207387D01*
X202885D02*
X204342D01*
X200899D02*
X202267D01*
X198030D02*
X199443D01*
X195824D02*
X197192D01*
X193617D02*
X194985D01*
X190748D02*
X192160D01*
X187173D02*
X188541D01*
X179670D02*
X183686D01*
X175742D02*
X178788D01*
X173535D02*
X174948D01*
X171284D02*
X172697D01*
X166518D02*
X167886D01*
X208314Y144179D02*
X210829D01*
X205975D02*
X207387D01*
X202885D02*
X204342D01*
X200899D02*
X202267D01*
X198030D02*
X199443D01*
X195824D02*
X197192D01*
X193617D02*
X194985D01*
X190748D02*
X192160D01*
X187173D02*
X188541D01*
X179670D02*
X183686D01*
X175698D02*
X178788D01*
X173535D02*
X174948D01*
X171284D02*
X172697D01*
X166518D02*
X167886D01*
X208270Y144223D02*
X210741D01*
X205975D02*
X207387D01*
X202885D02*
X204342D01*
X200899D02*
X202267D01*
X198030D02*
X199443D01*
X195824D02*
X197192D01*
X193617D02*
X194985D01*
X190748D02*
X192160D01*
X187173D02*
X188541D01*
X179670D02*
X183731D01*
X177419D02*
X178788D01*
X175654D02*
X177375D01*
X173535D02*
X174948D01*
X171284D02*
X172697D01*
X166518D02*
X167886D01*
X208270Y144267D02*
X210565D01*
X205975D02*
X207387D01*
X202885D02*
X204342D01*
X200899D02*
X202267D01*
X198030D02*
X199443D01*
X195824D02*
X197192D01*
X193573D02*
X194985D01*
X190748D02*
X192160D01*
X187173D02*
X188541D01*
X179670D02*
X183731D01*
X177419D02*
X178788D01*
X175610D02*
X177375D01*
X173535D02*
X174948D01*
X171284D02*
X172697D01*
X166518D02*
X167886D01*
X208225Y144312D02*
X210432D01*
X205975D02*
X207387D01*
X202885D02*
X204342D01*
X200899D02*
X202267D01*
X198030D02*
X199443D01*
X195824D02*
X197192D01*
X193573D02*
X194985D01*
X190748D02*
X192160D01*
X187173D02*
X188541D01*
X179670D02*
X183731D01*
X177419D02*
X178788D01*
X175610D02*
X177331D01*
X173535D02*
X174948D01*
X171284D02*
X172697D01*
X166518D02*
X167886D01*
X208225Y144356D02*
X210300D01*
X205930D02*
X207387D01*
X202885D02*
X204386D01*
X200899D02*
X202267D01*
X198030D02*
X199443D01*
X195824D02*
X197192D01*
X193573D02*
X194985D01*
X190748D02*
X192160D01*
X187173D02*
X188541D01*
X179670D02*
X183731D01*
X177419D02*
X178788D01*
X175566D02*
X177287D01*
X173535D02*
X174948D01*
X171284D02*
X172697D01*
X166518D02*
X167886D01*
X208181Y144400D02*
X210123D01*
X205930D02*
X207387D01*
X202885D02*
X204386D01*
X200855D02*
X202267D01*
X198030D02*
X199443D01*
X195824D02*
X197192D01*
X193573D02*
X194985D01*
X190748D02*
X192160D01*
X187173D02*
X188541D01*
X179670D02*
X183731D01*
X177419D02*
X178788D01*
X175522D02*
X177243D01*
X173535D02*
X174948D01*
X171284D02*
X172697D01*
X166518D02*
X167886D01*
X208181Y144444D02*
X209947D01*
X205930D02*
X207387D01*
X202929D02*
X204386D01*
X200855D02*
X202267D01*
X198030D02*
X199487D01*
X195824D02*
X197192D01*
X193573D02*
X194985D01*
X190748D02*
X192204D01*
X187173D02*
X188541D01*
X179670D02*
X183731D01*
X177419D02*
X178788D01*
X175522D02*
X177243D01*
X173535D02*
X174948D01*
X171284D02*
X172697D01*
X166518D02*
X167886D01*
X208181Y144488D02*
X209814D01*
X205886D02*
X207387D01*
X202929D02*
X204430D01*
X200855D02*
X202267D01*
X198030D02*
X199487D01*
X195824D02*
X197192D01*
X193573D02*
X194985D01*
X190748D02*
X192204D01*
X187173D02*
X188541D01*
X179670D02*
X183731D01*
X177419D02*
X178788D01*
X175477D02*
X177199D01*
X173535D02*
X174948D01*
X171284D02*
X172697D01*
X166518D02*
X167886D01*
X208137Y144532D02*
X209682D01*
X205842D02*
X207387D01*
X202929D02*
X204474D01*
X200811D02*
X202267D01*
X198030D02*
X199487D01*
X195824D02*
X197192D01*
X193528D02*
X194985D01*
X190748D02*
X192204D01*
X187173D02*
X188541D01*
X179670D02*
X183731D01*
X177419D02*
X178788D01*
X175433D02*
X177155D01*
X173535D02*
X174948D01*
X171284D02*
X172697D01*
X166518D02*
X167886D01*
X208137Y144577D02*
X209594D01*
X205842D02*
X207387D01*
X202929D02*
X204474D01*
X200811D02*
X202267D01*
X198030D02*
X199531D01*
X195824D02*
X197192D01*
X193528D02*
X194985D01*
X190748D02*
X192204D01*
X187173D02*
X188541D01*
X179670D02*
X183731D01*
X177419D02*
X178788D01*
X175389D02*
X177110D01*
X173535D02*
X174948D01*
X171284D02*
X172697D01*
X166518D02*
X167886D01*
X208137Y144621D02*
X209549D01*
X205798D02*
X207387D01*
X202929D02*
X204518D01*
X200767D02*
X202267D01*
X198030D02*
X199531D01*
X195824D02*
X197192D01*
X193484D02*
X194985D01*
X190748D02*
X192249D01*
X187173D02*
X188541D01*
X179670D02*
X183731D01*
X177419D02*
X178788D01*
X175389D02*
X177110D01*
X173535D02*
X174948D01*
X171284D02*
X172697D01*
X166518D02*
X167886D01*
X208137Y144665D02*
X209505D01*
X205754D02*
X207387D01*
X202929D02*
X204562D01*
X200767D02*
X202267D01*
X198030D02*
X199575D01*
X195824D02*
X197192D01*
X193484D02*
X194985D01*
X190748D02*
X192249D01*
X187173D02*
X188541D01*
X179670D02*
X183731D01*
X177419D02*
X178788D01*
X175345D02*
X177066D01*
X173535D02*
X174948D01*
X171284D02*
X172697D01*
X166518D02*
X167886D01*
X208137Y144709D02*
X209461D01*
X205710D02*
X207387D01*
X202973D02*
X204606D01*
X200723D02*
X202223D01*
X198030D02*
X199619D01*
X195824D02*
X197192D01*
X193440D02*
X194985D01*
X190748D02*
X192293D01*
X187173D02*
X188541D01*
X179670D02*
X183731D01*
X177419D02*
X178788D01*
X175301D02*
X177022D01*
X173535D02*
X174948D01*
X171284D02*
X172697D01*
X166518D02*
X167886D01*
X208137Y144753D02*
X209417D01*
X205666D02*
X207387D01*
X202973D02*
X204650D01*
X200678D02*
X202223D01*
X198030D02*
X199663D01*
X195824D02*
X197192D01*
X193440D02*
X194985D01*
X190748D02*
X192337D01*
X187173D02*
X188541D01*
X179670D02*
X183731D01*
X177419D02*
X178788D01*
X175257D02*
X176978D01*
X173535D02*
X174948D01*
X171284D02*
X172697D01*
X166518D02*
X167886D01*
X208137Y144797D02*
X209417D01*
X205577D02*
X207387D01*
X202973D02*
X204739D01*
X200634D02*
X202223D01*
X198030D02*
X199707D01*
X195824D02*
X197192D01*
X193396D02*
X194941D01*
X190748D02*
X192381D01*
X187173D02*
X188541D01*
X179670D02*
X183731D01*
X177419D02*
X178788D01*
X175257D02*
X176978D01*
X173535D02*
X174948D01*
X171284D02*
X172697D01*
X166518D02*
X167886D01*
X210874Y144841D02*
X211050D01*
X208093D02*
X209417D01*
X205489D02*
X207387D01*
X203017D02*
X204827D01*
X200590D02*
X202223D01*
X198030D02*
X199751D01*
X195824D02*
X197192D01*
X193308D02*
X194941D01*
X190748D02*
X192425D01*
X187173D02*
X188541D01*
X179670D02*
X183731D01*
X177419D02*
X178788D01*
X175213D02*
X176934D01*
X173535D02*
X174948D01*
X171284D02*
X172697D01*
X166518D02*
X167886D01*
X210829Y144885D02*
X211094D01*
X208093D02*
X209417D01*
X205401D02*
X207387D01*
X203017D02*
X204915D01*
X200502D02*
X202223D01*
X198030D02*
X199840D01*
X195824D02*
X197192D01*
X193264D02*
X194941D01*
X190748D02*
X192469D01*
X187173D02*
X188541D01*
X179670D02*
X183731D01*
X177419D02*
X178788D01*
X175168D02*
X176890D01*
X173535D02*
X174948D01*
X171284D02*
X172697D01*
X166518D02*
X167886D01*
X210741Y144930D02*
X211138D01*
X208137D02*
X209417D01*
X203017D02*
X207387D01*
X200414D02*
X202223D01*
X198030D02*
X199928D01*
X195824D02*
X197192D01*
X193175D02*
X194941D01*
X190748D02*
X192558D01*
X187173D02*
X188541D01*
X179670D02*
X183731D01*
X177419D02*
X178788D01*
X175124D02*
X176846D01*
X173535D02*
X174948D01*
X171284D02*
X172697D01*
X166518D02*
X167886D01*
X210697Y144974D02*
X211182D01*
X208137D02*
X209461D01*
X203062D02*
X207387D01*
X198030D02*
X202179D01*
X195824D02*
X197192D01*
X193043D02*
X194941D01*
X190748D02*
X192690D01*
X187173D02*
X188541D01*
X179670D02*
X183731D01*
X177419D02*
X178788D01*
X175124D02*
X176846D01*
X173535D02*
X174948D01*
X171284D02*
X172697D01*
X166518D02*
X167886D01*
X210609Y145018D02*
X211227D01*
X208137D02*
X209461D01*
X203062D02*
X207387D01*
X198030D02*
X202179D01*
X195824D02*
X197192D01*
X190748D02*
X194941D01*
X187173D02*
X188541D01*
X179670D02*
X183731D01*
X177419D02*
X178788D01*
X175080D02*
X176801D01*
X173535D02*
X174948D01*
X171284D02*
X172697D01*
X166518D02*
X167886D01*
X210521Y145062D02*
X211271D01*
X208137D02*
X209505D01*
X203106D02*
X207387D01*
X198030D02*
X202179D01*
X195824D02*
X197192D01*
X190748D02*
X194897D01*
X187173D02*
X188541D01*
X179670D02*
X183731D01*
X177419D02*
X178788D01*
X175036D02*
X176757D01*
X173535D02*
X174948D01*
X171284D02*
X172697D01*
X166518D02*
X167886D01*
X210388Y145106D02*
X211315D01*
X208137D02*
X209549D01*
X203106D02*
X207387D01*
X198030D02*
X202179D01*
X195824D02*
X197192D01*
X190748D02*
X194897D01*
X187173D02*
X188541D01*
X179670D02*
X183731D01*
X177419D02*
X178788D01*
X174992D02*
X176757D01*
X173535D02*
X174948D01*
X171284D02*
X172697D01*
X166518D02*
X167886D01*
X210256Y145150D02*
X211359D01*
X208137D02*
X209638D01*
X203150D02*
X207387D01*
X198030D02*
X202135D01*
X195824D02*
X197192D01*
X190748D02*
X194897D01*
X187173D02*
X188541D01*
X179670D02*
X183731D01*
X177419D02*
X178788D01*
X174992D02*
X176713D01*
X173535D02*
X174948D01*
X171284D02*
X172697D01*
X166518D02*
X167886D01*
X208181Y145194D02*
X211403D01*
X203150D02*
X207387D01*
X198030D02*
X202135D01*
X195824D02*
X197192D01*
X190748D02*
X194853D01*
X187173D02*
X188541D01*
X179670D02*
X183731D01*
X177419D02*
X178788D01*
X173535D02*
X176669D01*
X171284D02*
X172697D01*
X166518D02*
X167886D01*
X208181Y145238D02*
X211447D01*
X203194D02*
X207387D01*
X198030D02*
X202135D01*
X195824D02*
X197192D01*
X190748D02*
X194853D01*
X187173D02*
X188541D01*
X179670D02*
X183686D01*
X177419D02*
X178788D01*
X173535D02*
X176625D01*
X171284D02*
X172697D01*
X166518D02*
X167886D01*
X208181Y145283D02*
X211491D01*
X203194D02*
X207387D01*
X198030D02*
X202091D01*
X195824D02*
X197192D01*
X190748D02*
X194853D01*
X187173D02*
X188541D01*
X179670D02*
X183686D01*
X177419D02*
X178788D01*
X173535D02*
X176625D01*
X171284D02*
X172697D01*
X166518D02*
X167886D01*
X208225Y145327D02*
X211536D01*
X203238D02*
X207387D01*
X198030D02*
X202091D01*
X195824D02*
X197192D01*
X190748D02*
X194808D01*
X187173D02*
X188541D01*
X179670D02*
X183642D01*
X177419D02*
X178788D01*
X173535D02*
X176581D01*
X171284D02*
X172697D01*
X166518D02*
X167886D01*
X208225Y145371D02*
X211580D01*
X203238D02*
X207387D01*
X198030D02*
X202091D01*
X195824D02*
X197192D01*
X190748D02*
X194808D01*
X187173D02*
X188541D01*
X179670D02*
X183554D01*
X177419D02*
X178788D01*
X173535D02*
X176537D01*
X171284D02*
X172697D01*
X166518D02*
X167886D01*
X208270Y145415D02*
X211580D01*
X203282D02*
X207387D01*
X198030D02*
X202047D01*
X195824D02*
X197192D01*
X190748D02*
X194764D01*
X187173D02*
X188541D01*
X179670D02*
X181038D01*
X177419D02*
X178788D01*
X173535D02*
X176493D01*
X171284D02*
X172697D01*
X166518D02*
X167886D01*
X208270Y145459D02*
X211580D01*
X203327D02*
X207387D01*
X198030D02*
X202047D01*
X195824D02*
X197192D01*
X192204D02*
X194764D01*
X190748D02*
X192160D01*
X187173D02*
X188541D01*
X179670D02*
X181038D01*
X177419D02*
X178788D01*
X173535D02*
X176493D01*
X171284D02*
X172697D01*
X166518D02*
X167886D01*
X208314Y145503D02*
X211624D01*
X203371D02*
X207387D01*
X198030D02*
X202002D01*
X195824D02*
X197192D01*
X192204D02*
X194720D01*
X190748D02*
X192160D01*
X187173D02*
X188541D01*
X179670D02*
X181038D01*
X177419D02*
X178788D01*
X173535D02*
X176448D01*
X171284D02*
X172697D01*
X166518D02*
X167886D01*
X208358Y145547D02*
X211580D01*
X203371D02*
X207387D01*
X199487D02*
X201958D01*
X198030D02*
X199443D01*
X195824D02*
X197192D01*
X192249D02*
X194720D01*
X190748D02*
X192160D01*
X187173D02*
X188541D01*
X179670D02*
X181038D01*
X177419D02*
X178788D01*
X173535D02*
X176404D01*
X171284D02*
X172697D01*
X166518D02*
X167886D01*
X208358Y145592D02*
X211580D01*
X203415D02*
X207387D01*
X199531D02*
X201958D01*
X198030D02*
X199443D01*
X195824D02*
X197192D01*
X192249D02*
X194676D01*
X190748D02*
X192160D01*
X187173D02*
X188541D01*
X179670D02*
X181038D01*
X177419D02*
X178788D01*
X173535D02*
X176360D01*
X171284D02*
X172697D01*
X166518D02*
X167886D01*
X208402Y145636D02*
X211536D01*
X203459D02*
X207387D01*
X199531D02*
X201914D01*
X198030D02*
X199443D01*
X195824D02*
X197192D01*
X192293D02*
X194676D01*
X190748D02*
X192160D01*
X187173D02*
X188541D01*
X179670D02*
X181038D01*
X177419D02*
X178788D01*
X173535D02*
X176360D01*
X171284D02*
X172697D01*
X166518D02*
X167886D01*
X208446Y145680D02*
X211536D01*
X203503D02*
X207387D01*
X199575D02*
X201870D01*
X198030D02*
X199443D01*
X195824D02*
X197192D01*
X192293D02*
X194632D01*
X190748D02*
X192160D01*
X187173D02*
X188541D01*
X179670D02*
X181038D01*
X177419D02*
X178788D01*
X173535D02*
X176316D01*
X171284D02*
X172697D01*
X166518D02*
X167886D01*
X208490Y145724D02*
X211447D01*
X203547D02*
X207387D01*
X199619D02*
X201870D01*
X198030D02*
X199443D01*
X195824D02*
X197192D01*
X192337D02*
X194588D01*
X190748D02*
X192160D01*
X187173D02*
X188541D01*
X179670D02*
X181038D01*
X177419D02*
X178788D01*
X173535D02*
X176272D01*
X171284D02*
X172697D01*
X166518D02*
X167886D01*
X208534Y145768D02*
X211403D01*
X205975D02*
X207387D01*
X203591D02*
X205930D01*
X199619D02*
X201826D01*
X198030D02*
X199443D01*
X195824D02*
X197192D01*
X192337D02*
X194544D01*
X190748D02*
X192160D01*
X187173D02*
X188541D01*
X179670D02*
X181038D01*
X177419D02*
X178788D01*
X173535D02*
X176228D01*
X171284D02*
X172697D01*
X166518D02*
X167886D01*
X208578Y145812D02*
X211359D01*
X205975D02*
X207387D01*
X203635D02*
X205886D01*
X199663D02*
X201782D01*
X198030D02*
X199443D01*
X195824D02*
X197192D01*
X192381D02*
X194500D01*
X190748D02*
X192160D01*
X187173D02*
X188541D01*
X179670D02*
X181038D01*
X177419D02*
X178788D01*
X173535D02*
X176228D01*
X171284D02*
X172697D01*
X166518D02*
X167886D01*
X208667Y145856D02*
X211271D01*
X205975D02*
X207387D01*
X203724D02*
X205842D01*
X199707D02*
X201738D01*
X198030D02*
X199443D01*
X195824D02*
X197192D01*
X192425D02*
X194455D01*
X190748D02*
X192160D01*
X187173D02*
X188541D01*
X179670D02*
X181038D01*
X177419D02*
X178788D01*
X173535D02*
X176183D01*
X171284D02*
X172697D01*
X166518D02*
X167886D01*
X208711Y145900D02*
X211182D01*
X205975D02*
X207387D01*
X203768D02*
X205798D01*
X199751D02*
X201694D01*
X198030D02*
X199443D01*
X195824D02*
X197192D01*
X192469D02*
X194411D01*
X190748D02*
X192160D01*
X187173D02*
X188541D01*
X179670D02*
X181038D01*
X177419D02*
X178788D01*
X173535D02*
X176139D01*
X171284D02*
X172697D01*
X166518D02*
X167886D01*
X208799Y145945D02*
X211094D01*
X205975D02*
X207387D01*
X203812D02*
X205754D01*
X199796D02*
X201649D01*
X198030D02*
X199443D01*
X195824D02*
X197192D01*
X192513D02*
X194367D01*
X190748D02*
X192160D01*
X187173D02*
X188541D01*
X179670D02*
X181038D01*
X177419D02*
X178788D01*
X173535D02*
X176095D01*
X171284D02*
X172697D01*
X166518D02*
X167886D01*
X208888Y145989D02*
X211006D01*
X205975D02*
X207387D01*
X203900D02*
X205710D01*
X199884D02*
X201561D01*
X198074D02*
X199443D01*
X195824D02*
X197192D01*
X192558D02*
X194323D01*
X190748D02*
X192160D01*
X187173D02*
X188541D01*
X179670D02*
X181038D01*
X177419D02*
X178788D01*
X173535D02*
X176095D01*
X171284D02*
X172697D01*
X166518D02*
X167886D01*
X208976Y146033D02*
X210918D01*
X206019D02*
X207387D01*
X203989D02*
X205622D01*
X199928D02*
X201517D01*
X198074D02*
X199443D01*
X195868D02*
X197148D01*
X192646D02*
X194235D01*
X190748D02*
X192160D01*
X187173D02*
X188541D01*
X179670D02*
X181038D01*
X177419D02*
X178788D01*
X173535D02*
X176051D01*
X171284D02*
X172697D01*
X166518D02*
X167886D01*
X209064Y146077D02*
X210785D01*
X206019D02*
X207343D01*
X204077D02*
X205577D01*
X200016D02*
X201429D01*
X198074D02*
X199399D01*
X195868D02*
X197148D01*
X192690D02*
X194146D01*
X190748D02*
X192160D01*
X187173D02*
X188541D01*
X179670D02*
X181038D01*
X177419D02*
X178788D01*
X173535D02*
X176007D01*
X171284D02*
X172697D01*
X166518D02*
X167886D01*
X209196Y146121D02*
X210609D01*
X206063D02*
X207343D01*
X204165D02*
X205489D01*
X200105D02*
X201340D01*
X198119D02*
X199354D01*
X195912D02*
X197103D01*
X192778D02*
X194058D01*
X190748D02*
X192160D01*
X187173D02*
X188541D01*
X179670D02*
X181038D01*
X177419D02*
X178788D01*
X173535D02*
X176007D01*
X171284D02*
X172697D01*
X166518D02*
X167886D01*
X209417Y146165D02*
X210388D01*
X206107D02*
X207255D01*
X204297D02*
X205357D01*
X200193D02*
X201208D01*
X198207D02*
X199266D01*
X196000D02*
X197015D01*
X192867D02*
X193970D01*
X190748D02*
X192160D01*
X187173D02*
X188541D01*
X179670D02*
X181038D01*
X177419D02*
X178788D01*
X173535D02*
X175963D01*
X171284D02*
X172697D01*
X166518D02*
X167886D01*
X204474Y146209D02*
X205224D01*
X200325D02*
X201076D01*
X192999D02*
X193793D01*
X190748D02*
X192160D01*
X187173D02*
X188541D01*
X179670D02*
X181038D01*
X177419D02*
X178788D01*
X173535D02*
X175919D01*
X171284D02*
X172697D01*
X166518D02*
X167886D01*
X190748Y146254D02*
X192160D01*
X187173D02*
X188541D01*
X179670D02*
X181038D01*
X177419D02*
X178788D01*
X173535D02*
X175875D01*
X171284D02*
X172697D01*
X166518D02*
X167886D01*
X190748Y146298D02*
X192160D01*
X187173D02*
X188541D01*
X179670D02*
X181038D01*
X177419D02*
X178788D01*
X173535D02*
X175875D01*
X171284D02*
X172697D01*
X166518D02*
X167886D01*
X190748Y146342D02*
X192160D01*
X185717D02*
X189998D01*
X179670D02*
X183554D01*
X177419D02*
X178788D01*
X173535D02*
X175830D01*
X171284D02*
X172697D01*
X166518D02*
X167886D01*
X190748Y146386D02*
X192160D01*
X185628D02*
X190086D01*
X179670D02*
X183642D01*
X177419D02*
X178788D01*
X173535D02*
X175786D01*
X171284D02*
X172697D01*
X166518D02*
X167886D01*
X190748Y146430D02*
X192160D01*
X185584D02*
X190130D01*
X179670D02*
X183686D01*
X177419D02*
X178788D01*
X173535D02*
X175742D01*
X171284D02*
X172697D01*
X166518D02*
X167886D01*
X190748Y146474D02*
X192160D01*
X185540D02*
X190130D01*
X179670D02*
X183686D01*
X177419D02*
X178788D01*
X173535D02*
X175742D01*
X171284D02*
X172697D01*
X166518D02*
X167886D01*
X190748Y146518D02*
X192160D01*
X185540D02*
X190174D01*
X179670D02*
X183731D01*
X177419D02*
X178788D01*
X173535D02*
X175698D01*
X171284D02*
X172697D01*
X166518D02*
X167886D01*
X190748Y146563D02*
X192160D01*
X185540D02*
X190174D01*
X179670D02*
X183731D01*
X177419D02*
X178788D01*
X173535D02*
X175654D01*
X171284D02*
X172697D01*
X166518D02*
X167886D01*
X190748Y146607D02*
X192160D01*
X185496D02*
X190174D01*
X179670D02*
X183731D01*
X177419D02*
X178788D01*
X173535D02*
X175610D01*
X171284D02*
X172697D01*
X166518D02*
X167886D01*
X196441Y146651D02*
X196574D01*
X190748D02*
X192160D01*
X185496D02*
X190174D01*
X179670D02*
X183731D01*
X177419D02*
X178788D01*
X173535D02*
X175610D01*
X171284D02*
X172697D01*
X166518D02*
X167886D01*
X196221Y146695D02*
X196794D01*
X190748D02*
X192160D01*
X185496D02*
X190174D01*
X179670D02*
X183731D01*
X177419D02*
X178788D01*
X173535D02*
X175566D01*
X171284D02*
X172697D01*
X166518D02*
X167886D01*
X196133Y146739D02*
X196883D01*
X190748D02*
X192160D01*
X185496D02*
X190174D01*
X179670D02*
X183731D01*
X177419D02*
X178788D01*
X173535D02*
X175522D01*
X171284D02*
X172697D01*
X166518D02*
X167886D01*
X196044Y146783D02*
X196971D01*
X190748D02*
X192160D01*
X185496D02*
X190174D01*
X179670D02*
X183731D01*
X177419D02*
X178788D01*
X173535D02*
X175477D01*
X171284D02*
X172697D01*
X166518D02*
X167886D01*
X196000Y146827D02*
X197015D01*
X190748D02*
X192160D01*
X185496D02*
X190174D01*
X179670D02*
X183731D01*
X177419D02*
X178788D01*
X173535D02*
X175477D01*
X171284D02*
X172697D01*
X166518D02*
X167886D01*
X195956Y146871D02*
X197059D01*
X190748D02*
X192160D01*
X185496D02*
X190174D01*
X179670D02*
X183731D01*
X177419D02*
X178788D01*
X173535D02*
X175433D01*
X171284D02*
X172697D01*
X166518D02*
X167886D01*
X195912Y146916D02*
X197103D01*
X190748D02*
X192160D01*
X185496D02*
X190174D01*
X179670D02*
X183731D01*
X177419D02*
X178788D01*
X173535D02*
X175389D01*
X171284D02*
X172697D01*
X166518D02*
X167886D01*
X195868Y146960D02*
X197148D01*
X190748D02*
X192160D01*
X185496D02*
X190174D01*
X179670D02*
X183731D01*
X177419D02*
X178788D01*
X173535D02*
X175345D01*
X171284D02*
X172697D01*
X166518D02*
X167886D01*
X195868Y147004D02*
X197192D01*
X190748D02*
X192160D01*
X185496D02*
X190174D01*
X179670D02*
X183731D01*
X177419D02*
X178788D01*
X173535D02*
X175345D01*
X171284D02*
X172697D01*
X166518D02*
X167886D01*
X195824Y147048D02*
X197192D01*
X190748D02*
X192160D01*
X185496D02*
X190174D01*
X179670D02*
X183731D01*
X177419D02*
X178788D01*
X173535D02*
X175301D01*
X171284D02*
X172697D01*
X166518D02*
X167886D01*
X195824Y147092D02*
X197236D01*
X190748D02*
X192160D01*
X185496D02*
X190174D01*
X179670D02*
X183731D01*
X177419D02*
X178788D01*
X173535D02*
X175257D01*
X171284D02*
X172697D01*
X166518D02*
X167886D01*
X195779Y147136D02*
X197236D01*
X190748D02*
X192160D01*
X185496D02*
X190174D01*
X179670D02*
X183731D01*
X177419D02*
X178788D01*
X173535D02*
X175213D01*
X171284D02*
X172697D01*
X166518D02*
X167886D01*
X195779Y147180D02*
X197280D01*
X190748D02*
X192160D01*
X185496D02*
X190174D01*
X179670D02*
X183731D01*
X177419D02*
X178788D01*
X173535D02*
X175213D01*
X171284D02*
X172697D01*
X166518D02*
X167886D01*
X195779Y147224D02*
X197280D01*
X190748D02*
X192160D01*
X185496D02*
X190174D01*
X179670D02*
X183731D01*
X177419D02*
X178788D01*
X173535D02*
X175168D01*
X171284D02*
X172697D01*
X166518D02*
X167886D01*
X195735Y147269D02*
X197280D01*
X190748D02*
X192160D01*
X185496D02*
X190174D01*
X179670D02*
X183731D01*
X177419D02*
X178788D01*
X173535D02*
X175124D01*
X171284D02*
X172697D01*
X166518D02*
X167886D01*
X195735Y147313D02*
X197280D01*
X190748D02*
X192160D01*
X185496D02*
X190174D01*
X179670D02*
X183731D01*
X177419D02*
X178788D01*
X173535D02*
X175124D01*
X171284D02*
X172697D01*
X166518D02*
X167886D01*
X195735Y147357D02*
X197280D01*
X190748D02*
X192160D01*
X185496D02*
X190174D01*
X179670D02*
X183731D01*
X177419D02*
X178788D01*
X173535D02*
X175080D01*
X171284D02*
X172697D01*
X166518D02*
X167886D01*
X195735Y147401D02*
X197280D01*
X190748D02*
X192160D01*
X185496D02*
X190174D01*
X179670D02*
X183731D01*
X177419D02*
X178788D01*
X173535D02*
X175036D01*
X171284D02*
X172697D01*
X166518D02*
X167886D01*
X195735Y147445D02*
X197280D01*
X190748D02*
X192160D01*
X185496D02*
X190174D01*
X179670D02*
X183731D01*
X177419D02*
X178788D01*
X173535D02*
X174992D01*
X171284D02*
X172697D01*
X166518D02*
X167886D01*
X195735Y147489D02*
X197280D01*
X190748D02*
X192160D01*
X185496D02*
X190174D01*
X179670D02*
X183731D01*
X177419D02*
X178788D01*
X173535D02*
X174992D01*
X171284D02*
X172697D01*
X166518D02*
X167886D01*
X195735Y147534D02*
X197280D01*
X190748D02*
X192160D01*
X185540D02*
X190174D01*
X179670D02*
X183686D01*
X177419D02*
X178788D01*
X173580D02*
X174948D01*
X171329D02*
X172653D01*
X166518D02*
X167886D01*
X195735Y147578D02*
X197280D01*
X190792D02*
X192116D01*
X185540D02*
X190130D01*
X179714D02*
X183686D01*
X177463D02*
X178788D01*
X173580D02*
X174904D01*
X171329D02*
X172653D01*
X166518D02*
X167842D01*
X195779Y147622D02*
X197280D01*
X190792D02*
X192116D01*
X185540D02*
X190130D01*
X179758D02*
X183642D01*
X177508D02*
X178743D01*
X173624D02*
X174859D01*
X171373D02*
X172609D01*
X166562D02*
X167798D01*
X195779Y147666D02*
X197280D01*
X190836D02*
X192072D01*
X185584D02*
X190086D01*
X179803D02*
X183598D01*
X177552D02*
X178699D01*
X173668D02*
X174815D01*
X171417D02*
X172564D01*
X166606D02*
X167754D01*
X195779Y147710D02*
X197236D01*
X190925D02*
X191984D01*
X185672D02*
X189998D01*
X195824Y147754D02*
X197236D01*
X195824Y147798D02*
X197192D01*
X195868Y147842D02*
X197192D01*
X195868Y147887D02*
X197148D01*
X195912Y147931D02*
X197103D01*
X195956Y147975D02*
X197059D01*
X196000Y148019D02*
X197015D01*
X196044Y148063D02*
X196971D01*
X196133Y148107D02*
X196927D01*
X196221Y148151D02*
X196839D01*
X196353Y148196D02*
X196662D01*
D44*
X86614Y100590D02*
Y98294D01*
X87073Y97835D01*
X87992D01*
X88451Y98294D01*
Y100590D01*
X89369Y97835D02*
X90288D01*
X89828D01*
Y100590D01*
X89369Y100130D01*
X83071Y137007D02*
Y136548D01*
X83989Y135629D01*
X84908Y136548D01*
Y137007D01*
X83989Y135629D02*
Y134252D01*
X85826D02*
X86744D01*
X86285D01*
Y137007D01*
X85826Y136548D01*
X127230Y5446D02*
X126771Y5905D01*
X125853D01*
X125394Y5446D01*
Y4986D01*
X125853Y4527D01*
X126771D01*
X127230Y4068D01*
Y3609D01*
X126771Y3150D01*
X125853D01*
X125394Y3609D01*
X128149Y5905D02*
Y3150D01*
X129067Y4068D01*
X129985Y3150D01*
Y5905D01*
X130904Y5446D02*
X131363Y5905D01*
X132281D01*
X132740Y5446D01*
Y4986D01*
X132281Y4527D01*
X131822D01*
X132281D01*
X132740Y4068D01*
Y3609D01*
X132281Y3150D01*
X131363D01*
X130904Y3609D01*
X173097Y5052D02*
X172637Y5511D01*
X171719D01*
X171260Y5052D01*
Y4593D01*
X171719Y4133D01*
X172637D01*
X173097Y3674D01*
Y3215D01*
X172637Y2756D01*
X171719D01*
X171260Y3215D01*
X174015Y5511D02*
Y2756D01*
X174933Y3674D01*
X175852Y2756D01*
Y5511D01*
X178607Y2756D02*
X176770D01*
X178607Y4593D01*
Y5052D01*
X178147Y5511D01*
X177229D01*
X176770Y5052D01*
X14435Y66075D02*
X13976Y66535D01*
X13058D01*
X12598Y66075D01*
Y65616D01*
X13058Y65157D01*
X13976D01*
X14435Y64698D01*
Y64239D01*
X13976Y63779D01*
X13058D01*
X12598Y64239D01*
X15353Y66535D02*
Y63779D01*
X16272Y64698D01*
X17190Y63779D01*
Y66535D01*
X18109Y63779D02*
X19027D01*
X18568D01*
Y66535D01*
X18109Y66075D01*
X163976Y91929D02*
Y94684D01*
X164895Y93766D01*
X165813Y94684D01*
Y91929D01*
X166731D02*
X167650D01*
X167191D01*
Y94684D01*
X166731Y94225D01*
X22244Y28346D02*
Y25591D01*
X23622D01*
X24081Y26050D01*
Y27886D01*
X23622Y28346D01*
X22244D01*
X26836Y27886D02*
X26377Y28346D01*
X25458D01*
X24999Y27886D01*
Y27427D01*
X25458Y26968D01*
X26377D01*
X26836Y26509D01*
Y26050D01*
X26377Y25591D01*
X25458D01*
X24999Y26050D01*
X29591Y25591D02*
X27754D01*
X29591Y27427D01*
Y27886D01*
X29132Y28346D01*
X28213D01*
X27754Y27886D01*
X3937Y133070D02*
Y130315D01*
X5314D01*
X5774Y130774D01*
Y132611D01*
X5314Y133070D01*
X3937D01*
X8529Y132611D02*
X8070Y133070D01*
X7151D01*
X6692Y132611D01*
Y132152D01*
X7151Y131693D01*
X8070D01*
X8529Y131233D01*
Y130774D01*
X8070Y130315D01*
X7151D01*
X6692Y130774D01*
X9447Y130315D02*
X10365D01*
X9906D01*
Y133070D01*
X9447Y132611D01*
X41035Y38511D02*
Y36215D01*
X41494Y35756D01*
X42412D01*
X42871Y36215D01*
Y38511D01*
X43790Y38052D02*
X44249Y38511D01*
X45167D01*
X45626Y38052D01*
Y37593D01*
X45167Y37133D01*
X44708D01*
X45167D01*
X45626Y36674D01*
Y36215D01*
X45167Y35756D01*
X44249D01*
X43790Y36215D01*
X35827Y116338D02*
Y114042D01*
X36286Y113583D01*
X37204D01*
X37663Y114042D01*
Y116338D01*
X40418Y113583D02*
X38582D01*
X40418Y115419D01*
Y115878D01*
X39959Y116338D01*
X39041D01*
X38582Y115878D01*
X184055Y55905D02*
Y58661D01*
X185433D01*
X185892Y58201D01*
Y57283D01*
X185433Y56824D01*
X184055D01*
X184974D02*
X185892Y55905D01*
X186810D02*
X187729D01*
X187269D01*
Y58661D01*
X186810Y58201D01*
X189106D02*
X189565Y58661D01*
X190483D01*
X190943Y58201D01*
Y57742D01*
X190483Y57283D01*
X190024D01*
X190483D01*
X190943Y56824D01*
Y56365D01*
X190483Y55905D01*
X189565D01*
X189106Y56365D01*
X57874Y58268D02*
Y61023D01*
X59251D01*
X59711Y60564D01*
Y59645D01*
X59251Y59186D01*
X57874D01*
X58792D02*
X59711Y58268D01*
X60629D02*
X61547D01*
X61088D01*
Y61023D01*
X60629Y60564D01*
X64762Y58268D02*
X62925D01*
X64762Y60104D01*
Y60564D01*
X64302Y61023D01*
X63384D01*
X62925Y60564D01*
X18110Y135039D02*
Y137794D01*
X19488D01*
X19947Y137335D01*
Y136417D01*
X19488Y135958D01*
X18110D01*
X19029D02*
X19947Y135039D01*
X20865D02*
X21784D01*
X21324D01*
Y137794D01*
X20865Y137335D01*
X23161Y135039D02*
X24079D01*
X23620D01*
Y137794D01*
X23161Y137335D01*
X34449Y17126D02*
Y19881D01*
X35826D01*
X36285Y19422D01*
Y18504D01*
X35826Y18044D01*
X34449D01*
X35367D02*
X36285Y17126D01*
X37204D02*
X38122D01*
X37663D01*
Y19881D01*
X37204Y19422D01*
X39500D02*
X39959Y19881D01*
X40877D01*
X41336Y19422D01*
Y17585D01*
X40877Y17126D01*
X39959D01*
X39500Y17585D01*
Y19422D01*
X204724Y40748D02*
Y43503D01*
X206102D01*
X206561Y43044D01*
Y42125D01*
X206102Y41666D01*
X204724D01*
X205643D02*
X206561Y40748D01*
X207479Y41207D02*
X207939Y40748D01*
X208857D01*
X209316Y41207D01*
Y43044D01*
X208857Y43503D01*
X207939D01*
X207479Y43044D01*
Y42585D01*
X207939Y42125D01*
X209316D01*
X204724Y55709D02*
Y58464D01*
X206102D01*
X206561Y58004D01*
Y57086D01*
X206102Y56627D01*
X204724D01*
X205643D02*
X206561Y55709D01*
X207479Y58004D02*
X207939Y58464D01*
X208857D01*
X209316Y58004D01*
Y57545D01*
X208857Y57086D01*
X209316Y56627D01*
Y56168D01*
X208857Y55709D01*
X207939D01*
X207479Y56168D01*
Y56627D01*
X207939Y57086D01*
X207479Y57545D01*
Y58004D01*
X207939Y57086D02*
X208857D01*
X185039Y70669D02*
Y73424D01*
X186417D01*
X186876Y72965D01*
Y72047D01*
X186417Y71588D01*
X185039D01*
X185958D02*
X186876Y70669D01*
X187794Y73424D02*
X189631D01*
Y72965D01*
X187794Y71128D01*
Y70669D01*
X58071Y135236D02*
Y137991D01*
X59448D01*
X59908Y137532D01*
Y136614D01*
X59448Y136155D01*
X58071D01*
X58989D02*
X59908Y135236D01*
X62663Y137991D02*
X61744Y137532D01*
X60826Y136614D01*
Y135695D01*
X61285Y135236D01*
X62203D01*
X62663Y135695D01*
Y136155D01*
X62203Y136614D01*
X60826D01*
X37992Y135433D02*
Y138188D01*
X39370D01*
X39829Y137729D01*
Y136811D01*
X39370Y136351D01*
X37992D01*
X38910D02*
X39829Y135433D01*
X42584Y138188D02*
X40747D01*
Y136811D01*
X41666Y137270D01*
X42125D01*
X42584Y136811D01*
Y135892D01*
X42125Y135433D01*
X41206D01*
X40747Y135892D01*
X163583Y85433D02*
Y88188D01*
X164960D01*
X165419Y87729D01*
Y86811D01*
X164960Y86351D01*
X163583D01*
X164501D02*
X165419Y85433D01*
X167715D02*
Y88188D01*
X166338Y86811D01*
X168174D01*
X58071Y73032D02*
Y75787D01*
X59448D01*
X59908Y75327D01*
Y74409D01*
X59448Y73950D01*
X58071D01*
X58989D02*
X59908Y73032D01*
X60826Y75327D02*
X61285Y75787D01*
X62203D01*
X62663Y75327D01*
Y74868D01*
X62203Y74409D01*
X61744D01*
X62203D01*
X62663Y73950D01*
Y73491D01*
X62203Y73032D01*
X61285D01*
X60826Y73491D01*
X34843Y73622D02*
Y76377D01*
X36220D01*
X36679Y75918D01*
Y75000D01*
X36220Y74540D01*
X34843D01*
X35761D02*
X36679Y73622D01*
X39434D02*
X37598D01*
X39434Y75459D01*
Y75918D01*
X38975Y76377D01*
X38057D01*
X37598Y75918D01*
X34843Y88386D02*
Y91141D01*
X36220D01*
X36679Y90682D01*
Y89763D01*
X36220Y89304D01*
X34843D01*
X35761D02*
X36679Y88386D01*
X37598D02*
X38516D01*
X38057D01*
Y91141D01*
X37598Y90682D01*
X223228Y82284D02*
Y85039D01*
X224606D01*
X225065Y84579D01*
Y83661D01*
X224606Y83202D01*
X223228D01*
X227820Y82284D02*
X225983D01*
X227820Y84120D01*
Y84579D01*
X227361Y85039D01*
X226443D01*
X225983Y84579D01*
X79921Y18701D02*
Y21456D01*
X81299D01*
X81758Y20997D01*
Y20078D01*
X81299Y19619D01*
X79921D01*
X82676Y18701D02*
X83595D01*
X83135D01*
Y21456D01*
X82676Y20997D01*
X57874Y46062D02*
Y43307D01*
X59711D01*
X60629Y45603D02*
X61088Y46062D01*
X62007D01*
X62466Y45603D01*
Y45144D01*
X62007Y44685D01*
X61547D01*
X62007D01*
X62466Y44225D01*
Y43766D01*
X62007Y43307D01*
X61088D01*
X60629Y43766D01*
X57677Y121850D02*
Y119095D01*
X59514D01*
X62269D02*
X60432D01*
X62269Y120931D01*
Y121390D01*
X61810Y121850D01*
X60891D01*
X60432Y121390D01*
X154331Y147243D02*
Y144488D01*
X156167D01*
X157086D02*
X158004D01*
X157545D01*
Y147243D01*
X157086Y146784D01*
X15026Y104527D02*
X14107D01*
X14567D01*
Y102231D01*
X14107Y101772D01*
X13648D01*
X13189Y102231D01*
X15944Y101772D02*
X16862D01*
X16403D01*
Y104527D01*
X15944Y104068D01*
X31890Y51968D02*
Y49213D01*
X33267D01*
X33726Y49672D01*
Y51508D01*
X33267Y51968D01*
X31890D01*
X36022Y49213D02*
Y51968D01*
X34645Y50590D01*
X36481D01*
X31693Y44487D02*
Y41732D01*
X33070D01*
X33530Y42191D01*
Y44028D01*
X33070Y44487D01*
X31693D01*
X34448Y44028D02*
X34907Y44487D01*
X35825D01*
X36285Y44028D01*
Y43569D01*
X35825Y43110D01*
X35366D01*
X35825D01*
X36285Y42651D01*
Y42191D01*
X35825Y41732D01*
X34907D01*
X34448Y42191D01*
X31496Y58464D02*
Y55709D01*
X32874D01*
X33333Y56168D01*
Y58004D01*
X32874Y58464D01*
X31496D01*
X36088Y55709D02*
X34251D01*
X36088Y57545D01*
Y58004D01*
X35629Y58464D01*
X34710D01*
X34251Y58004D01*
X186614Y83070D02*
Y80315D01*
X187992D01*
X188451Y80774D01*
Y82611D01*
X187992Y83070D01*
X186614D01*
X189369Y80315D02*
X190287D01*
X189828D01*
Y83070D01*
X189369Y82611D01*
X185892Y43044D02*
X185433Y43503D01*
X184514D01*
X184055Y43044D01*
Y41207D01*
X184514Y40748D01*
X185433D01*
X185892Y41207D01*
X186810Y40748D02*
X187729D01*
X187269D01*
Y43503D01*
X186810Y43044D01*
X190483Y40748D02*
Y43503D01*
X189106Y42125D01*
X190943D01*
X59711Y91075D02*
X59251Y91535D01*
X58333D01*
X57874Y91075D01*
Y89239D01*
X58333Y88779D01*
X59251D01*
X59711Y89239D01*
X60629Y88779D02*
X61547D01*
X61088D01*
Y91535D01*
X60629Y91075D01*
X62925D02*
X63384Y91535D01*
X64302D01*
X64762Y91075D01*
Y90616D01*
X64302Y90157D01*
X63843D01*
X64302D01*
X64762Y89698D01*
Y89239D01*
X64302Y88779D01*
X63384D01*
X62925Y89239D01*
X59711Y106233D02*
X59251Y106692D01*
X58333D01*
X57874Y106233D01*
Y104396D01*
X58333Y103937D01*
X59251D01*
X59711Y104396D01*
X60629Y103937D02*
X61547D01*
X61088D01*
Y106692D01*
X60629Y106233D01*
X64762Y103937D02*
X62925D01*
X64762Y105774D01*
Y106233D01*
X64302Y106692D01*
X63384D01*
X62925Y106233D01*
X19947Y121587D02*
X19488Y122046D01*
X18569D01*
X18110Y121587D01*
Y119750D01*
X18569Y119291D01*
X19488D01*
X19947Y119750D01*
X20865Y119291D02*
X21784D01*
X21324D01*
Y122046D01*
X20865Y121587D01*
X23161Y119291D02*
X24079D01*
X23620D01*
Y122046D01*
X23161Y121587D01*
X98293Y25918D02*
X97834Y26377D01*
X96916D01*
X96457Y25918D01*
Y24081D01*
X96916Y23622D01*
X97834D01*
X98293Y24081D01*
X99212Y23622D02*
X100130D01*
X99671D01*
Y26377D01*
X99212Y25918D01*
X101508D02*
X101967Y26377D01*
X102885D01*
X103344Y25918D01*
Y24081D01*
X102885Y23622D01*
X101967D01*
X101508Y24081D01*
Y25918D01*
X59711Y19619D02*
X59251Y20078D01*
X58333D01*
X57874Y19619D01*
Y17782D01*
X58333Y17323D01*
X59251D01*
X59711Y17782D01*
X60629D02*
X61088Y17323D01*
X62007D01*
X62466Y17782D01*
Y19619D01*
X62007Y20078D01*
X61088D01*
X60629Y19619D01*
Y19160D01*
X61088Y18700D01*
X62466D01*
X206561Y72768D02*
X206102Y73228D01*
X205184D01*
X204724Y72768D01*
Y70932D01*
X205184Y70472D01*
X206102D01*
X206561Y70932D01*
X207479Y72768D02*
X207939Y73228D01*
X208857D01*
X209316Y72768D01*
Y72309D01*
X208857Y71850D01*
X209316Y71391D01*
Y70932D01*
X208857Y70472D01*
X207939D01*
X207479Y70932D01*
Y71391D01*
X207939Y71850D01*
X207479Y72309D01*
Y72768D01*
X207939Y71850D02*
X208857D01*
X130971Y124343D02*
X130511Y124802D01*
X129593D01*
X129134Y124343D01*
Y122506D01*
X129593Y122047D01*
X130511D01*
X130971Y122506D01*
X131889Y124802D02*
X133726D01*
Y124343D01*
X131889Y122506D01*
Y122047D01*
X149475Y124343D02*
X149015Y124802D01*
X148097D01*
X147638Y124343D01*
Y122506D01*
X148097Y122047D01*
X149015D01*
X149475Y122506D01*
X152229Y124802D02*
X151311Y124343D01*
X150393Y123425D01*
Y122506D01*
X150852Y122047D01*
X151770D01*
X152229Y122506D01*
Y122966D01*
X151770Y123425D01*
X150393D01*
X113451Y134382D02*
X112992Y134842D01*
X112073D01*
X111614Y134382D01*
Y132546D01*
X112073Y132087D01*
X112992D01*
X113451Y132546D01*
X116206Y134842D02*
X114369D01*
Y133464D01*
X115287Y133923D01*
X115747D01*
X116206Y133464D01*
Y132546D01*
X115747Y132087D01*
X114828D01*
X114369Y132546D01*
X93963Y139501D02*
X93503Y139960D01*
X92585D01*
X92126Y139501D01*
Y137664D01*
X92585Y137205D01*
X93503D01*
X93963Y137664D01*
X96258Y137205D02*
Y139960D01*
X94881Y138582D01*
X96718D01*
X165616Y72375D02*
X165157Y72834D01*
X164239D01*
X163779Y72375D01*
Y70538D01*
X164239Y70079D01*
X165157D01*
X165616Y70538D01*
X166534Y72375D02*
X166994Y72834D01*
X167912D01*
X168371Y72375D01*
Y71915D01*
X167912Y71456D01*
X167453D01*
X167912D01*
X168371Y70997D01*
Y70538D01*
X167912Y70079D01*
X166994D01*
X166534Y70538D01*
X165813Y57611D02*
X165354Y58070D01*
X164436D01*
X163976Y57611D01*
Y55774D01*
X164436Y55315D01*
X165354D01*
X165813Y55774D01*
X168568Y55315D02*
X166731D01*
X168568Y57152D01*
Y57611D01*
X168109Y58070D01*
X167191D01*
X166731Y57611D01*
X166010Y42843D02*
X165551Y43302D01*
X164632D01*
X164173Y42843D01*
Y41006D01*
X164632Y40547D01*
X165551D01*
X166010Y41006D01*
X166928Y40547D02*
X167847D01*
X167387D01*
Y43302D01*
X166928Y42843D01*
M02*
