G04 Layer_Color=8421504*
%FSLAX25Y25*%
%MOIN*%
G70*
G01*
G75*
%ADD10R,0.05118X0.01400*%
%ADD11R,0.05118X0.05906*%
%ADD12R,0.03937X0.01400*%
%ADD13R,0.04921X0.07874*%
%ADD14R,0.07087X0.06299*%
%ADD15R,0.05118X0.02756*%
%ADD16R,0.06693X0.03937*%
%ADD17R,0.03150X0.05512*%
%ADD18R,0.01575X0.05512*%
%ADD19R,0.05512X0.01575*%
%ADD20R,0.01575X0.03937*%
%ADD21R,0.03150X0.16929*%
%ADD22R,0.02756X0.12992*%
%ADD23R,0.03150X0.12992*%
%ADD24R,0.07087X0.02165*%
%ADD25R,0.07500X0.07100*%
%ADD26R,0.05600X0.01400*%
%ADD27R,0.03937X0.07874*%
%ADD28R,0.11811X0.03150*%
D10*
X43341Y30356D02*
D03*
Y27756D02*
D03*
Y25156D02*
D03*
X52328D02*
D03*
Y27756D02*
D03*
Y30356D02*
D03*
D11*
X167520Y79724D02*
D03*
X175000D02*
D03*
X167520Y64764D02*
D03*
X175000D02*
D03*
X167520Y49803D02*
D03*
X175000D02*
D03*
X167520Y34839D02*
D03*
X175000D02*
D03*
X187598D02*
D03*
X195079D02*
D03*
X187598Y49803D02*
D03*
X195079D02*
D03*
Y64764D02*
D03*
X187598D02*
D03*
X214799D02*
D03*
X207319D02*
D03*
X214799Y49803D02*
D03*
X207319D02*
D03*
X214799Y34839D02*
D03*
X207319D02*
D03*
X21850Y129508D02*
D03*
X29331D02*
D03*
X21654Y113583D02*
D03*
X29134D02*
D03*
X41732Y129508D02*
D03*
X49213D02*
D03*
X61508D02*
D03*
X68988D02*
D03*
X61417Y113583D02*
D03*
X68898D02*
D03*
Y98032D02*
D03*
X61417D02*
D03*
X68988Y82677D02*
D03*
X61508D02*
D03*
X38189D02*
D03*
X45669D02*
D03*
X38189Y67716D02*
D03*
X45669D02*
D03*
X61508D02*
D03*
X68988D02*
D03*
X61417Y52756D02*
D03*
X68898D02*
D03*
X61508Y37402D02*
D03*
X68988D02*
D03*
X37992Y11614D02*
D03*
X45472D02*
D03*
X61508D02*
D03*
X68988D02*
D03*
X140945Y141535D02*
D03*
X148425D02*
D03*
X148622Y130905D02*
D03*
X141142D02*
D03*
X129921Y131102D02*
D03*
X122441D02*
D03*
X102165Y141535D02*
D03*
X109646D02*
D03*
X129921Y141732D02*
D03*
X122441D02*
D03*
X91142Y26575D02*
D03*
X83661D02*
D03*
D12*
X40157Y57087D02*
D03*
X48425D02*
D03*
X40157Y50197D02*
D03*
X48425D02*
D03*
X40157Y43110D02*
D03*
X48425D02*
D03*
D13*
X194488Y78740D02*
D03*
X209449D02*
D03*
D14*
X7087Y125591D02*
D03*
Y114567D02*
D03*
X25591Y21063D02*
D03*
Y10039D02*
D03*
D15*
X39961Y107480D02*
D03*
Y103740D02*
D03*
Y100000D02*
D03*
X49409D02*
D03*
Y107480D02*
D03*
D16*
X138173Y22244D02*
D03*
Y7283D02*
D03*
X164976Y22244D02*
D03*
Y7283D02*
D03*
X183646Y22244D02*
D03*
Y7283D02*
D03*
X210449Y22244D02*
D03*
Y7283D02*
D03*
D17*
X218110Y129331D02*
D03*
Y89961D02*
D03*
D18*
X181496Y129331D02*
D03*
X189764D02*
D03*
X187008D02*
D03*
X184252D02*
D03*
X198031D02*
D03*
X195275D02*
D03*
X192520D02*
D03*
X206299D02*
D03*
X203543D02*
D03*
X200787D02*
D03*
X178740Y89961D02*
D03*
X181496D02*
D03*
X184252D02*
D03*
X187008D02*
D03*
X189764D02*
D03*
X192520D02*
D03*
X195275D02*
D03*
X198031D02*
D03*
X200787D02*
D03*
X203543D02*
D03*
X206299D02*
D03*
X209055D02*
D03*
X211811D02*
D03*
X214567D02*
D03*
D19*
X171653Y109646D02*
D03*
Y106890D02*
D03*
Y104134D02*
D03*
Y117913D02*
D03*
Y115157D02*
D03*
Y112402D02*
D03*
Y123425D02*
D03*
Y120669D02*
D03*
Y101378D02*
D03*
Y98622D02*
D03*
Y95866D02*
D03*
Y93110D02*
D03*
Y126181D02*
D03*
D20*
X210433Y98228D02*
D03*
X215945D02*
D03*
D21*
X88665Y62961D02*
D03*
D22*
X100236Y61122D02*
D03*
X105236D02*
D03*
X110236D02*
D03*
X115236D02*
D03*
X120236D02*
D03*
Y88484D02*
D03*
X115236D02*
D03*
X110236D02*
D03*
X105236D02*
D03*
X100236D02*
D03*
D23*
X131890Y61122D02*
D03*
Y88484D02*
D03*
X88582D02*
D03*
D24*
X78740Y130610D02*
D03*
Y127264D02*
D03*
X105118D02*
D03*
Y130610D02*
D03*
D25*
X6299Y70027D02*
D03*
Y101575D02*
D03*
D26*
X16799Y83227D02*
D03*
Y85827D02*
D03*
Y88386D02*
D03*
Y80627D02*
D03*
Y90945D02*
D03*
D27*
X3543Y57284D02*
D03*
Y26181D02*
D03*
X14173Y57284D02*
D03*
Y26181D02*
D03*
D28*
X21654Y50591D02*
D03*
Y38780D02*
D03*
Y32874D02*
D03*
M02*
