M48
;Layer_Color=9474304
;FILE_FORMAT=2:5
INCH,LZ
;TYPE=PLATED
T1F00S00C0.01968
T2F00S00C0.02756
T3F00S00C0.03543
;TYPE=NON_PLATED
T4F00S00C0.03150
T5F00S00C0.07087
T6F00S00C0.10236
%
T01
X005315Y000315
X0044291Y0018898
X0060236Y0024803
X0049213Y0039567
X0052756Y005
X0055512Y0057284
X0045276Y006811
X0031693Y0050984
X0030906Y0030118
X0061811Y0030709
X0062008Y0052165
X0095965Y006939
X0150394Y0051378
X0167126Y0050197
X0195276Y0049016
X0201181Y004252
X0206693Y003563
X0195079Y0034843
X0200591Y0025787
X0202559Y0056102
X0207319Y0064764
X0215158
X0195079
X0159843Y0015945
X0125197Y0024803
X0220669Y0041535
X0209646Y0078937
X0200394Y0077559
X0181693Y0078937
X0175394Y0079528
X0178937Y0101575
X0179134Y0107283
X0161614Y0105118
Y0099213
X0158071Y0107874
X0160433Y0117913
X0149803Y0114961
X0148819Y013189
X0178347Y0130512
X0204134Y0113779
X020689Y0110236
X0212992Y0116732
X0199213Y0097244
X0194882Y0097441
X0190748Y0097835
X0137598Y0085827
X012815Y0115354
X0110433Y0113779
X0104134Y0106693
X0095866Y0102953
X0076575Y0115945
X0084646Y0135827
X0060827Y0129331
X0061024Y0098425
X0061221Y0082284
X010374Y0071653
X0110236Y0071457
X0113779Y0130512
X0111024Y0141339
X0045669Y0124015
X0029134Y0113583
Y0090945
X0045669Y0082284
T02
X0161024Y0063779
Y0079528
X0076181Y0083268
X0075787Y009941
X0052772Y0130008
T03
X0084646Y0012205
X0094646
X0104646
X0114646
X0227953Y0025591
Y0035591
Y0045591
Y005559
Y0065591
Y007559
T04
X0008858Y0035827
Y0047638
T05
X011811Y0031496
Y011811
T06
X0008858Y0008858
X0227362
Y0140748
X0008858
M30
