G04 Layer_Color=8388736*
%FSLAX25Y25*%
%MOIN*%
G70*
G01*
G75*
%ADD45R,0.05918X0.02200*%
%ADD46R,0.05918X0.06706*%
%ADD47R,0.04737X0.02200*%
%ADD48R,0.05721X0.08674*%
%ADD49R,0.07887X0.07099*%
%ADD50R,0.05918X0.03556*%
%ADD51R,0.07493X0.04737*%
%ADD52R,0.03950X0.06312*%
%ADD53R,0.02375X0.06312*%
%ADD54R,0.06312X0.02375*%
%ADD55R,0.02375X0.04737*%
%ADD56R,0.03950X0.17729*%
%ADD57R,0.03556X0.13792*%
%ADD58R,0.03950X0.13792*%
%ADD59R,0.07887X0.02965*%
%ADD60R,0.08300X0.07900*%
%ADD61R,0.06400X0.02200*%
%ADD62R,0.04737X0.08674*%
%ADD63R,0.12611X0.03950*%
%ADD64C,0.11036*%
%ADD65R,0.06706X0.06706*%
%ADD66C,0.06706*%
%ADD67R,0.06706X0.06706*%
%ADD68C,0.07887*%
%ADD69C,0.03950*%
D45*
X43341Y30356D02*
D03*
Y27756D02*
D03*
Y25156D02*
D03*
X52328D02*
D03*
Y27756D02*
D03*
Y30356D02*
D03*
D46*
X167520Y79724D02*
D03*
X175000D02*
D03*
X167520Y64764D02*
D03*
X175000D02*
D03*
X167520Y49803D02*
D03*
X175000D02*
D03*
X167520Y34839D02*
D03*
X175000D02*
D03*
X187598D02*
D03*
X195079D02*
D03*
X187598Y49803D02*
D03*
X195079D02*
D03*
Y64764D02*
D03*
X187598D02*
D03*
X214799D02*
D03*
X207319D02*
D03*
X214799Y49803D02*
D03*
X207319D02*
D03*
X214799Y34839D02*
D03*
X207319D02*
D03*
X21850Y129508D02*
D03*
X29331D02*
D03*
X21654Y113583D02*
D03*
X29134D02*
D03*
X41732Y129508D02*
D03*
X49213D02*
D03*
X61508D02*
D03*
X68988D02*
D03*
X61417Y113583D02*
D03*
X68898D02*
D03*
Y98032D02*
D03*
X61417D02*
D03*
X68988Y82677D02*
D03*
X61508D02*
D03*
X38189D02*
D03*
X45669D02*
D03*
X38189Y67716D02*
D03*
X45669D02*
D03*
X61508D02*
D03*
X68988D02*
D03*
X61417Y52756D02*
D03*
X68898D02*
D03*
X61508Y37402D02*
D03*
X68988D02*
D03*
X37992Y11614D02*
D03*
X45472D02*
D03*
X61508D02*
D03*
X68988D02*
D03*
X140945Y141535D02*
D03*
X148425D02*
D03*
X148622Y130905D02*
D03*
X141142D02*
D03*
X129921Y131102D02*
D03*
X122441D02*
D03*
X102165Y141535D02*
D03*
X109646D02*
D03*
X129921Y141732D02*
D03*
X122441D02*
D03*
X91142Y26575D02*
D03*
X83661D02*
D03*
D47*
X40157Y57087D02*
D03*
X48425D02*
D03*
X40157Y50197D02*
D03*
X48425D02*
D03*
X40157Y43110D02*
D03*
X48425D02*
D03*
D48*
X194488Y78740D02*
D03*
X209449D02*
D03*
D49*
X7087Y125591D02*
D03*
Y114567D02*
D03*
X25591Y21063D02*
D03*
Y10039D02*
D03*
D50*
X39961Y107480D02*
D03*
Y103740D02*
D03*
Y100000D02*
D03*
X49409D02*
D03*
Y107480D02*
D03*
D51*
X138173Y22244D02*
D03*
Y7283D02*
D03*
X164976Y22244D02*
D03*
Y7283D02*
D03*
X183646Y22244D02*
D03*
Y7283D02*
D03*
X210449Y22244D02*
D03*
Y7283D02*
D03*
D52*
X218110Y129331D02*
D03*
Y89961D02*
D03*
D53*
X181496Y129331D02*
D03*
X189764D02*
D03*
X187008D02*
D03*
X184252D02*
D03*
X198031D02*
D03*
X195275D02*
D03*
X192520D02*
D03*
X206299D02*
D03*
X203543D02*
D03*
X200787D02*
D03*
X178740Y89961D02*
D03*
X181496D02*
D03*
X184252D02*
D03*
X187008D02*
D03*
X189764D02*
D03*
X192520D02*
D03*
X195275D02*
D03*
X198031D02*
D03*
X200787D02*
D03*
X203543D02*
D03*
X206299D02*
D03*
X209055D02*
D03*
X211811D02*
D03*
X214567D02*
D03*
D54*
X171653Y109646D02*
D03*
Y106890D02*
D03*
Y104134D02*
D03*
Y117913D02*
D03*
Y115157D02*
D03*
Y112402D02*
D03*
Y123425D02*
D03*
Y120669D02*
D03*
Y101378D02*
D03*
Y98622D02*
D03*
Y95866D02*
D03*
Y93110D02*
D03*
Y126181D02*
D03*
D55*
X210433Y98228D02*
D03*
X215945D02*
D03*
D56*
X88665Y62961D02*
D03*
D57*
X100236Y61122D02*
D03*
X105236D02*
D03*
X110236D02*
D03*
X115236D02*
D03*
X120236D02*
D03*
Y88484D02*
D03*
X115236D02*
D03*
X110236D02*
D03*
X105236D02*
D03*
X100236D02*
D03*
D58*
X131890Y61122D02*
D03*
Y88484D02*
D03*
X88582D02*
D03*
D59*
X78740Y130610D02*
D03*
Y127264D02*
D03*
X105118D02*
D03*
Y130610D02*
D03*
D60*
X6299Y70027D02*
D03*
Y101575D02*
D03*
D61*
X16799Y83227D02*
D03*
Y85827D02*
D03*
Y88386D02*
D03*
Y80627D02*
D03*
Y90945D02*
D03*
D62*
X3543Y57284D02*
D03*
Y26181D02*
D03*
X14173Y57284D02*
D03*
Y26181D02*
D03*
D63*
X21654Y50591D02*
D03*
Y38780D02*
D03*
Y32874D02*
D03*
D64*
X227362Y140748D02*
D03*
X8858D02*
D03*
Y8858D02*
D03*
X227362D02*
D03*
D65*
X227953Y25591D02*
D03*
D66*
Y35591D02*
D03*
Y45591D02*
D03*
Y55590D02*
D03*
Y65591D02*
D03*
Y75590D02*
D03*
X94646Y12205D02*
D03*
X104646D02*
D03*
X114646D02*
D03*
D67*
X84646D02*
D03*
D68*
X118110Y118110D02*
D03*
Y31496D02*
D03*
D69*
X8858Y47638D02*
D03*
Y35827D02*
D03*
M02*
